<svg xmlns="http://www.w3.org/2000/svg" viewBox="0 0 1200 800"><defs><pattern id="st-blanco-carrara" patternUnits="userSpaceOnUse" width="300" height="200"><rect width="300" height="200" fill="#EDEDEA"/><polyline points="0,203 50,177 100,146 150,169 200,185 250,191 300,192" fill="none" stroke="#C9CBC9" stroke-width="3.2" opacity="0.37" stroke-linecap="round"/><polyline points="0,43 50,82 100,68 150,56 200,91 250,84 300,82" fill="none" stroke="#C9CBC9" stroke-width="3.9" opacity="0.47" stroke-linecap="round"/><polyline points="0,139 50,106 100,154 150,165 200,168 250,115 300,139" fill="none" stroke="#B4B7B6" stroke-width="2.5" opacity="0.49" stroke-linecap="round"/><polyline points="0,137 50,123 100,128 150,158 200,142 250,189 300,177" fill="none" stroke="#C9CBC9" stroke-width="3.1" opacity="0.61" stroke-linecap="round"/><polyline points="0,104 50,121 100,125 150,93 200,111 250,102 300,108" fill="none" stroke="#C9CBC9" stroke-width="3.2" opacity="0.67" stroke-linecap="round"/><polyline points="0,125 50,121 100,162 150,167 200,110 250,147 300,168" fill="none" stroke="#B4B7B6" stroke-width="3.5" opacity="0.49" stroke-linecap="round"/><polyline points="0,184 50,174 100,185 150,166 200,182 250,167 300,158" fill="none" stroke="#C9CBC9" stroke-width="1.7" opacity="0.49" stroke-linecap="round"/></pattern></defs>
    <rect width="1200" height="800" fill="#EFEEEC"/>
    <circle cx="420" cy="240" r="120" fill="#FDFDFC" stroke="#E0E3E5" stroke-width="8"/>
    <circle cx="780" cy="240" r="120" fill="#FDFDFC" stroke="#E0E3E5" stroke-width="8"/>
    <rect x="180" y="430" width="840" height="56" fill="url(#st-blanco-carrara)"/>
    <rect x="180" y="486" width="840" height="160" fill="#E7DCCB"/>
    <rect x="180" y="560" width="840" height="120" fill="url(#st-blanco-carrara)" opacity="0.4"/>
    <ellipse cx="420" cy="428" rx="90" ry="12" fill="#FFFFFF" opacity="0.7"/>
    <ellipse cx="780" cy="428" rx="90" ry="12" fill="#FFFFFF" opacity="0.7"/>
    <path d="M 590 700 q 10 -40 14 -80" stroke="#8FA98B" stroke-width="6" fill="none"/></svg>