<svg xmlns="http://www.w3.org/2000/svg" viewBox="0 0 1200 800"><defs><pattern id="st-calacatta-oro" patternUnits="userSpaceOnUse" width="300" height="200"><rect width="300" height="200" fill="#F2EFE8"/><polyline points="0,87 50,96 100,64 150,86 200,118 250,79 300,83" fill="none" stroke="#C9A25E" stroke-width="2.0" opacity="0.51" stroke-linecap="round"/><polyline points="0,143 50,192 100,188 150,134 200,137 250,144 300,151" fill="none" stroke="#C9A25E" stroke-width="2.7" opacity="0.43" stroke-linecap="round"/><polyline points="0,87 50,76 100,94 150,84 200,113 250,81 300,110" fill="none" stroke="#9A9C9E" stroke-width="2.0" opacity="0.42" stroke-linecap="round"/><polyline points="0,-18 50,19 100,15 150,13 200,29 250,23 300,-17" fill="none" stroke="#C9A25E" stroke-width="1.4" opacity="0.63" stroke-linecap="round"/><polyline points="0,21 50,40 100,24 150,36 200,13 250,58 300,19" fill="none" stroke="#C9A25E" stroke-width="1.2" opacity="0.33" stroke-linecap="round"/><polyline points="0,198 50,185 100,211 150,187 200,196 250,198 300,147" fill="none" stroke="#9A9C9E" stroke-width="3.8" opacity="0.61" stroke-linecap="round"/><polyline points="0,100 50,86 100,80 150,69 200,62 250,127 300,59" fill="none" stroke="#C9A25E" stroke-width="1.4" opacity="0.66" stroke-linecap="round"/></pattern></defs>
    <rect width="1200" height="800" fill="#EFEEEC"/>
    <circle cx="420" cy="240" r="120" fill="#FDFDFC" stroke="#E0E3E5" stroke-width="8"/>
    <circle cx="780" cy="240" r="120" fill="#FDFDFC" stroke="#E0E3E5" stroke-width="8"/>
    <rect x="180" y="430" width="840" height="56" fill="url(#st-calacatta-oro)"/>
    <rect x="180" y="486" width="840" height="160" fill="#E7DCCB"/>
    <rect x="180" y="560" width="840" height="120" fill="url(#st-calacatta-oro)" opacity="0.4"/>
    <ellipse cx="420" cy="428" rx="90" ry="12" fill="#FFFFFF" opacity="0.7"/>
    <ellipse cx="780" cy="428" rx="90" ry="12" fill="#FFFFFF" opacity="0.7"/>
    <path d="M 590 700 q 10 -40 14 -80" stroke="#8FA98B" stroke-width="6" fill="none"/></svg>