<svg xmlns="http://www.w3.org/2000/svg" viewBox="0 0 1200 800"><defs><pattern id="st-negro-marquina" patternUnits="userSpaceOnUse" width="300" height="200"><rect width="300" height="200" fill="#1E2022"/><polyline points="0,130 50,124 100,135 150,107 200,106 250,102 300,77" fill="none" stroke="#F4F4F2" stroke-width="2.9" opacity="0.51" stroke-linecap="round"/><polyline points="0,11 50,6 100,19 150,21 200,31 250,6 300,6" fill="none" stroke="#F4F4F2" stroke-width="4.0" opacity="0.67" stroke-linecap="round"/><polyline points="0,56 50,57 100,81 150,51 200,44 250,94 300,48" fill="none" stroke="#3A3D3F" stroke-width="3.3" opacity="0.44" stroke-linecap="round"/><polyline points="0,128 50,121 100,140 150,97 200,146 250,107 300,142" fill="none" stroke="#F4F4F2" stroke-width="3.5" opacity="0.53" stroke-linecap="round"/><polyline points="0,17 50,31 100,-29 150,35 200,21 250,-2 300,-30" fill="none" stroke="#F4F4F2" stroke-width="2.7" opacity="0.53" stroke-linecap="round"/><polyline points="0,81 50,91 100,48 150,77 200,83 250,46 300,85" fill="none" stroke="#3A3D3F" stroke-width="2.9" opacity="0.57" stroke-linecap="round"/><polyline points="0,133 50,70 100,89 150,71 200,114 250,103 300,97" fill="none" stroke="#F4F4F2" stroke-width="1.0" opacity="0.52" stroke-linecap="round"/></pattern></defs>
    <rect width="1200" height="800" fill="#EFEEEC"/>
    <circle cx="420" cy="240" r="120" fill="#FDFDFC" stroke="#E0E3E5" stroke-width="8"/>
    <circle cx="780" cy="240" r="120" fill="#FDFDFC" stroke="#E0E3E5" stroke-width="8"/>
    <rect x="180" y="430" width="840" height="56" fill="url(#st-negro-marquina)"/>
    <rect x="180" y="486" width="840" height="160" fill="#E7DCCB"/>
    <rect x="180" y="560" width="840" height="120" fill="url(#st-negro-marquina)" opacity="0.4"/>
    <ellipse cx="420" cy="428" rx="90" ry="12" fill="#FFFFFF" opacity="0.7"/>
    <ellipse cx="780" cy="428" rx="90" ry="12" fill="#FFFFFF" opacity="0.7"/>
    <path d="M 590 700 q 10 -40 14 -80" stroke="#8FA98B" stroke-width="6" fill="none"/></svg>