<svg xmlns="http://www.w3.org/2000/svg" viewBox="0 0 1200 800"><defs><pattern id="st-smithtown" patternUnits="userSpaceOnUse" width="300" height="200"><rect width="300" height="200" fill="#EDEDEA"/><polyline points="0,78 50,45 100,56 150,102 200,86 250,94 300,85" fill="none" stroke="#B9BCC0" stroke-width="1.6" opacity="0.46" stroke-linecap="round"/><polyline points="0,92 50,52 100,34 150,56 200,43 250,69 300,31" fill="none" stroke="#B9BCC0" stroke-width="2.2" opacity="0.39" stroke-linecap="round"/><polyline points="0,36 50,41 100,50 150,32 200,41 250,88 300,65" fill="none" stroke="#8C9095" stroke-width="2.9" opacity="0.43" stroke-linecap="round"/><polyline points="0,25 50,38 100,33 150,42 200,-18 250,1 300,29" fill="none" stroke="#B9BCC0" stroke-width="2.0" opacity="0.34" stroke-linecap="round"/><polyline points="0,87 50,113 100,139 150,129 200,139 250,144 300,123" fill="none" stroke="#B9BCC0" stroke-width="2.9" opacity="0.38" stroke-linecap="round"/><polyline points="0,31 50,22 100,80 150,27 200,26 250,33 300,72" fill="none" stroke="#8C9095" stroke-width="3.3" opacity="0.55" stroke-linecap="round"/><polyline points="0,109 50,112 100,155 150,95 200,146 250,100 300,133" fill="none" stroke="#B9BCC0" stroke-width="2.5" opacity="0.58" stroke-linecap="round"/></pattern></defs>
    <rect width="1200" height="800" fill="#EFEEEC"/>
    <circle cx="420" cy="240" r="120" fill="#FDFDFC" stroke="#E0E3E5" stroke-width="8"/>
    <circle cx="780" cy="240" r="120" fill="#FDFDFC" stroke="#E0E3E5" stroke-width="8"/>
    <rect x="180" y="430" width="840" height="56" fill="url(#st-smithtown)"/>
    <rect x="180" y="486" width="840" height="160" fill="#E7DCCB"/>
    <rect x="180" y="560" width="840" height="120" fill="url(#st-smithtown)" opacity="0.4"/>
    <ellipse cx="420" cy="428" rx="90" ry="12" fill="#FFFFFF" opacity="0.7"/>
    <ellipse cx="780" cy="428" rx="90" ry="12" fill="#FFFFFF" opacity="0.7"/>
    <path d="M 590 700 q 10 -40 14 -80" stroke="#8FA98B" stroke-width="6" fill="none"/></svg>