<svg xmlns="http://www.w3.org/2000/svg" viewBox="0 0 1200 800"><defs><pattern id="st-verde-ubatuba" patternUnits="userSpaceOnUse" width="300" height="200"><rect width="300" height="200" fill="#22392E"/><circle cx="118.2" cy="110.0" r="2.2" fill="#101B15" opacity="0.34"/><circle cx="134.8" cy="15.9" r="0.9" fill="#C7A94F" opacity="0.29"/><circle cx="238.4" cy="131.0" r="2.3" fill="#C7A94F" opacity="0.73"/><circle cx="152.0" cy="189.2" r="2.7" fill="#C7A94F" opacity="0.38"/><circle cx="21.2" cy="183.8" r="2.7" fill="#C7A94F" opacity="0.46"/><circle cx="146.7" cy="56.1" r="2.0" fill="#101B15" opacity="0.36"/><circle cx="18.5" cy="117.9" r="2.6" fill="#101B15" opacity="0.26"/><circle cx="248.5" cy="6.8" r="2.6" fill="#101B15" opacity="0.47"/><circle cx="204.4" cy="175.3" r="2.1" fill="#C7A94F" opacity="0.68"/><circle cx="42.6" cy="112.8" r="2.1" fill="#101B15" opacity="0.50"/><circle cx="241.8" cy="101.6" r="2.8" fill="#C7A94F" opacity="0.36"/><circle cx="136.4" cy="105.1" r="2.5" fill="#101B15" opacity="0.73"/><circle cx="249.3" cy="190.6" r="1.4" fill="#C7A94F" opacity="0.66"/><circle cx="26.1" cy="84.8" r="1.3" fill="#C7A94F" opacity="0.69"/><circle cx="267.6" cy="62.2" r="1.3" fill="#C7A94F" opacity="0.56"/><circle cx="63.7" cy="168.0" r="2.7" fill="#C7A94F" opacity="0.28"/><circle cx="226.4" cy="173.1" r="0.6" fill="#101B15" opacity="0.49"/><circle cx="23.2" cy="63.3" r="1.0" fill="#C7A94F" opacity="0.71"/><circle cx="110.7" cy="61.5" r="2.0" fill="#101B15" opacity="0.40"/><circle cx="267.6" cy="183.1" r="0.8" fill="#101B15" opacity="0.30"/><circle cx="28.1" cy="125.0" r="1.6" fill="#C7A94F" opacity="0.72"/><circle cx="115.3" cy="87.9" r="1.6" fill="#101B15" opacity="0.55"/><circle cx="174.8" cy="131.6" r="2.1" fill="#C7A94F" opacity="0.67"/><circle cx="7.3" cy="64.1" r="1.2" fill="#101B15" opacity="0.63"/><circle cx="102.6" cy="63.8" r="1.7" fill="#C7A94F" opacity="0.29"/><circle cx="272.9" cy="35.1" r="2.4" fill="#101B15" opacity="0.63"/><circle cx="285.8" cy="97.1" r="2.1" fill="#C7A94F" opacity="0.49"/><circle cx="97.6" cy="6.0" r="2.4" fill="#101B15" opacity="0.66"/><circle cx="287.1" cy="110.4" r="2.0" fill="#101B15" opacity="0.73"/><circle cx="288.5" cy="40.8" r="2.3" fill="#101B15" opacity="0.33"/><circle cx="125.1" cy="131.0" r="1.8" fill="#101B15" opacity="0.69"/><circle cx="242.2" cy="174.2" r="1.1" fill="#101B15" opacity="0.51"/><circle cx="40.7" cy="111.8" r="2.0" fill="#101B15" opacity="0.69"/><circle cx="210.3" cy="55.5" r="2.2" fill="#101B15" opacity="0.42"/><circle cx="163.3" cy="43.0" r="2.0" fill="#C7A94F" opacity="0.51"/><circle cx="167.1" cy="126.8" r="1.5" fill="#C7A94F" opacity="0.63"/><circle cx="78.2" cy="196.3" r="1.7" fill="#C7A94F" opacity="0.41"/><circle cx="75.3" cy="133.6" r="2.7" fill="#101B15" opacity="0.27"/><circle cx="92.8" cy="102.4" r="0.7" fill="#C7A94F" opacity="0.67"/><circle cx="53.7" cy="169.9" r="2.5" fill="#C7A94F" opacity="0.68"/><circle cx="3.4" cy="62.7" r="1.2" fill="#C7A94F" opacity="0.33"/><circle cx="142.8" cy="55.4" r="2.3" fill="#C7A94F" opacity="0.37"/><circle cx="161.8" cy="193.1" r="2.8" fill="#C7A94F" opacity="0.29"/><circle cx="272.4" cy="46.8" r="2.1" fill="#101B15" opacity="0.75"/><circle cx="42.1" cy="2.3" r="1.9" fill="#C7A94F" opacity="0.26"/><circle cx="127.5" cy="82.4" r="2.5" fill="#C7A94F" opacity="0.27"/><circle cx="7.3" cy="102.7" r="1.1" fill="#C7A94F" opacity="0.55"/><circle cx="115.7" cy="159.9" r="1.9" fill="#C7A94F" opacity="0.38"/><circle cx="275.9" cy="54.7" r="2.1" fill="#C7A94F" opacity="0.67"/><circle cx="133.3" cy="47.0" r="0.7" fill="#C7A94F" opacity="0.28"/><circle cx="88.7" cy="144.8" r="2.5" fill="#101B15" opacity="0.28"/><circle cx="32.0" cy="126.4" r="1.6" fill="#101B15" opacity="0.52"/><circle cx="75.2" cy="96.4" r="1.0" fill="#C7A94F" opacity="0.48"/><circle cx="285.9" cy="173.6" r="1.7" fill="#101B15" opacity="0.50"/><circle cx="20.7" cy="114.4" r="1.2" fill="#C7A94F" opacity="0.38"/><circle cx="158.1" cy="67.5" r="2.2" fill="#C7A94F" opacity="0.69"/><circle cx="132.5" cy="63.1" r="1.9" fill="#C7A94F" opacity="0.58"/><circle cx="267.0" cy="35.3" r="1.1" fill="#101B15" opacity="0.27"/><circle cx="106.9" cy="177.1" r="2.3" fill="#C7A94F" opacity="0.46"/><circle cx="253.3" cy="30.0" r="1.1" fill="#C7A94F" opacity="0.56"/><circle cx="195.9" cy="105.6" r="1.4" fill="#101B15" opacity="0.75"/><circle cx="246.8" cy="41.8" r="1.5" fill="#101B15" opacity="0.32"/><circle cx="73.5" cy="90.8" r="1.5" fill="#C7A94F" opacity="0.49"/><circle cx="132.5" cy="142.2" r="2.5" fill="#C7A94F" opacity="0.35"/><circle cx="2.6" cy="78.2" r="2.2" fill="#101B15" opacity="0.33"/><circle cx="217.9" cy="62.3" r="1.3" fill="#C7A94F" opacity="0.40"/><circle cx="101.8" cy="161.7" r="2.2" fill="#C7A94F" opacity="0.61"/><circle cx="299.4" cy="103.1" r="2.3" fill="#C7A94F" opacity="0.51"/><circle cx="111.7" cy="161.0" r="0.6" fill="#C7A94F" opacity="0.33"/><circle cx="128.6" cy="180.7" r="0.7" fill="#101B15" opacity="0.58"/><circle cx="262.1" cy="133.0" r="2.0" fill="#101B15" opacity="0.41"/><circle cx="79.8" cy="3.8" r="1.8" fill="#C7A94F" opacity="0.34"/><circle cx="238.1" cy="15.9" r="2.7" fill="#101B15" opacity="0.30"/><circle cx="215.8" cy="184.7" r="1.6" fill="#C7A94F" opacity="0.58"/><circle cx="147.2" cy="7.2" r="0.7" fill="#C7A94F" opacity="0.45"/><circle cx="155.3" cy="84.0" r="1.6" fill="#101B15" opacity="0.32"/><circle cx="185.5" cy="74.9" r="1.1" fill="#101B15" opacity="0.55"/><circle cx="38.9" cy="187.9" r="1.8" fill="#101B15" opacity="0.72"/><circle cx="205.1" cy="1.6" r="2.1" fill="#101B15" opacity="0.66"/><circle cx="196.2" cy="20.1" r="0.8" fill="#101B15" opacity="0.36"/><circle cx="79.8" cy="162.6" r="1.0" fill="#C7A94F" opacity="0.67"/><circle cx="112.5" cy="185.4" r="2.2" fill="#101B15" opacity="0.38"/><circle cx="272.8" cy="37.1" r="0.9" fill="#C7A94F" opacity="0.56"/><circle cx="295.1" cy="148.0" r="2.8" fill="#101B15" opacity="0.37"/><circle cx="202.6" cy="52.0" r="2.1" fill="#101B15" opacity="0.51"/><circle cx="140.5" cy="142.5" r="1.5" fill="#101B15" opacity="0.70"/><circle cx="109.7" cy="160.6" r="0.8" fill="#C7A94F" opacity="0.34"/><circle cx="200.3" cy="18.3" r="1.9" fill="#101B15" opacity="0.60"/><circle cx="124.0" cy="153.0" r="0.7" fill="#101B15" opacity="0.30"/><circle cx="148.7" cy="17.3" r="1.7" fill="#C7A94F" opacity="0.63"/><circle cx="130.6" cy="100.7" r="1.8" fill="#101B15" opacity="0.69"/><circle cx="248.6" cy="85.3" r="0.7" fill="#101B15" opacity="0.42"/><circle cx="136.9" cy="134.6" r="1.5" fill="#101B15" opacity="0.27"/><circle cx="18.6" cy="116.0" r="2.0" fill="#C7A94F" opacity="0.32"/><circle cx="239.1" cy="155.9" r="1.9" fill="#101B15" opacity="0.59"/><circle cx="99.4" cy="129.2" r="2.4" fill="#C7A94F" opacity="0.33"/><circle cx="189.2" cy="80.8" r="2.6" fill="#C7A94F" opacity="0.53"/><circle cx="120.6" cy="181.7" r="2.1" fill="#C7A94F" opacity="0.36"/><circle cx="61.2" cy="17.8" r="2.5" fill="#C7A94F" opacity="0.32"/><circle cx="67.5" cy="11.8" r="1.8" fill="#C7A94F" opacity="0.37"/><circle cx="218.1" cy="179.3" r="1.6" fill="#101B15" opacity="0.26"/><circle cx="47.3" cy="17.0" r="1.8" fill="#C7A94F" opacity="0.30"/><circle cx="278.4" cy="125.7" r="1.8" fill="#C7A94F" opacity="0.37"/><circle cx="256.5" cy="165.2" r="2.8" fill="#101B15" opacity="0.34"/><circle cx="82.8" cy="143.6" r="0.7" fill="#C7A94F" opacity="0.30"/><circle cx="246.9" cy="39.2" r="0.6" fill="#C7A94F" opacity="0.58"/><circle cx="261.0" cy="156.3" r="1.3" fill="#101B15" opacity="0.65"/><circle cx="192.5" cy="14.1" r="1.5" fill="#101B15" opacity="0.38"/><circle cx="298.1" cy="168.8" r="0.7" fill="#101B15" opacity="0.53"/><circle cx="256.3" cy="169.1" r="1.9" fill="#101B15" opacity="0.72"/><circle cx="101.6" cy="45.3" r="2.1" fill="#101B15" opacity="0.56"/><circle cx="156.9" cy="131.3" r="2.1" fill="#C7A94F" opacity="0.28"/><circle cx="267.7" cy="20.4" r="2.5" fill="#C7A94F" opacity="0.59"/><circle cx="134.9" cy="53.8" r="0.6" fill="#101B15" opacity="0.39"/><circle cx="148.4" cy="143.4" r="0.8" fill="#C7A94F" opacity="0.36"/><circle cx="20.0" cy="126.7" r="1.0" fill="#C7A94F" opacity="0.31"/><circle cx="17.6" cy="56.3" r="1.5" fill="#101B15" opacity="0.42"/><circle cx="297.4" cy="21.6" r="1.2" fill="#101B15" opacity="0.31"/><circle cx="138.4" cy="104.8" r="2.1" fill="#101B15" opacity="0.41"/><circle cx="74.5" cy="69.4" r="0.7" fill="#101B15" opacity="0.69"/><circle cx="29.2" cy="182.8" r="1.3" fill="#C7A94F" opacity="0.68"/><circle cx="47.6" cy="171.3" r="1.6" fill="#C7A94F" opacity="0.45"/><circle cx="30.8" cy="109.9" r="2.7" fill="#101B15" opacity="0.72"/><circle cx="268.6" cy="43.4" r="1.4" fill="#C7A94F" opacity="0.51"/><circle cx="72.9" cy="143.0" r="1.8" fill="#C7A94F" opacity="0.46"/><circle cx="211.4" cy="194.3" r="1.0" fill="#101B15" opacity="0.58"/><circle cx="140.6" cy="20.3" r="1.6" fill="#C7A94F" opacity="0.34"/><circle cx="239.1" cy="36.3" r="0.7" fill="#101B15" opacity="0.48"/><circle cx="41.3" cy="139.4" r="2.5" fill="#C7A94F" opacity="0.30"/><circle cx="270.2" cy="130.0" r="2.1" fill="#C7A94F" opacity="0.70"/><circle cx="271.3" cy="68.1" r="0.7" fill="#101B15" opacity="0.55"/><circle cx="145.5" cy="161.8" r="0.8" fill="#C7A94F" opacity="0.42"/><circle cx="82.5" cy="189.3" r="0.9" fill="#C7A94F" opacity="0.65"/><circle cx="194.5" cy="55.0" r="2.0" fill="#101B15" opacity="0.72"/><circle cx="248.9" cy="78.1" r="2.7" fill="#C7A94F" opacity="0.48"/><circle cx="202.4" cy="14.8" r="2.6" fill="#C7A94F" opacity="0.72"/><circle cx="33.6" cy="13.7" r="2.5" fill="#C7A94F" opacity="0.53"/><circle cx="76.7" cy="105.2" r="1.6" fill="#C7A94F" opacity="0.53"/><circle cx="55.0" cy="23.1" r="0.7" fill="#101B15" opacity="0.46"/><circle cx="113.7" cy="160.8" r="2.5" fill="#C7A94F" opacity="0.51"/><circle cx="253.8" cy="59.5" r="2.2" fill="#C7A94F" opacity="0.61"/><circle cx="265.2" cy="31.0" r="2.0" fill="#101B15" opacity="0.40"/><circle cx="159.8" cy="112.9" r="2.1" fill="#C7A94F" opacity="0.72"/><circle cx="205.3" cy="157.8" r="2.6" fill="#C7A94F" opacity="0.75"/><circle cx="258.0" cy="55.1" r="2.4" fill="#101B15" opacity="0.60"/><circle cx="196.9" cy="86.9" r="1.5" fill="#C7A94F" opacity="0.69"/><circle cx="256.0" cy="16.8" r="2.8" fill="#101B15" opacity="0.50"/><circle cx="58.5" cy="112.0" r="1.9" fill="#C7A94F" opacity="0.58"/><circle cx="249.9" cy="99.2" r="0.9" fill="#C7A94F" opacity="0.47"/><circle cx="131.0" cy="53.0" r="0.9" fill="#C7A94F" opacity="0.41"/><circle cx="291.6" cy="18.5" r="0.9" fill="#101B15" opacity="0.40"/><circle cx="43.9" cy="166.7" r="2.7" fill="#C7A94F" opacity="0.59"/><circle cx="155.3" cy="83.3" r="1.4" fill="#101B15" opacity="0.50"/><circle cx="82.4" cy="191.2" r="1.6" fill="#C7A94F" opacity="0.59"/><circle cx="203.9" cy="105.9" r="2.7" fill="#C7A94F" opacity="0.60"/><circle cx="53.9" cy="124.2" r="2.3" fill="#C7A94F" opacity="0.34"/><circle cx="55.8" cy="46.8" r="2.1" fill="#101B15" opacity="0.69"/><circle cx="154.8" cy="133.5" r="1.0" fill="#101B15" opacity="0.54"/><circle cx="151.9" cy="192.4" r="1.6" fill="#101B15" opacity="0.45"/><circle cx="236.8" cy="1.9" r="2.5" fill="#C7A94F" opacity="0.25"/><circle cx="221.7" cy="66.3" r="2.2" fill="#101B15" opacity="0.45"/><circle cx="174.1" cy="104.6" r="1.8" fill="#C7A94F" opacity="0.37"/><circle cx="50.5" cy="73.2" r="0.8" fill="#C7A94F" opacity="0.32"/><circle cx="129.6" cy="120.8" r="2.1" fill="#C7A94F" opacity="0.37"/><circle cx="145.7" cy="77.5" r="0.7" fill="#C7A94F" opacity="0.66"/><circle cx="121.8" cy="77.4" r="1.6" fill="#C7A94F" opacity="0.42"/><circle cx="203.5" cy="113.7" r="1.0" fill="#C7A94F" opacity="0.34"/><circle cx="91.5" cy="127.7" r="0.7" fill="#101B15" opacity="0.35"/><circle cx="175.8" cy="31.1" r="0.7" fill="#101B15" opacity="0.60"/><circle cx="168.3" cy="61.7" r="1.1" fill="#101B15" opacity="0.42"/><circle cx="36.7" cy="71.8" r="2.1" fill="#C7A94F" opacity="0.48"/><circle cx="237.4" cy="151.0" r="2.6" fill="#101B15" opacity="0.41"/><circle cx="49.1" cy="181.4" r="2.7" fill="#C7A94F" opacity="0.63"/><circle cx="6.1" cy="126.6" r="0.6" fill="#C7A94F" opacity="0.60"/><circle cx="31.6" cy="53.8" r="1.0" fill="#101B15" opacity="0.38"/><circle cx="170.9" cy="89.6" r="1.5" fill="#101B15" opacity="0.52"/><circle cx="24.9" cy="108.7" r="0.9" fill="#C7A94F" opacity="0.74"/><circle cx="183.5" cy="156.1" r="2.7" fill="#101B15" opacity="0.56"/><circle cx="258.6" cy="2.9" r="2.1" fill="#101B15" opacity="0.63"/><circle cx="118.0" cy="34.8" r="0.8" fill="#101B15" opacity="0.45"/><circle cx="118.0" cy="74.7" r="1.2" fill="#101B15" opacity="0.49"/><circle cx="37.4" cy="138.0" r="2.6" fill="#101B15" opacity="0.50"/><circle cx="10.4" cy="121.6" r="2.7" fill="#101B15" opacity="0.28"/><circle cx="160.1" cy="26.1" r="1.0" fill="#C7A94F" opacity="0.71"/><circle cx="132.1" cy="111.4" r="0.8" fill="#101B15" opacity="0.68"/><circle cx="27.1" cy="185.6" r="2.6" fill="#101B15" opacity="0.25"/><circle cx="34.9" cy="27.0" r="2.5" fill="#C7A94F" opacity="0.26"/><circle cx="267.7" cy="140.0" r="1.5" fill="#C7A94F" opacity="0.70"/><circle cx="193.0" cy="43.6" r="2.7" fill="#101B15" opacity="0.42"/><circle cx="67.4" cy="94.2" r="1.3" fill="#101B15" opacity="0.69"/><circle cx="169.4" cy="40.3" r="2.5" fill="#C7A94F" opacity="0.61"/><circle cx="233.3" cy="112.3" r="1.0" fill="#101B15" opacity="0.32"/><circle cx="282.4" cy="44.2" r="2.1" fill="#101B15" opacity="0.53"/><circle cx="162.0" cy="29.1" r="1.8" fill="#101B15" opacity="0.46"/><circle cx="172.9" cy="8.3" r="2.1" fill="#101B15" opacity="0.50"/><circle cx="105.1" cy="93.7" r="2.8" fill="#C7A94F" opacity="0.33"/><circle cx="270.6" cy="122.9" r="1.9" fill="#C7A94F" opacity="0.27"/><circle cx="36.9" cy="148.3" r="1.8" fill="#101B15" opacity="0.50"/><circle cx="160.5" cy="59.5" r="1.4" fill="#101B15" opacity="0.63"/><circle cx="220.1" cy="138.5" r="0.6" fill="#101B15" opacity="0.59"/><circle cx="150.1" cy="148.9" r="2.4" fill="#C7A94F" opacity="0.35"/><circle cx="173.5" cy="158.1" r="2.5" fill="#101B15" opacity="0.47"/><circle cx="35.6" cy="92.5" r="2.7" fill="#101B15" opacity="0.47"/><circle cx="237.6" cy="26.9" r="2.1" fill="#101B15" opacity="0.61"/><circle cx="169.1" cy="6.3" r="1.9" fill="#C7A94F" opacity="0.39"/><circle cx="42.2" cy="1.6" r="1.7" fill="#C7A94F" opacity="0.45"/><circle cx="24.4" cy="198.8" r="0.8" fill="#101B15" opacity="0.31"/><circle cx="172.3" cy="20.6" r="2.0" fill="#101B15" opacity="0.43"/><circle cx="264.6" cy="82.5" r="2.1" fill="#101B15" opacity="0.56"/><circle cx="135.5" cy="81.4" r="1.1" fill="#101B15" opacity="0.50"/><circle cx="208.2" cy="17.9" r="0.7" fill="#101B15" opacity="0.64"/><circle cx="128.1" cy="151.8" r="1.9" fill="#101B15" opacity="0.35"/><circle cx="296.0" cy="91.3" r="0.9" fill="#101B15" opacity="0.71"/><circle cx="1.8" cy="14.6" r="2.6" fill="#101B15" opacity="0.56"/><circle cx="257.5" cy="26.2" r="1.4" fill="#101B15" opacity="0.37"/><circle cx="230.7" cy="45.2" r="2.6" fill="#101B15" opacity="0.49"/><circle cx="177.9" cy="27.6" r="1.4" fill="#C7A94F" opacity="0.72"/><circle cx="77.9" cy="122.4" r="0.7" fill="#C7A94F" opacity="0.64"/><circle cx="264.8" cy="159.7" r="2.0" fill="#C7A94F" opacity="0.39"/><circle cx="161.8" cy="73.5" r="1.6" fill="#C7A94F" opacity="0.68"/></pattern></defs>
    <rect width="1200" height="800" fill="#EFEEEC"/>
    <circle cx="420" cy="240" r="120" fill="#FDFDFC" stroke="#E0E3E5" stroke-width="8"/>
    <circle cx="780" cy="240" r="120" fill="#FDFDFC" stroke="#E0E3E5" stroke-width="8"/>
    <rect x="180" y="430" width="840" height="56" fill="url(#st-verde-ubatuba)"/>
    <rect x="180" y="486" width="840" height="160" fill="#E7DCCB"/>
    <rect x="180" y="560" width="840" height="120" fill="url(#st-verde-ubatuba)" opacity="0.4"/>
    <ellipse cx="420" cy="428" rx="90" ry="12" fill="#FFFFFF" opacity="0.7"/>
    <ellipse cx="780" cy="428" rx="90" ry="12" fill="#FFFFFF" opacity="0.7"/>
    <path d="M 590 700 q 10 -40 14 -80" stroke="#8FA98B" stroke-width="6" fill="none"/></svg>