<svg xmlns="http://www.w3.org/2000/svg" viewBox="0 0 1200 800"><defs><pattern id="st-black-galaxy" patternUnits="userSpaceOnUse" width="300" height="200"><rect width="300" height="200" fill="#1A1815"/><circle cx="271.5" cy="120.7" r="1.4" fill="#0E0D0B" opacity="0.74"/><circle cx="116.9" cy="32.2" r="2.7" fill="#0E0D0B" opacity="0.43"/><circle cx="269.7" cy="196.2" r="1.0" fill="#0E0D0B" opacity="0.45"/><circle cx="8.5" cy="94.7" r="0.9" fill="#0E0D0B" opacity="0.71"/><circle cx="167.6" cy="91.2" r="0.7" fill="#0E0D0B" opacity="0.69"/><circle cx="70.2" cy="53.2" r="2.8" fill="#C9A24E" opacity="0.43"/><circle cx="61.6" cy="107.0" r="2.5" fill="#C9A24E" opacity="0.49"/><circle cx="42.7" cy="127.5" r="1.0" fill="#C9A24E" opacity="0.59"/><circle cx="3.3" cy="159.6" r="1.7" fill="#0E0D0B" opacity="0.75"/><circle cx="155.6" cy="174.5" r="2.1" fill="#0E0D0B" opacity="0.61"/><circle cx="67.0" cy="157.8" r="1.5" fill="#0E0D0B" opacity="0.69"/><circle cx="94.1" cy="132.3" r="2.4" fill="#C9A24E" opacity="0.44"/><circle cx="15.5" cy="113.7" r="2.0" fill="#C9A24E" opacity="0.62"/><circle cx="265.6" cy="198.7" r="2.4" fill="#C9A24E" opacity="0.52"/><circle cx="67.5" cy="187.9" r="0.7" fill="#0E0D0B" opacity="0.54"/><circle cx="266.5" cy="141.3" r="2.5" fill="#C9A24E" opacity="0.56"/><circle cx="63.5" cy="66.9" r="1.7" fill="#0E0D0B" opacity="0.63"/><circle cx="248.5" cy="143.0" r="1.1" fill="#C9A24E" opacity="0.61"/><circle cx="33.4" cy="74.0" r="1.5" fill="#C9A24E" opacity="0.46"/><circle cx="85.8" cy="179.1" r="1.9" fill="#C9A24E" opacity="0.56"/><circle cx="62.2" cy="14.3" r="1.6" fill="#C9A24E" opacity="0.67"/><circle cx="241.3" cy="128.5" r="1.5" fill="#0E0D0B" opacity="0.39"/><circle cx="57.3" cy="151.9" r="0.8" fill="#C9A24E" opacity="0.35"/><circle cx="133.5" cy="18.5" r="2.4" fill="#C9A24E" opacity="0.27"/><circle cx="15.1" cy="121.4" r="2.5" fill="#0E0D0B" opacity="0.36"/><circle cx="3.2" cy="2.1" r="0.8" fill="#C9A24E" opacity="0.54"/><circle cx="187.5" cy="172.2" r="1.5" fill="#0E0D0B" opacity="0.45"/><circle cx="280.0" cy="69.4" r="2.6" fill="#C9A24E" opacity="0.44"/><circle cx="248.3" cy="146.3" r="2.2" fill="#C9A24E" opacity="0.67"/><circle cx="249.0" cy="92.1" r="1.3" fill="#0E0D0B" opacity="0.26"/><circle cx="160.8" cy="189.2" r="2.0" fill="#C9A24E" opacity="0.65"/><circle cx="217.8" cy="1.1" r="0.7" fill="#C9A24E" opacity="0.28"/><circle cx="43.3" cy="194.9" r="1.9" fill="#0E0D0B" opacity="0.74"/><circle cx="282.6" cy="97.4" r="0.8" fill="#C9A24E" opacity="0.54"/><circle cx="236.6" cy="183.2" r="0.9" fill="#0E0D0B" opacity="0.43"/><circle cx="195.1" cy="97.3" r="1.3" fill="#0E0D0B" opacity="0.42"/><circle cx="70.3" cy="10.7" r="1.5" fill="#C9A24E" opacity="0.65"/><circle cx="29.7" cy="109.3" r="0.9" fill="#C9A24E" opacity="0.64"/><circle cx="129.7" cy="15.8" r="2.0" fill="#0E0D0B" opacity="0.35"/><circle cx="149.0" cy="145.7" r="1.9" fill="#C9A24E" opacity="0.52"/><circle cx="222.0" cy="196.0" r="0.6" fill="#0E0D0B" opacity="0.46"/><circle cx="171.8" cy="167.2" r="1.8" fill="#C9A24E" opacity="0.57"/><circle cx="243.7" cy="119.2" r="2.4" fill="#C9A24E" opacity="0.70"/><circle cx="238.7" cy="60.1" r="2.7" fill="#C9A24E" opacity="0.44"/><circle cx="46.6" cy="168.1" r="1.1" fill="#C9A24E" opacity="0.62"/><circle cx="79.4" cy="147.8" r="0.8" fill="#C9A24E" opacity="0.72"/><circle cx="104.7" cy="118.1" r="2.8" fill="#C9A24E" opacity="0.60"/><circle cx="79.0" cy="35.3" r="2.1" fill="#0E0D0B" opacity="0.54"/><circle cx="281.0" cy="48.1" r="1.8" fill="#C9A24E" opacity="0.63"/><circle cx="145.0" cy="186.8" r="1.1" fill="#C9A24E" opacity="0.51"/><circle cx="294.1" cy="185.3" r="0.7" fill="#C9A24E" opacity="0.38"/><circle cx="273.6" cy="36.8" r="1.1" fill="#C9A24E" opacity="0.47"/><circle cx="84.6" cy="82.8" r="2.2" fill="#C9A24E" opacity="0.68"/><circle cx="116.8" cy="34.8" r="1.4" fill="#C9A24E" opacity="0.68"/><circle cx="82.2" cy="130.7" r="1.2" fill="#0E0D0B" opacity="0.29"/><circle cx="248.5" cy="22.8" r="1.9" fill="#C9A24E" opacity="0.68"/><circle cx="172.1" cy="0.6" r="2.2" fill="#0E0D0B" opacity="0.48"/><circle cx="31.8" cy="146.3" r="2.2" fill="#0E0D0B" opacity="0.61"/><circle cx="61.7" cy="23.4" r="2.5" fill="#0E0D0B" opacity="0.54"/><circle cx="185.1" cy="99.2" r="1.1" fill="#0E0D0B" opacity="0.32"/><circle cx="147.3" cy="100.3" r="2.1" fill="#C9A24E" opacity="0.49"/><circle cx="149.3" cy="101.3" r="2.2" fill="#0E0D0B" opacity="0.30"/><circle cx="180.7" cy="147.4" r="2.7" fill="#C9A24E" opacity="0.74"/><circle cx="153.8" cy="9.4" r="1.0" fill="#0E0D0B" opacity="0.47"/><circle cx="236.1" cy="73.3" r="0.9" fill="#0E0D0B" opacity="0.50"/><circle cx="184.0" cy="161.7" r="2.8" fill="#0E0D0B" opacity="0.28"/><circle cx="76.3" cy="90.3" r="1.4" fill="#C9A24E" opacity="0.58"/><circle cx="47.2" cy="155.8" r="1.2" fill="#C9A24E" opacity="0.69"/><circle cx="219.9" cy="159.0" r="1.5" fill="#0E0D0B" opacity="0.49"/><circle cx="239.7" cy="159.6" r="1.3" fill="#0E0D0B" opacity="0.37"/><circle cx="207.6" cy="165.7" r="1.0" fill="#0E0D0B" opacity="0.40"/><circle cx="13.4" cy="155.7" r="1.2" fill="#0E0D0B" opacity="0.41"/><circle cx="69.2" cy="34.0" r="0.8" fill="#C9A24E" opacity="0.39"/><circle cx="142.4" cy="119.6" r="2.7" fill="#C9A24E" opacity="0.68"/><circle cx="189.6" cy="168.7" r="2.2" fill="#C9A24E" opacity="0.57"/><circle cx="189.5" cy="130.1" r="2.3" fill="#C9A24E" opacity="0.66"/><circle cx="176.4" cy="34.1" r="2.1" fill="#C9A24E" opacity="0.57"/><circle cx="173.4" cy="14.6" r="2.4" fill="#C9A24E" opacity="0.53"/><circle cx="25.9" cy="64.7" r="1.6" fill="#C9A24E" opacity="0.74"/><circle cx="34.8" cy="125.9" r="1.5" fill="#0E0D0B" opacity="0.62"/><circle cx="289.9" cy="110.0" r="1.9" fill="#0E0D0B" opacity="0.32"/><circle cx="203.2" cy="54.4" r="1.0" fill="#0E0D0B" opacity="0.67"/><circle cx="42.4" cy="11.8" r="1.1" fill="#0E0D0B" opacity="0.35"/><circle cx="264.0" cy="71.5" r="1.1" fill="#0E0D0B" opacity="0.48"/><circle cx="146.5" cy="115.8" r="0.9" fill="#0E0D0B" opacity="0.48"/><circle cx="224.4" cy="108.2" r="1.2" fill="#C9A24E" opacity="0.32"/><circle cx="120.7" cy="116.0" r="2.1" fill="#0E0D0B" opacity="0.56"/><circle cx="180.8" cy="65.7" r="1.2" fill="#0E0D0B" opacity="0.73"/><circle cx="5.7" cy="32.0" r="1.9" fill="#0E0D0B" opacity="0.57"/><circle cx="185.1" cy="60.0" r="0.9" fill="#0E0D0B" opacity="0.59"/><circle cx="31.1" cy="120.6" r="2.3" fill="#C9A24E" opacity="0.44"/><circle cx="11.3" cy="199.8" r="1.1" fill="#C9A24E" opacity="0.64"/><circle cx="182.1" cy="120.2" r="2.1" fill="#C9A24E" opacity="0.63"/><circle cx="22.3" cy="97.4" r="2.2" fill="#0E0D0B" opacity="0.67"/><circle cx="266.1" cy="28.2" r="1.4" fill="#C9A24E" opacity="0.56"/><circle cx="136.7" cy="113.3" r="1.3" fill="#C9A24E" opacity="0.70"/><circle cx="179.5" cy="12.5" r="0.9" fill="#C9A24E" opacity="0.45"/><circle cx="195.3" cy="133.9" r="2.8" fill="#C9A24E" opacity="0.39"/><circle cx="74.0" cy="55.9" r="1.0" fill="#C9A24E" opacity="0.36"/><circle cx="227.7" cy="82.7" r="0.9" fill="#0E0D0B" opacity="0.33"/><circle cx="123.8" cy="133.6" r="1.1" fill="#C9A24E" opacity="0.66"/><circle cx="19.0" cy="164.7" r="1.4" fill="#0E0D0B" opacity="0.64"/><circle cx="191.8" cy="124.7" r="2.3" fill="#0E0D0B" opacity="0.35"/><circle cx="76.6" cy="44.0" r="1.0" fill="#C9A24E" opacity="0.42"/><circle cx="296.5" cy="56.4" r="2.6" fill="#0E0D0B" opacity="0.58"/><circle cx="96.9" cy="155.1" r="1.0" fill="#0E0D0B" opacity="0.54"/><circle cx="78.7" cy="81.6" r="2.6" fill="#0E0D0B" opacity="0.70"/><circle cx="31.7" cy="147.6" r="2.6" fill="#C9A24E" opacity="0.74"/><circle cx="268.0" cy="190.6" r="1.5" fill="#0E0D0B" opacity="0.46"/><circle cx="155.1" cy="63.3" r="1.6" fill="#C9A24E" opacity="0.55"/><circle cx="149.6" cy="55.0" r="1.7" fill="#C9A24E" opacity="0.64"/><circle cx="130.1" cy="47.9" r="1.9" fill="#C9A24E" opacity="0.64"/><circle cx="30.8" cy="5.6" r="2.7" fill="#C9A24E" opacity="0.51"/><circle cx="75.0" cy="195.3" r="2.2" fill="#0E0D0B" opacity="0.33"/><circle cx="8.1" cy="143.6" r="2.2" fill="#C9A24E" opacity="0.62"/><circle cx="30.8" cy="125.2" r="1.7" fill="#C9A24E" opacity="0.63"/><circle cx="133.2" cy="185.1" r="2.1" fill="#C9A24E" opacity="0.35"/><circle cx="227.1" cy="94.4" r="2.7" fill="#0E0D0B" opacity="0.45"/><circle cx="180.2" cy="38.8" r="0.9" fill="#C9A24E" opacity="0.43"/><circle cx="48.9" cy="41.1" r="1.5" fill="#C9A24E" opacity="0.25"/><circle cx="212.1" cy="116.9" r="1.4" fill="#C9A24E" opacity="0.67"/><circle cx="203.8" cy="163.0" r="2.8" fill="#0E0D0B" opacity="0.47"/><circle cx="147.3" cy="180.0" r="0.7" fill="#C9A24E" opacity="0.57"/><circle cx="288.0" cy="27.9" r="0.6" fill="#C9A24E" opacity="0.31"/><circle cx="126.7" cy="114.6" r="0.8" fill="#0E0D0B" opacity="0.29"/><circle cx="153.4" cy="18.5" r="2.0" fill="#C9A24E" opacity="0.34"/><circle cx="179.9" cy="43.9" r="2.7" fill="#0E0D0B" opacity="0.43"/><circle cx="274.0" cy="110.1" r="1.9" fill="#0E0D0B" opacity="0.43"/><circle cx="92.0" cy="173.1" r="1.2" fill="#C9A24E" opacity="0.61"/><circle cx="212.8" cy="181.8" r="1.4" fill="#0E0D0B" opacity="0.56"/><circle cx="70.5" cy="166.3" r="1.7" fill="#C9A24E" opacity="0.42"/><circle cx="288.4" cy="60.6" r="0.7" fill="#0E0D0B" opacity="0.42"/><circle cx="111.7" cy="58.0" r="1.2" fill="#C9A24E" opacity="0.75"/><circle cx="141.4" cy="99.8" r="2.7" fill="#0E0D0B" opacity="0.32"/><circle cx="167.3" cy="97.7" r="0.7" fill="#0E0D0B" opacity="0.31"/><circle cx="201.5" cy="89.4" r="2.2" fill="#0E0D0B" opacity="0.53"/><circle cx="211.5" cy="127.3" r="2.8" fill="#0E0D0B" opacity="0.66"/><circle cx="53.9" cy="100.9" r="1.4" fill="#C9A24E" opacity="0.33"/><circle cx="207.3" cy="92.5" r="2.5" fill="#0E0D0B" opacity="0.45"/><circle cx="6.0" cy="65.4" r="2.2" fill="#0E0D0B" opacity="0.49"/><circle cx="273.1" cy="87.1" r="0.7" fill="#0E0D0B" opacity="0.51"/><circle cx="154.1" cy="84.0" r="2.2" fill="#0E0D0B" opacity="0.54"/><circle cx="149.8" cy="130.8" r="1.2" fill="#0E0D0B" opacity="0.34"/><circle cx="250.0" cy="72.7" r="1.1" fill="#C9A24E" opacity="0.40"/><circle cx="66.8" cy="80.6" r="1.6" fill="#C9A24E" opacity="0.36"/><circle cx="67.8" cy="140.3" r="2.0" fill="#0E0D0B" opacity="0.26"/><circle cx="9.5" cy="74.6" r="2.7" fill="#C9A24E" opacity="0.53"/><circle cx="270.6" cy="99.0" r="0.7" fill="#0E0D0B" opacity="0.44"/><circle cx="85.2" cy="110.3" r="2.7" fill="#C9A24E" opacity="0.29"/><circle cx="176.7" cy="109.3" r="1.3" fill="#C9A24E" opacity="0.46"/><circle cx="190.3" cy="155.8" r="2.1" fill="#0E0D0B" opacity="0.33"/><circle cx="226.9" cy="57.7" r="1.2" fill="#0E0D0B" opacity="0.47"/><circle cx="176.5" cy="193.6" r="1.4" fill="#0E0D0B" opacity="0.72"/><circle cx="150.9" cy="67.7" r="1.5" fill="#0E0D0B" opacity="0.56"/><circle cx="217.9" cy="199.1" r="2.2" fill="#0E0D0B" opacity="0.35"/><circle cx="33.9" cy="144.1" r="1.2" fill="#0E0D0B" opacity="0.36"/><circle cx="177.6" cy="51.3" r="1.2" fill="#C9A24E" opacity="0.68"/><circle cx="83.2" cy="151.1" r="1.5" fill="#C9A24E" opacity="0.46"/><circle cx="73.9" cy="177.4" r="0.6" fill="#C9A24E" opacity="0.41"/><circle cx="295.2" cy="123.4" r="1.4" fill="#C9A24E" opacity="0.73"/><circle cx="147.8" cy="130.5" r="1.3" fill="#0E0D0B" opacity="0.35"/><circle cx="21.7" cy="110.3" r="2.3" fill="#C9A24E" opacity="0.41"/><circle cx="228.8" cy="100.6" r="2.4" fill="#C9A24E" opacity="0.25"/><circle cx="136.7" cy="153.8" r="1.9" fill="#C9A24E" opacity="0.55"/><circle cx="202.0" cy="159.4" r="1.8" fill="#C9A24E" opacity="0.42"/><circle cx="3.3" cy="199.5" r="2.1" fill="#0E0D0B" opacity="0.29"/><circle cx="74.9" cy="37.7" r="1.3" fill="#0E0D0B" opacity="0.62"/><circle cx="40.0" cy="141.3" r="1.6" fill="#C9A24E" opacity="0.47"/><circle cx="243.8" cy="36.9" r="0.7" fill="#0E0D0B" opacity="0.37"/><circle cx="287.4" cy="199.0" r="1.8" fill="#C9A24E" opacity="0.58"/><circle cx="160.6" cy="72.8" r="1.9" fill="#C9A24E" opacity="0.59"/><circle cx="75.3" cy="29.3" r="2.8" fill="#C9A24E" opacity="0.56"/><circle cx="199.3" cy="54.3" r="1.5" fill="#0E0D0B" opacity="0.49"/><circle cx="288.9" cy="170.5" r="0.7" fill="#C9A24E" opacity="0.35"/><circle cx="122.8" cy="193.5" r="1.9" fill="#C9A24E" opacity="0.38"/><circle cx="135.4" cy="20.2" r="2.7" fill="#0E0D0B" opacity="0.39"/><circle cx="149.8" cy="51.1" r="2.6" fill="#0E0D0B" opacity="0.26"/><circle cx="111.3" cy="146.2" r="2.7" fill="#0E0D0B" opacity="0.38"/><circle cx="120.8" cy="113.4" r="1.2" fill="#C9A24E" opacity="0.31"/><circle cx="68.3" cy="131.2" r="1.0" fill="#0E0D0B" opacity="0.39"/><circle cx="65.7" cy="103.9" r="0.9" fill="#C9A24E" opacity="0.60"/><circle cx="180.6" cy="150.6" r="1.6" fill="#0E0D0B" opacity="0.30"/><circle cx="69.5" cy="27.5" r="0.7" fill="#0E0D0B" opacity="0.26"/><circle cx="11.1" cy="83.4" r="1.1" fill="#0E0D0B" opacity="0.59"/><circle cx="39.6" cy="148.5" r="1.9" fill="#0E0D0B" opacity="0.40"/><circle cx="178.3" cy="156.7" r="1.8" fill="#0E0D0B" opacity="0.43"/><circle cx="272.4" cy="101.3" r="1.3" fill="#C9A24E" opacity="0.38"/><circle cx="23.0" cy="123.6" r="2.2" fill="#0E0D0B" opacity="0.65"/><circle cx="119.7" cy="135.4" r="2.3" fill="#C9A24E" opacity="0.42"/><circle cx="274.8" cy="174.3" r="1.7" fill="#C9A24E" opacity="0.51"/><circle cx="155.6" cy="92.8" r="0.6" fill="#C9A24E" opacity="0.60"/><circle cx="218.8" cy="180.3" r="2.3" fill="#0E0D0B" opacity="0.29"/><circle cx="43.1" cy="119.1" r="2.4" fill="#0E0D0B" opacity="0.53"/><circle cx="162.6" cy="72.6" r="1.6" fill="#C9A24E" opacity="0.28"/><circle cx="200.6" cy="108.1" r="2.1" fill="#C9A24E" opacity="0.58"/><circle cx="202.4" cy="152.3" r="1.5" fill="#0E0D0B" opacity="0.49"/><circle cx="68.9" cy="79.7" r="1.0" fill="#C9A24E" opacity="0.73"/><circle cx="89.9" cy="135.5" r="1.8" fill="#0E0D0B" opacity="0.32"/><circle cx="177.6" cy="90.6" r="1.3" fill="#0E0D0B" opacity="0.41"/><circle cx="199.4" cy="130.8" r="1.2" fill="#C9A24E" opacity="0.51"/><circle cx="212.0" cy="79.0" r="1.7" fill="#0E0D0B" opacity="0.57"/><circle cx="293.8" cy="150.6" r="2.1" fill="#0E0D0B" opacity="0.34"/><circle cx="279.3" cy="42.5" r="2.3" fill="#C9A24E" opacity="0.64"/><circle cx="291.6" cy="155.4" r="1.8" fill="#0E0D0B" opacity="0.35"/><circle cx="276.0" cy="149.1" r="1.7" fill="#0E0D0B" opacity="0.34"/><circle cx="33.5" cy="31.6" r="2.5" fill="#0E0D0B" opacity="0.68"/><circle cx="53.9" cy="181.3" r="2.4" fill="#C9A24E" opacity="0.71"/><circle cx="149.2" cy="102.6" r="2.6" fill="#0E0D0B" opacity="0.42"/><circle cx="87.0" cy="114.6" r="1.7" fill="#0E0D0B" opacity="0.66"/><circle cx="123.8" cy="173.5" r="1.5" fill="#0E0D0B" opacity="0.70"/><circle cx="238.3" cy="27.9" r="2.8" fill="#0E0D0B" opacity="0.65"/><circle cx="164.8" cy="108.3" r="2.5" fill="#C9A24E" opacity="0.62"/><circle cx="226.4" cy="148.5" r="1.5" fill="#C9A24E" opacity="0.36"/><circle cx="268.4" cy="141.7" r="2.4" fill="#C9A24E" opacity="0.55"/><circle cx="291.9" cy="29.3" r="2.8" fill="#0E0D0B" opacity="0.61"/><circle cx="86.6" cy="123.0" r="2.4" fill="#C9A24E" opacity="0.72"/><circle cx="264.5" cy="60.5" r="1.6" fill="#0E0D0B" opacity="0.67"/><circle cx="193.3" cy="94.3" r="2.7" fill="#C9A24E" opacity="0.67"/><circle cx="29.4" cy="113.8" r="2.4" fill="#C9A24E" opacity="0.33"/><circle cx="251.6" cy="1.1" r="0.7" fill="#0E0D0B" opacity="0.56"/></pattern></defs>
    <rect width="1200" height="800" fill="#F4F3F1"/>
    <rect x="0" y="640" width="1200" height="160" fill="#D9CDBC"/>
    <rect x="80" y="120" width="280" height="220" fill="#E9EDF0" stroke="#C9D3D9" stroke-width="6"/>
    <rect x="120" y="380" width="960" height="60" fill="url(#st-black-galaxy)"/>
    <rect x="120" y="140" width="960" height="240" fill="url(#st-black-galaxy)" opacity="0.35"/>
    <rect x="120" y="440" width="960" height="200" fill="#FAFAF8" stroke="#E3E6E8" stroke-width="4"/>
    <rect x="560" y="470" width="90" height="130" fill="#EDEFF1"/>
    <circle cx="700" cy="360" r="26" fill="#3A3D3F"/>
    <ellipse cx="880" cy="372" rx="70" ry="14" fill="#FFFFFF" opacity="0.8"/>
    <circle cx="855" cy="362" r="12" fill="#7FA06B"/><circle cx="885" cy="358" r="12" fill="#8FB07A"/><circle cx="912" cy="363" r="12" fill="#7FA06B"/></svg>