<svg xmlns="http://www.w3.org/2000/svg" viewBox="0 0 1200 800"><defs><pattern id="st-blanco-carrara" patternUnits="userSpaceOnUse" width="300" height="200"><rect width="300" height="200" fill="#EDEDEA"/><polyline points="0,203 50,177 100,146 150,169 200,185 250,191 300,192" fill="none" stroke="#C9CBC9" stroke-width="3.2" opacity="0.37" stroke-linecap="round"/><polyline points="0,43 50,82 100,68 150,56 200,91 250,84 300,82" fill="none" stroke="#C9CBC9" stroke-width="3.9" opacity="0.47" stroke-linecap="round"/><polyline points="0,139 50,106 100,154 150,165 200,168 250,115 300,139" fill="none" stroke="#B4B7B6" stroke-width="2.5" opacity="0.49" stroke-linecap="round"/><polyline points="0,137 50,123 100,128 150,158 200,142 250,189 300,177" fill="none" stroke="#C9CBC9" stroke-width="3.1" opacity="0.61" stroke-linecap="round"/><polyline points="0,104 50,121 100,125 150,93 200,111 250,102 300,108" fill="none" stroke="#C9CBC9" stroke-width="3.2" opacity="0.67" stroke-linecap="round"/><polyline points="0,125 50,121 100,162 150,167 200,110 250,147 300,168" fill="none" stroke="#B4B7B6" stroke-width="3.5" opacity="0.49" stroke-linecap="round"/><polyline points="0,184 50,174 100,185 150,166 200,182 250,167 300,158" fill="none" stroke="#C9CBC9" stroke-width="1.7" opacity="0.49" stroke-linecap="round"/></pattern></defs>
    <rect width="1200" height="800" fill="#F4F3F1"/>
    <rect x="0" y="640" width="1200" height="160" fill="#D9CDBC"/>
    <rect x="80" y="120" width="280" height="220" fill="#E9EDF0" stroke="#C9D3D9" stroke-width="6"/>
    <rect x="120" y="380" width="960" height="60" fill="url(#st-blanco-carrara)"/>
    <rect x="120" y="140" width="960" height="240" fill="url(#st-blanco-carrara)" opacity="0.35"/>
    <rect x="120" y="440" width="960" height="200" fill="#FAFAF8" stroke="#E3E6E8" stroke-width="4"/>
    <rect x="560" y="470" width="90" height="130" fill="#EDEFF1"/>
    <circle cx="700" cy="360" r="26" fill="#3A3D3F"/>
    <ellipse cx="880" cy="372" rx="70" ry="14" fill="#FFFFFF" opacity="0.8"/>
    <circle cx="855" cy="362" r="12" fill="#7FA06B"/><circle cx="885" cy="358" r="12" fill="#8FB07A"/><circle cx="912" cy="363" r="12" fill="#7FA06B"/></svg>