<svg xmlns="http://www.w3.org/2000/svg" viewBox="0 0 1200 800"><defs><pattern id="st-calacatta-oro" patternUnits="userSpaceOnUse" width="300" height="200"><rect width="300" height="200" fill="#F2EFE8"/><polyline points="0,87 50,96 100,64 150,86 200,118 250,79 300,83" fill="none" stroke="#C9A25E" stroke-width="2.0" opacity="0.51" stroke-linecap="round"/><polyline points="0,143 50,192 100,188 150,134 200,137 250,144 300,151" fill="none" stroke="#C9A25E" stroke-width="2.7" opacity="0.43" stroke-linecap="round"/><polyline points="0,87 50,76 100,94 150,84 200,113 250,81 300,110" fill="none" stroke="#9A9C9E" stroke-width="2.0" opacity="0.42" stroke-linecap="round"/><polyline points="0,-18 50,19 100,15 150,13 200,29 250,23 300,-17" fill="none" stroke="#C9A25E" stroke-width="1.4" opacity="0.63" stroke-linecap="round"/><polyline points="0,21 50,40 100,24 150,36 200,13 250,58 300,19" fill="none" stroke="#C9A25E" stroke-width="1.2" opacity="0.33" stroke-linecap="round"/><polyline points="0,198 50,185 100,211 150,187 200,196 250,198 300,147" fill="none" stroke="#9A9C9E" stroke-width="3.8" opacity="0.61" stroke-linecap="round"/><polyline points="0,100 50,86 100,80 150,69 200,62 250,127 300,59" fill="none" stroke="#C9A25E" stroke-width="1.4" opacity="0.66" stroke-linecap="round"/></pattern></defs>
    <rect width="1200" height="800" fill="#F4F3F1"/>
    <rect x="0" y="640" width="1200" height="160" fill="#D9CDBC"/>
    <rect x="80" y="120" width="280" height="220" fill="#E9EDF0" stroke="#C9D3D9" stroke-width="6"/>
    <rect x="120" y="380" width="960" height="60" fill="url(#st-calacatta-oro)"/>
    <rect x="120" y="140" width="960" height="240" fill="url(#st-calacatta-oro)" opacity="0.35"/>
    <rect x="120" y="440" width="960" height="200" fill="#FAFAF8" stroke="#E3E6E8" stroke-width="4"/>
    <rect x="560" y="470" width="90" height="130" fill="#EDEFF1"/>
    <circle cx="700" cy="360" r="26" fill="#3A3D3F"/>
    <ellipse cx="880" cy="372" rx="70" ry="14" fill="#FFFFFF" opacity="0.8"/>
    <circle cx="855" cy="362" r="12" fill="#7FA06B"/><circle cx="885" cy="358" r="12" fill="#8FB07A"/><circle cx="912" cy="363" r="12" fill="#7FA06B"/></svg>