<svg xmlns="http://www.w3.org/2000/svg" viewBox="0 0 1200 800"><defs><pattern id="st-luna-pearl" patternUnits="userSpaceOnUse" width="300" height="200"><rect width="300" height="200" fill="#E4E2DE"/><circle cx="202.3" cy="57.2" r="1.7" fill="#2E2C2A" opacity="0.51"/><circle cx="65.5" cy="11.4" r="1.9" fill="#9A9690" opacity="0.37"/><circle cx="289.7" cy="16.9" r="2.8" fill="#2E2C2A" opacity="0.28"/><circle cx="209.3" cy="37.0" r="2.7" fill="#9A9690" opacity="0.69"/><circle cx="47.2" cy="139.2" r="1.7" fill="#2E2C2A" opacity="0.66"/><circle cx="149.0" cy="50.0" r="1.9" fill="#2E2C2A" opacity="0.73"/><circle cx="115.5" cy="44.1" r="2.1" fill="#9A9690" opacity="0.64"/><circle cx="236.6" cy="166.6" r="1.4" fill="#9A9690" opacity="0.40"/><circle cx="124.3" cy="188.3" r="1.7" fill="#2E2C2A" opacity="0.65"/><circle cx="246.1" cy="95.2" r="2.3" fill="#9A9690" opacity="0.42"/><circle cx="58.6" cy="110.1" r="1.3" fill="#9A9690" opacity="0.64"/><circle cx="240.5" cy="48.4" r="2.4" fill="#2E2C2A" opacity="0.59"/><circle cx="26.0" cy="7.0" r="1.2" fill="#9A9690" opacity="0.55"/><circle cx="138.3" cy="186.5" r="1.4" fill="#9A9690" opacity="0.43"/><circle cx="222.7" cy="46.8" r="2.0" fill="#2E2C2A" opacity="0.58"/><circle cx="80.2" cy="196.0" r="1.3" fill="#9A9690" opacity="0.59"/><circle cx="200.6" cy="12.4" r="2.0" fill="#2E2C2A" opacity="0.29"/><circle cx="95.9" cy="0.4" r="0.8" fill="#2E2C2A" opacity="0.67"/><circle cx="133.7" cy="79.1" r="2.8" fill="#9A9690" opacity="0.57"/><circle cx="270.5" cy="4.6" r="1.1" fill="#9A9690" opacity="0.28"/><circle cx="185.0" cy="125.7" r="0.9" fill="#2E2C2A" opacity="0.39"/><circle cx="211.5" cy="72.7" r="1.4" fill="#2E2C2A" opacity="0.53"/><circle cx="73.0" cy="179.6" r="1.1" fill="#2E2C2A" opacity="0.43"/><circle cx="215.1" cy="39.5" r="2.7" fill="#2E2C2A" opacity="0.29"/><circle cx="38.6" cy="193.7" r="1.6" fill="#2E2C2A" opacity="0.52"/><circle cx="233.3" cy="154.1" r="2.0" fill="#2E2C2A" opacity="0.29"/><circle cx="211.2" cy="158.3" r="2.0" fill="#2E2C2A" opacity="0.42"/><circle cx="240.0" cy="58.7" r="1.6" fill="#2E2C2A" opacity="0.58"/><circle cx="176.1" cy="144.9" r="2.0" fill="#2E2C2A" opacity="0.40"/><circle cx="198.2" cy="98.9" r="1.0" fill="#2E2C2A" opacity="0.31"/><circle cx="240.7" cy="84.4" r="1.5" fill="#9A9690" opacity="0.25"/><circle cx="226.6" cy="168.5" r="1.2" fill="#9A9690" opacity="0.30"/><circle cx="201.3" cy="77.9" r="2.3" fill="#9A9690" opacity="0.50"/><circle cx="65.7" cy="87.3" r="1.4" fill="#9A9690" opacity="0.57"/><circle cx="109.7" cy="41.7" r="2.0" fill="#9A9690" opacity="0.54"/><circle cx="245.3" cy="112.1" r="1.5" fill="#9A9690" opacity="0.54"/><circle cx="40.0" cy="84.2" r="1.5" fill="#2E2C2A" opacity="0.59"/><circle cx="150.5" cy="181.0" r="2.3" fill="#2E2C2A" opacity="0.64"/><circle cx="55.2" cy="17.9" r="1.1" fill="#2E2C2A" opacity="0.46"/><circle cx="188.7" cy="91.8" r="2.1" fill="#2E2C2A" opacity="0.34"/><circle cx="73.9" cy="3.3" r="2.4" fill="#9A9690" opacity="0.67"/><circle cx="256.2" cy="12.2" r="1.2" fill="#9A9690" opacity="0.32"/><circle cx="236.6" cy="126.7" r="1.0" fill="#9A9690" opacity="0.36"/><circle cx="204.9" cy="125.1" r="2.5" fill="#9A9690" opacity="0.65"/><circle cx="273.1" cy="111.6" r="2.1" fill="#9A9690" opacity="0.64"/><circle cx="208.8" cy="5.6" r="0.8" fill="#2E2C2A" opacity="0.71"/><circle cx="268.6" cy="163.0" r="2.6" fill="#9A9690" opacity="0.62"/><circle cx="131.0" cy="132.8" r="1.7" fill="#9A9690" opacity="0.48"/><circle cx="130.4" cy="145.1" r="1.5" fill="#2E2C2A" opacity="0.41"/><circle cx="289.9" cy="133.9" r="0.9" fill="#9A9690" opacity="0.64"/><circle cx="154.9" cy="92.4" r="2.3" fill="#9A9690" opacity="0.37"/><circle cx="26.2" cy="161.9" r="1.2" fill="#2E2C2A" opacity="0.52"/><circle cx="293.8" cy="54.3" r="1.8" fill="#9A9690" opacity="0.74"/><circle cx="69.7" cy="7.0" r="2.1" fill="#2E2C2A" opacity="0.36"/><circle cx="221.4" cy="72.7" r="2.2" fill="#9A9690" opacity="0.57"/><circle cx="5.4" cy="140.8" r="1.2" fill="#2E2C2A" opacity="0.47"/><circle cx="200.5" cy="93.5" r="1.1" fill="#2E2C2A" opacity="0.49"/><circle cx="140.9" cy="94.2" r="2.6" fill="#9A9690" opacity="0.60"/><circle cx="49.7" cy="10.3" r="1.4" fill="#9A9690" opacity="0.36"/><circle cx="272.3" cy="168.3" r="1.7" fill="#9A9690" opacity="0.30"/><circle cx="109.6" cy="43.0" r="2.5" fill="#2E2C2A" opacity="0.66"/><circle cx="151.5" cy="79.3" r="2.7" fill="#2E2C2A" opacity="0.45"/><circle cx="10.0" cy="48.3" r="2.0" fill="#2E2C2A" opacity="0.32"/><circle cx="152.7" cy="135.7" r="2.0" fill="#2E2C2A" opacity="0.29"/><circle cx="36.0" cy="164.5" r="0.8" fill="#2E2C2A" opacity="0.30"/><circle cx="38.8" cy="150.0" r="2.1" fill="#9A9690" opacity="0.61"/><circle cx="295.1" cy="189.1" r="1.4" fill="#2E2C2A" opacity="0.53"/><circle cx="28.2" cy="82.6" r="2.5" fill="#2E2C2A" opacity="0.44"/><circle cx="83.5" cy="90.1" r="2.2" fill="#2E2C2A" opacity="0.71"/><circle cx="261.8" cy="19.9" r="0.9" fill="#2E2C2A" opacity="0.42"/><circle cx="153.0" cy="50.2" r="1.4" fill="#2E2C2A" opacity="0.41"/><circle cx="169.1" cy="85.4" r="2.5" fill="#2E2C2A" opacity="0.65"/><circle cx="77.8" cy="44.6" r="0.6" fill="#9A9690" opacity="0.50"/><circle cx="135.4" cy="84.0" r="2.0" fill="#9A9690" opacity="0.75"/><circle cx="20.8" cy="152.3" r="0.9" fill="#2E2C2A" opacity="0.48"/><circle cx="68.1" cy="79.9" r="0.7" fill="#9A9690" opacity="0.32"/><circle cx="0.5" cy="0.7" r="2.4" fill="#9A9690" opacity="0.51"/><circle cx="263.4" cy="107.8" r="2.1" fill="#9A9690" opacity="0.74"/><circle cx="257.7" cy="142.6" r="1.5" fill="#9A9690" opacity="0.42"/><circle cx="73.2" cy="16.9" r="2.8" fill="#9A9690" opacity="0.72"/><circle cx="22.0" cy="168.3" r="1.8" fill="#2E2C2A" opacity="0.46"/><circle cx="71.6" cy="49.2" r="0.8" fill="#9A9690" opacity="0.33"/><circle cx="78.5" cy="149.3" r="1.0" fill="#2E2C2A" opacity="0.44"/><circle cx="221.5" cy="150.5" r="2.4" fill="#2E2C2A" opacity="0.71"/><circle cx="134.8" cy="16.5" r="1.1" fill="#9A9690" opacity="0.60"/><circle cx="41.5" cy="14.6" r="1.8" fill="#2E2C2A" opacity="0.69"/><circle cx="287.0" cy="71.2" r="1.9" fill="#2E2C2A" opacity="0.50"/><circle cx="172.3" cy="61.1" r="2.6" fill="#2E2C2A" opacity="0.28"/><circle cx="287.1" cy="29.4" r="0.8" fill="#2E2C2A" opacity="0.53"/><circle cx="243.5" cy="147.0" r="2.7" fill="#9A9690" opacity="0.39"/><circle cx="209.1" cy="199.7" r="1.0" fill="#2E2C2A" opacity="0.40"/><circle cx="240.4" cy="10.4" r="2.7" fill="#9A9690" opacity="0.49"/><circle cx="116.0" cy="194.6" r="2.7" fill="#2E2C2A" opacity="0.42"/><circle cx="270.3" cy="49.0" r="0.9" fill="#9A9690" opacity="0.50"/><circle cx="226.3" cy="174.3" r="1.1" fill="#9A9690" opacity="0.61"/><circle cx="229.5" cy="30.5" r="2.2" fill="#9A9690" opacity="0.63"/><circle cx="80.7" cy="25.5" r="2.5" fill="#9A9690" opacity="0.63"/><circle cx="269.8" cy="137.8" r="2.6" fill="#2E2C2A" opacity="0.45"/><circle cx="8.9" cy="71.6" r="1.3" fill="#2E2C2A" opacity="0.56"/><circle cx="265.4" cy="146.1" r="1.6" fill="#9A9690" opacity="0.33"/><circle cx="96.0" cy="117.4" r="1.0" fill="#9A9690" opacity="0.53"/><circle cx="79.3" cy="134.4" r="2.4" fill="#9A9690" opacity="0.26"/><circle cx="249.5" cy="27.3" r="0.6" fill="#9A9690" opacity="0.64"/><circle cx="29.8" cy="129.9" r="0.8" fill="#9A9690" opacity="0.40"/><circle cx="165.6" cy="35.7" r="1.4" fill="#9A9690" opacity="0.25"/><circle cx="57.8" cy="85.8" r="1.9" fill="#2E2C2A" opacity="0.60"/><circle cx="96.3" cy="192.0" r="2.2" fill="#9A9690" opacity="0.61"/><circle cx="293.0" cy="192.0" r="2.7" fill="#9A9690" opacity="0.60"/><circle cx="15.5" cy="138.2" r="1.2" fill="#2E2C2A" opacity="0.25"/><circle cx="20.4" cy="120.2" r="1.0" fill="#9A9690" opacity="0.69"/><circle cx="186.3" cy="20.1" r="2.1" fill="#9A9690" opacity="0.33"/><circle cx="147.5" cy="1.4" r="0.9" fill="#9A9690" opacity="0.64"/><circle cx="127.1" cy="131.4" r="1.7" fill="#2E2C2A" opacity="0.68"/><circle cx="170.5" cy="136.6" r="2.1" fill="#2E2C2A" opacity="0.49"/><circle cx="178.7" cy="91.8" r="1.2" fill="#9A9690" opacity="0.30"/><circle cx="141.5" cy="42.0" r="2.3" fill="#9A9690" opacity="0.63"/><circle cx="270.8" cy="158.2" r="0.7" fill="#9A9690" opacity="0.62"/><circle cx="134.3" cy="26.2" r="2.3" fill="#2E2C2A" opacity="0.29"/><circle cx="88.5" cy="68.9" r="0.9" fill="#9A9690" opacity="0.58"/><circle cx="212.0" cy="101.6" r="2.3" fill="#2E2C2A" opacity="0.26"/><circle cx="39.2" cy="21.3" r="2.2" fill="#2E2C2A" opacity="0.63"/><circle cx="293.1" cy="28.6" r="1.9" fill="#2E2C2A" opacity="0.57"/><circle cx="19.2" cy="183.4" r="0.7" fill="#9A9690" opacity="0.46"/><circle cx="218.4" cy="93.7" r="1.0" fill="#2E2C2A" opacity="0.38"/><circle cx="180.4" cy="137.9" r="1.3" fill="#2E2C2A" opacity="0.65"/><circle cx="17.4" cy="20.3" r="2.5" fill="#9A9690" opacity="0.26"/><circle cx="96.9" cy="60.1" r="1.2" fill="#9A9690" opacity="0.56"/><circle cx="75.3" cy="13.4" r="1.3" fill="#2E2C2A" opacity="0.34"/><circle cx="231.5" cy="29.0" r="1.4" fill="#2E2C2A" opacity="0.69"/><circle cx="299.7" cy="137.1" r="0.7" fill="#9A9690" opacity="0.74"/><circle cx="2.9" cy="71.7" r="2.1" fill="#2E2C2A" opacity="0.71"/><circle cx="86.6" cy="26.0" r="1.9" fill="#2E2C2A" opacity="0.30"/><circle cx="251.8" cy="141.4" r="1.9" fill="#2E2C2A" opacity="0.44"/><circle cx="288.1" cy="129.6" r="1.8" fill="#9A9690" opacity="0.27"/><circle cx="207.7" cy="28.2" r="2.1" fill="#2E2C2A" opacity="0.63"/><circle cx="278.2" cy="89.7" r="2.8" fill="#2E2C2A" opacity="0.70"/><circle cx="56.0" cy="3.7" r="2.7" fill="#9A9690" opacity="0.59"/><circle cx="19.8" cy="52.2" r="2.0" fill="#9A9690" opacity="0.73"/><circle cx="103.9" cy="198.7" r="1.3" fill="#2E2C2A" opacity="0.58"/><circle cx="231.4" cy="110.7" r="0.7" fill="#9A9690" opacity="0.70"/><circle cx="147.8" cy="114.5" r="2.0" fill="#2E2C2A" opacity="0.63"/><circle cx="53.9" cy="85.0" r="2.1" fill="#9A9690" opacity="0.61"/><circle cx="239.6" cy="67.1" r="2.3" fill="#2E2C2A" opacity="0.64"/><circle cx="16.8" cy="32.0" r="2.2" fill="#9A9690" opacity="0.38"/><circle cx="153.2" cy="165.3" r="1.0" fill="#9A9690" opacity="0.33"/><circle cx="105.3" cy="89.8" r="1.4" fill="#2E2C2A" opacity="0.46"/><circle cx="251.8" cy="21.2" r="2.7" fill="#2E2C2A" opacity="0.51"/><circle cx="126.9" cy="56.2" r="2.5" fill="#2E2C2A" opacity="0.29"/><circle cx="153.7" cy="195.4" r="2.4" fill="#9A9690" opacity="0.69"/><circle cx="277.7" cy="98.8" r="1.5" fill="#9A9690" opacity="0.57"/><circle cx="299.8" cy="174.4" r="2.4" fill="#2E2C2A" opacity="0.52"/><circle cx="109.8" cy="0.5" r="1.2" fill="#9A9690" opacity="0.38"/><circle cx="119.6" cy="81.5" r="1.1" fill="#2E2C2A" opacity="0.61"/><circle cx="97.0" cy="136.6" r="0.8" fill="#9A9690" opacity="0.58"/><circle cx="298.4" cy="121.8" r="2.2" fill="#9A9690" opacity="0.56"/><circle cx="102.5" cy="186.0" r="1.6" fill="#9A9690" opacity="0.66"/><circle cx="143.6" cy="159.4" r="2.5" fill="#2E2C2A" opacity="0.49"/><circle cx="144.7" cy="176.0" r="1.4" fill="#2E2C2A" opacity="0.29"/><circle cx="251.4" cy="28.9" r="1.0" fill="#2E2C2A" opacity="0.26"/><circle cx="164.4" cy="59.6" r="0.9" fill="#9A9690" opacity="0.30"/><circle cx="273.7" cy="179.7" r="1.0" fill="#9A9690" opacity="0.60"/><circle cx="291.2" cy="26.9" r="1.6" fill="#9A9690" opacity="0.45"/><circle cx="184.6" cy="53.8" r="0.6" fill="#9A9690" opacity="0.56"/><circle cx="110.3" cy="149.6" r="1.3" fill="#9A9690" opacity="0.53"/><circle cx="247.0" cy="196.7" r="1.5" fill="#9A9690" opacity="0.29"/><circle cx="229.1" cy="158.6" r="1.9" fill="#9A9690" opacity="0.30"/><circle cx="279.5" cy="102.4" r="2.5" fill="#9A9690" opacity="0.63"/><circle cx="143.8" cy="154.9" r="0.9" fill="#2E2C2A" opacity="0.30"/><circle cx="22.8" cy="190.7" r="2.7" fill="#9A9690" opacity="0.57"/><circle cx="206.4" cy="54.8" r="2.5" fill="#9A9690" opacity="0.43"/><circle cx="6.6" cy="118.2" r="2.1" fill="#9A9690" opacity="0.54"/><circle cx="190.9" cy="166.8" r="0.9" fill="#9A9690" opacity="0.41"/><circle cx="215.9" cy="23.3" r="1.5" fill="#9A9690" opacity="0.49"/><circle cx="160.3" cy="103.2" r="0.9" fill="#2E2C2A" opacity="0.54"/><circle cx="158.3" cy="103.5" r="1.3" fill="#2E2C2A" opacity="0.36"/><circle cx="33.1" cy="24.7" r="1.9" fill="#2E2C2A" opacity="0.33"/><circle cx="30.0" cy="126.7" r="1.9" fill="#2E2C2A" opacity="0.34"/><circle cx="250.0" cy="17.6" r="1.7" fill="#2E2C2A" opacity="0.46"/><circle cx="282.8" cy="75.6" r="1.7" fill="#9A9690" opacity="0.51"/><circle cx="240.6" cy="5.3" r="0.9" fill="#9A9690" opacity="0.49"/><circle cx="191.0" cy="125.6" r="2.3" fill="#2E2C2A" opacity="0.75"/><circle cx="90.3" cy="192.8" r="1.1" fill="#2E2C2A" opacity="0.56"/><circle cx="217.3" cy="155.6" r="2.4" fill="#9A9690" opacity="0.53"/><circle cx="6.3" cy="44.3" r="1.1" fill="#9A9690" opacity="0.27"/><circle cx="80.3" cy="192.8" r="2.4" fill="#2E2C2A" opacity="0.53"/><circle cx="284.9" cy="194.3" r="2.3" fill="#9A9690" opacity="0.49"/><circle cx="20.9" cy="190.3" r="2.8" fill="#9A9690" opacity="0.58"/><circle cx="278.0" cy="92.3" r="1.5" fill="#9A9690" opacity="0.45"/><circle cx="168.5" cy="138.2" r="0.7" fill="#9A9690" opacity="0.43"/><circle cx="259.8" cy="180.3" r="0.8" fill="#2E2C2A" opacity="0.70"/><circle cx="108.4" cy="108.1" r="0.6" fill="#9A9690" opacity="0.37"/><circle cx="193.0" cy="3.8" r="2.3" fill="#2E2C2A" opacity="0.38"/><circle cx="148.0" cy="30.9" r="2.1" fill="#9A9690" opacity="0.68"/><circle cx="196.4" cy="56.7" r="2.3" fill="#9A9690" opacity="0.34"/><circle cx="83.6" cy="7.8" r="2.7" fill="#9A9690" opacity="0.38"/><circle cx="10.5" cy="158.8" r="2.2" fill="#9A9690" opacity="0.57"/><circle cx="267.0" cy="154.9" r="2.2" fill="#2E2C2A" opacity="0.38"/><circle cx="165.1" cy="166.9" r="2.2" fill="#2E2C2A" opacity="0.49"/><circle cx="172.3" cy="180.8" r="1.6" fill="#2E2C2A" opacity="0.39"/><circle cx="45.2" cy="19.2" r="0.7" fill="#2E2C2A" opacity="0.55"/><circle cx="162.5" cy="97.8" r="1.0" fill="#2E2C2A" opacity="0.72"/><circle cx="58.5" cy="113.3" r="2.4" fill="#2E2C2A" opacity="0.70"/><circle cx="156.1" cy="66.5" r="2.1" fill="#2E2C2A" opacity="0.39"/><circle cx="101.0" cy="17.1" r="1.4" fill="#2E2C2A" opacity="0.64"/><circle cx="293.9" cy="173.2" r="2.7" fill="#9A9690" opacity="0.54"/><circle cx="24.7" cy="113.2" r="2.4" fill="#9A9690" opacity="0.43"/><circle cx="5.4" cy="141.5" r="1.4" fill="#9A9690" opacity="0.28"/><circle cx="3.6" cy="177.1" r="2.8" fill="#9A9690" opacity="0.45"/><circle cx="275.9" cy="176.2" r="1.7" fill="#2E2C2A" opacity="0.72"/><circle cx="200.8" cy="87.6" r="1.3" fill="#2E2C2A" opacity="0.68"/><circle cx="112.7" cy="141.6" r="2.7" fill="#9A9690" opacity="0.47"/><circle cx="34.7" cy="72.1" r="2.5" fill="#9A9690" opacity="0.30"/><circle cx="112.2" cy="72.2" r="1.1" fill="#2E2C2A" opacity="0.39"/><circle cx="46.0" cy="83.4" r="2.6" fill="#2E2C2A" opacity="0.63"/><circle cx="226.1" cy="17.5" r="2.6" fill="#2E2C2A" opacity="0.71"/><circle cx="64.5" cy="111.9" r="1.1" fill="#2E2C2A" opacity="0.44"/><circle cx="128.7" cy="19.3" r="0.6" fill="#9A9690" opacity="0.50"/><circle cx="275.2" cy="29.0" r="2.2" fill="#2E2C2A" opacity="0.50"/><circle cx="82.8" cy="23.3" r="1.5" fill="#2E2C2A" opacity="0.38"/><circle cx="85.7" cy="165.7" r="1.3" fill="#9A9690" opacity="0.59"/></pattern></defs>
    <rect width="1200" height="800" fill="#F4F3F1"/>
    <rect x="0" y="640" width="1200" height="160" fill="#D9CDBC"/>
    <rect x="80" y="120" width="280" height="220" fill="#E9EDF0" stroke="#C9D3D9" stroke-width="6"/>
    <rect x="120" y="380" width="960" height="60" fill="url(#st-luna-pearl)"/>
    <rect x="120" y="140" width="960" height="240" fill="url(#st-luna-pearl)" opacity="0.35"/>
    <rect x="120" y="440" width="960" height="200" fill="#FAFAF8" stroke="#E3E6E8" stroke-width="4"/>
    <rect x="560" y="470" width="90" height="130" fill="#EDEFF1"/>
    <circle cx="700" cy="360" r="26" fill="#3A3D3F"/>
    <ellipse cx="880" cy="372" rx="70" ry="14" fill="#FFFFFF" opacity="0.8"/>
    <circle cx="855" cy="362" r="12" fill="#7FA06B"/><circle cx="885" cy="358" r="12" fill="#8FB07A"/><circle cx="912" cy="363" r="12" fill="#7FA06B"/></svg>