<svg xmlns="http://www.w3.org/2000/svg" viewBox="0 0 1200 800"><defs><pattern id="st-marron-baltico" patternUnits="userSpaceOnUse" width="300" height="200"><rect width="300" height="200" fill="#6E4E35"/><circle cx="169.3" cy="161.9" r="2.1" fill="#C08A4E" opacity="0.66"/><circle cx="0.9" cy="153.0" r="1.5" fill="#2A211A" opacity="0.72"/><circle cx="6.4" cy="41.0" r="2.2" fill="#2A211A" opacity="0.71"/><circle cx="164.7" cy="174.7" r="2.7" fill="#C08A4E" opacity="0.73"/><circle cx="209.9" cy="184.2" r="2.2" fill="#C08A4E" opacity="0.41"/><circle cx="165.2" cy="3.6" r="1.5" fill="#C08A4E" opacity="0.46"/><circle cx="176.0" cy="25.9" r="1.1" fill="#2A211A" opacity="0.60"/><circle cx="243.3" cy="192.7" r="0.7" fill="#C08A4E" opacity="0.74"/><circle cx="156.7" cy="15.6" r="2.3" fill="#C08A4E" opacity="0.54"/><circle cx="228.4" cy="132.3" r="1.8" fill="#2A211A" opacity="0.32"/><circle cx="125.9" cy="195.2" r="1.6" fill="#C08A4E" opacity="0.27"/><circle cx="5.8" cy="93.9" r="2.7" fill="#2A211A" opacity="0.50"/><circle cx="46.7" cy="110.4" r="0.7" fill="#2A211A" opacity="0.43"/><circle cx="182.9" cy="8.3" r="0.8" fill="#C08A4E" opacity="0.53"/><circle cx="37.5" cy="55.0" r="0.7" fill="#C08A4E" opacity="0.36"/><circle cx="256.0" cy="176.9" r="2.4" fill="#2A211A" opacity="0.46"/><circle cx="139.1" cy="48.8" r="2.7" fill="#C08A4E" opacity="0.57"/><circle cx="276.9" cy="115.6" r="0.8" fill="#C08A4E" opacity="0.69"/><circle cx="281.2" cy="148.5" r="2.6" fill="#C08A4E" opacity="0.47"/><circle cx="19.7" cy="133.2" r="1.1" fill="#C08A4E" opacity="0.43"/><circle cx="148.9" cy="92.5" r="1.0" fill="#C08A4E" opacity="0.52"/><circle cx="147.4" cy="41.9" r="1.5" fill="#C08A4E" opacity="0.49"/><circle cx="149.6" cy="78.3" r="2.6" fill="#2A211A" opacity="0.65"/><circle cx="278.5" cy="2.2" r="1.5" fill="#C08A4E" opacity="0.38"/><circle cx="179.6" cy="73.7" r="1.5" fill="#C08A4E" opacity="0.56"/><circle cx="253.8" cy="100.7" r="0.9" fill="#2A211A" opacity="0.27"/><circle cx="90.8" cy="61.5" r="2.5" fill="#C08A4E" opacity="0.33"/><circle cx="102.8" cy="60.6" r="2.8" fill="#C08A4E" opacity="0.73"/><circle cx="57.3" cy="17.0" r="2.7" fill="#2A211A" opacity="0.33"/><circle cx="210.8" cy="87.0" r="1.9" fill="#C08A4E" opacity="0.40"/><circle cx="241.9" cy="19.2" r="1.1" fill="#2A211A" opacity="0.54"/><circle cx="185.1" cy="44.0" r="1.7" fill="#C08A4E" opacity="0.38"/><circle cx="63.3" cy="95.3" r="2.2" fill="#2A211A" opacity="0.64"/><circle cx="22.0" cy="166.3" r="1.1" fill="#C08A4E" opacity="0.53"/><circle cx="62.2" cy="198.4" r="2.3" fill="#2A211A" opacity="0.45"/><circle cx="273.5" cy="103.2" r="1.4" fill="#2A211A" opacity="0.58"/><circle cx="68.1" cy="118.5" r="0.7" fill="#2A211A" opacity="0.74"/><circle cx="13.6" cy="96.7" r="2.6" fill="#2A211A" opacity="0.60"/><circle cx="266.4" cy="127.3" r="1.7" fill="#2A211A" opacity="0.28"/><circle cx="105.2" cy="92.4" r="2.3" fill="#C08A4E" opacity="0.71"/><circle cx="64.3" cy="155.7" r="0.7" fill="#C08A4E" opacity="0.35"/><circle cx="66.9" cy="184.3" r="1.3" fill="#C08A4E" opacity="0.26"/><circle cx="158.2" cy="104.8" r="1.7" fill="#2A211A" opacity="0.48"/><circle cx="239.3" cy="191.9" r="0.9" fill="#2A211A" opacity="0.25"/><circle cx="300.0" cy="90.8" r="2.4" fill="#2A211A" opacity="0.58"/><circle cx="252.2" cy="172.2" r="1.3" fill="#2A211A" opacity="0.60"/><circle cx="263.6" cy="22.2" r="1.4" fill="#C08A4E" opacity="0.35"/><circle cx="90.7" cy="63.5" r="0.9" fill="#C08A4E" opacity="0.27"/><circle cx="112.2" cy="111.5" r="1.3" fill="#2A211A" opacity="0.61"/><circle cx="162.3" cy="63.1" r="2.4" fill="#2A211A" opacity="0.68"/><circle cx="64.1" cy="119.0" r="1.4" fill="#2A211A" opacity="0.37"/><circle cx="63.1" cy="139.1" r="1.8" fill="#C08A4E" opacity="0.55"/><circle cx="260.2" cy="131.3" r="1.7" fill="#C08A4E" opacity="0.29"/><circle cx="245.2" cy="74.1" r="1.8" fill="#C08A4E" opacity="0.43"/><circle cx="130.1" cy="71.8" r="0.8" fill="#2A211A" opacity="0.46"/><circle cx="282.5" cy="43.5" r="1.8" fill="#2A211A" opacity="0.72"/><circle cx="58.8" cy="145.4" r="2.3" fill="#C08A4E" opacity="0.50"/><circle cx="37.9" cy="126.3" r="0.7" fill="#2A211A" opacity="0.38"/><circle cx="254.0" cy="16.4" r="0.7" fill="#2A211A" opacity="0.51"/><circle cx="130.2" cy="149.6" r="0.9" fill="#C08A4E" opacity="0.60"/><circle cx="111.8" cy="119.2" r="1.8" fill="#C08A4E" opacity="0.36"/><circle cx="199.9" cy="66.5" r="0.8" fill="#C08A4E" opacity="0.70"/><circle cx="184.1" cy="103.3" r="2.2" fill="#2A211A" opacity="0.28"/><circle cx="76.6" cy="67.2" r="1.9" fill="#C08A4E" opacity="0.43"/><circle cx="145.0" cy="10.7" r="2.2" fill="#2A211A" opacity="0.33"/><circle cx="245.7" cy="23.3" r="2.0" fill="#2A211A" opacity="0.59"/><circle cx="257.4" cy="187.0" r="1.3" fill="#2A211A" opacity="0.64"/><circle cx="114.5" cy="65.5" r="0.7" fill="#2A211A" opacity="0.45"/><circle cx="39.9" cy="126.0" r="2.6" fill="#2A211A" opacity="0.56"/><circle cx="79.2" cy="95.2" r="2.3" fill="#C08A4E" opacity="0.53"/><circle cx="133.2" cy="47.6" r="0.9" fill="#2A211A" opacity="0.59"/><circle cx="191.8" cy="28.4" r="2.0" fill="#2A211A" opacity="0.74"/><circle cx="167.0" cy="8.5" r="0.7" fill="#C08A4E" opacity="0.64"/><circle cx="226.3" cy="173.7" r="0.8" fill="#C08A4E" opacity="0.30"/><circle cx="126.3" cy="146.9" r="2.7" fill="#2A211A" opacity="0.67"/><circle cx="245.7" cy="143.5" r="1.2" fill="#2A211A" opacity="0.51"/><circle cx="118.7" cy="60.4" r="0.6" fill="#C08A4E" opacity="0.62"/><circle cx="168.5" cy="98.3" r="2.6" fill="#C08A4E" opacity="0.39"/><circle cx="40.4" cy="117.0" r="1.6" fill="#C08A4E" opacity="0.69"/><circle cx="135.4" cy="124.5" r="2.7" fill="#C08A4E" opacity="0.60"/><circle cx="43.3" cy="99.2" r="1.8" fill="#C08A4E" opacity="0.45"/><circle cx="176.1" cy="145.5" r="2.3" fill="#2A211A" opacity="0.72"/><circle cx="1.4" cy="182.5" r="2.7" fill="#C08A4E" opacity="0.27"/><circle cx="75.7" cy="166.4" r="0.6" fill="#2A211A" opacity="0.37"/><circle cx="77.7" cy="45.9" r="1.1" fill="#2A211A" opacity="0.63"/><circle cx="41.7" cy="51.2" r="1.0" fill="#2A211A" opacity="0.67"/><circle cx="290.8" cy="116.4" r="1.4" fill="#2A211A" opacity="0.71"/><circle cx="70.3" cy="34.6" r="2.6" fill="#C08A4E" opacity="0.47"/><circle cx="281.3" cy="147.2" r="2.1" fill="#2A211A" opacity="0.35"/><circle cx="113.5" cy="165.9" r="2.1" fill="#C08A4E" opacity="0.51"/><circle cx="178.9" cy="128.5" r="2.7" fill="#2A211A" opacity="0.28"/><circle cx="145.2" cy="87.2" r="1.8" fill="#C08A4E" opacity="0.34"/><circle cx="168.8" cy="131.7" r="0.7" fill="#2A211A" opacity="0.31"/><circle cx="128.5" cy="144.1" r="1.4" fill="#C08A4E" opacity="0.61"/><circle cx="258.4" cy="87.8" r="2.5" fill="#C08A4E" opacity="0.70"/><circle cx="181.8" cy="30.3" r="1.8" fill="#2A211A" opacity="0.65"/><circle cx="244.0" cy="98.1" r="1.3" fill="#2A211A" opacity="0.49"/><circle cx="45.9" cy="165.8" r="2.1" fill="#C08A4E" opacity="0.46"/><circle cx="177.4" cy="78.5" r="1.2" fill="#C08A4E" opacity="0.57"/><circle cx="250.5" cy="7.2" r="2.5" fill="#2A211A" opacity="0.46"/><circle cx="132.7" cy="137.7" r="0.9" fill="#C08A4E" opacity="0.66"/><circle cx="180.7" cy="92.9" r="1.3" fill="#2A211A" opacity="0.61"/><circle cx="173.0" cy="88.1" r="0.7" fill="#2A211A" opacity="0.57"/><circle cx="243.9" cy="20.3" r="1.2" fill="#2A211A" opacity="0.35"/><circle cx="216.6" cy="90.1" r="2.2" fill="#2A211A" opacity="0.32"/><circle cx="36.4" cy="157.4" r="2.7" fill="#C08A4E" opacity="0.37"/><circle cx="104.3" cy="30.2" r="1.0" fill="#C08A4E" opacity="0.56"/><circle cx="10.1" cy="86.9" r="2.0" fill="#2A211A" opacity="0.74"/><circle cx="165.8" cy="31.8" r="2.2" fill="#C08A4E" opacity="0.38"/><circle cx="39.1" cy="184.0" r="2.7" fill="#C08A4E" opacity="0.34"/><circle cx="186.3" cy="99.8" r="0.7" fill="#C08A4E" opacity="0.40"/><circle cx="286.2" cy="127.9" r="1.5" fill="#2A211A" opacity="0.66"/><circle cx="73.1" cy="98.6" r="2.0" fill="#2A211A" opacity="0.73"/><circle cx="170.1" cy="145.7" r="0.9" fill="#C08A4E" opacity="0.36"/><circle cx="122.6" cy="62.5" r="0.8" fill="#2A211A" opacity="0.74"/><circle cx="231.5" cy="190.4" r="1.4" fill="#C08A4E" opacity="0.28"/><circle cx="286.5" cy="41.1" r="2.6" fill="#2A211A" opacity="0.65"/><circle cx="299.9" cy="52.2" r="2.5" fill="#C08A4E" opacity="0.66"/><circle cx="239.1" cy="76.2" r="1.1" fill="#2A211A" opacity="0.51"/><circle cx="260.6" cy="2.7" r="1.8" fill="#2A211A" opacity="0.31"/><circle cx="243.2" cy="113.6" r="2.3" fill="#C08A4E" opacity="0.48"/><circle cx="121.1" cy="172.7" r="1.2" fill="#2A211A" opacity="0.48"/><circle cx="117.4" cy="47.1" r="0.6" fill="#2A211A" opacity="0.39"/><circle cx="277.5" cy="63.5" r="2.7" fill="#C08A4E" opacity="0.72"/><circle cx="202.3" cy="96.4" r="1.8" fill="#C08A4E" opacity="0.73"/><circle cx="181.7" cy="191.1" r="1.6" fill="#2A211A" opacity="0.42"/><circle cx="127.7" cy="118.4" r="1.6" fill="#2A211A" opacity="0.44"/><circle cx="207.9" cy="64.2" r="1.1" fill="#2A211A" opacity="0.30"/><circle cx="178.8" cy="51.3" r="2.8" fill="#C08A4E" opacity="0.45"/><circle cx="119.0" cy="95.1" r="1.4" fill="#C08A4E" opacity="0.66"/><circle cx="162.8" cy="92.6" r="1.4" fill="#2A211A" opacity="0.73"/><circle cx="133.4" cy="44.4" r="2.0" fill="#C08A4E" opacity="0.53"/><circle cx="276.2" cy="10.3" r="2.3" fill="#2A211A" opacity="0.45"/><circle cx="92.0" cy="198.3" r="2.8" fill="#C08A4E" opacity="0.55"/><circle cx="70.7" cy="187.0" r="1.7" fill="#C08A4E" opacity="0.69"/><circle cx="24.3" cy="80.5" r="2.3" fill="#C08A4E" opacity="0.32"/><circle cx="20.5" cy="198.0" r="1.1" fill="#2A211A" opacity="0.32"/><circle cx="15.6" cy="95.8" r="2.1" fill="#2A211A" opacity="0.47"/><circle cx="288.5" cy="122.5" r="1.6" fill="#2A211A" opacity="0.34"/><circle cx="273.3" cy="108.4" r="1.0" fill="#2A211A" opacity="0.58"/><circle cx="293.2" cy="187.5" r="1.1" fill="#2A211A" opacity="0.41"/><circle cx="193.6" cy="152.9" r="2.5" fill="#2A211A" opacity="0.54"/><circle cx="275.4" cy="146.1" r="2.5" fill="#C08A4E" opacity="0.36"/><circle cx="28.4" cy="78.7" r="1.2" fill="#C08A4E" opacity="0.56"/><circle cx="64.7" cy="188.4" r="0.8" fill="#C08A4E" opacity="0.45"/><circle cx="51.8" cy="127.7" r="1.6" fill="#2A211A" opacity="0.71"/><circle cx="146.2" cy="186.1" r="2.4" fill="#C08A4E" opacity="0.47"/><circle cx="226.7" cy="45.7" r="1.1" fill="#2A211A" opacity="0.63"/><circle cx="227.5" cy="70.0" r="2.7" fill="#2A211A" opacity="0.68"/><circle cx="71.7" cy="126.4" r="0.7" fill="#2A211A" opacity="0.66"/><circle cx="104.7" cy="141.4" r="1.4" fill="#2A211A" opacity="0.61"/><circle cx="227.5" cy="189.6" r="1.7" fill="#2A211A" opacity="0.29"/><circle cx="129.8" cy="116.2" r="2.8" fill="#C08A4E" opacity="0.68"/><circle cx="23.7" cy="92.1" r="2.0" fill="#C08A4E" opacity="0.44"/><circle cx="76.8" cy="103.2" r="0.9" fill="#2A211A" opacity="0.59"/><circle cx="45.6" cy="172.3" r="2.2" fill="#C08A4E" opacity="0.58"/><circle cx="8.7" cy="114.7" r="0.6" fill="#2A211A" opacity="0.66"/><circle cx="100.5" cy="27.5" r="2.8" fill="#2A211A" opacity="0.64"/><circle cx="144.0" cy="111.2" r="1.4" fill="#C08A4E" opacity="0.39"/><circle cx="84.7" cy="25.7" r="2.0" fill="#C08A4E" opacity="0.31"/><circle cx="23.4" cy="179.0" r="0.8" fill="#C08A4E" opacity="0.45"/><circle cx="150.0" cy="149.6" r="2.7" fill="#C08A4E" opacity="0.66"/><circle cx="276.6" cy="41.7" r="2.0" fill="#C08A4E" opacity="0.43"/><circle cx="170.6" cy="174.5" r="1.9" fill="#2A211A" opacity="0.59"/><circle cx="88.7" cy="104.2" r="1.9" fill="#C08A4E" opacity="0.43"/><circle cx="9.5" cy="179.5" r="0.6" fill="#2A211A" opacity="0.56"/><circle cx="267.2" cy="30.7" r="1.7" fill="#2A211A" opacity="0.58"/><circle cx="285.0" cy="191.7" r="1.4" fill="#2A211A" opacity="0.74"/><circle cx="208.3" cy="55.8" r="2.6" fill="#2A211A" opacity="0.74"/><circle cx="38.0" cy="164.2" r="2.7" fill="#2A211A" opacity="0.48"/><circle cx="164.0" cy="28.8" r="1.4" fill="#2A211A" opacity="0.64"/><circle cx="298.2" cy="87.1" r="1.4" fill="#C08A4E" opacity="0.52"/><circle cx="108.2" cy="191.7" r="2.8" fill="#2A211A" opacity="0.32"/><circle cx="50.6" cy="32.0" r="2.1" fill="#C08A4E" opacity="0.65"/><circle cx="4.0" cy="90.2" r="1.7" fill="#C08A4E" opacity="0.44"/><circle cx="202.7" cy="129.8" r="2.2" fill="#C08A4E" opacity="0.65"/><circle cx="269.8" cy="18.2" r="1.5" fill="#2A211A" opacity="0.34"/><circle cx="250.8" cy="81.8" r="1.4" fill="#C08A4E" opacity="0.54"/><circle cx="46.4" cy="195.3" r="1.1" fill="#C08A4E" opacity="0.50"/><circle cx="246.7" cy="3.8" r="1.8" fill="#C08A4E" opacity="0.72"/><circle cx="163.5" cy="78.4" r="0.8" fill="#C08A4E" opacity="0.36"/><circle cx="264.5" cy="4.7" r="2.0" fill="#C08A4E" opacity="0.42"/><circle cx="6.2" cy="5.7" r="1.2" fill="#C08A4E" opacity="0.36"/><circle cx="67.2" cy="96.8" r="2.2" fill="#C08A4E" opacity="0.44"/><circle cx="281.9" cy="174.8" r="2.7" fill="#2A211A" opacity="0.45"/><circle cx="173.3" cy="40.4" r="2.0" fill="#C08A4E" opacity="0.29"/><circle cx="286.9" cy="153.6" r="1.4" fill="#C08A4E" opacity="0.33"/><circle cx="123.6" cy="122.2" r="1.2" fill="#C08A4E" opacity="0.63"/><circle cx="173.1" cy="124.7" r="2.1" fill="#2A211A" opacity="0.55"/><circle cx="247.6" cy="65.5" r="0.7" fill="#C08A4E" opacity="0.56"/><circle cx="114.6" cy="63.6" r="2.2" fill="#2A211A" opacity="0.51"/><circle cx="30.6" cy="75.2" r="1.9" fill="#2A211A" opacity="0.68"/><circle cx="274.2" cy="49.1" r="2.6" fill="#C08A4E" opacity="0.68"/><circle cx="279.9" cy="15.6" r="1.4" fill="#2A211A" opacity="0.62"/><circle cx="70.6" cy="108.5" r="1.4" fill="#C08A4E" opacity="0.73"/><circle cx="91.8" cy="121.2" r="0.7" fill="#2A211A" opacity="0.73"/><circle cx="44.5" cy="194.9" r="1.3" fill="#C08A4E" opacity="0.51"/><circle cx="18.3" cy="41.4" r="0.8" fill="#C08A4E" opacity="0.74"/><circle cx="25.4" cy="98.4" r="1.7" fill="#C08A4E" opacity="0.75"/><circle cx="33.4" cy="18.2" r="1.9" fill="#2A211A" opacity="0.71"/><circle cx="198.7" cy="90.5" r="2.5" fill="#C08A4E" opacity="0.75"/><circle cx="100.0" cy="197.3" r="1.3" fill="#C08A4E" opacity="0.28"/><circle cx="271.6" cy="102.2" r="1.3" fill="#2A211A" opacity="0.28"/><circle cx="36.6" cy="72.5" r="2.3" fill="#C08A4E" opacity="0.29"/><circle cx="40.5" cy="34.7" r="2.1" fill="#C08A4E" opacity="0.37"/><circle cx="184.1" cy="63.5" r="1.8" fill="#2A211A" opacity="0.74"/><circle cx="157.3" cy="4.0" r="2.7" fill="#C08A4E" opacity="0.42"/><circle cx="172.0" cy="27.1" r="2.0" fill="#2A211A" opacity="0.55"/><circle cx="95.9" cy="118.7" r="1.5" fill="#C08A4E" opacity="0.65"/><circle cx="285.5" cy="101.6" r="1.4" fill="#C08A4E" opacity="0.67"/><circle cx="219.5" cy="191.3" r="1.1" fill="#2A211A" opacity="0.37"/><circle cx="32.1" cy="84.6" r="2.7" fill="#C08A4E" opacity="0.55"/><circle cx="146.4" cy="182.2" r="1.1" fill="#2A211A" opacity="0.59"/><circle cx="207.9" cy="143.9" r="1.9" fill="#2A211A" opacity="0.37"/><circle cx="17.5" cy="177.9" r="1.2" fill="#2A211A" opacity="0.47"/><circle cx="65.0" cy="62.3" r="1.7" fill="#2A211A" opacity="0.72"/><circle cx="162.3" cy="101.7" r="2.3" fill="#C08A4E" opacity="0.60"/><circle cx="77.2" cy="15.1" r="1.6" fill="#C08A4E" opacity="0.46"/><circle cx="66.1" cy="158.6" r="1.4" fill="#2A211A" opacity="0.59"/><circle cx="107.7" cy="81.2" r="2.5" fill="#C08A4E" opacity="0.58"/></pattern></defs>
    <rect width="1200" height="800" fill="#F4F3F1"/>
    <rect x="0" y="640" width="1200" height="160" fill="#D9CDBC"/>
    <rect x="80" y="120" width="280" height="220" fill="#E9EDF0" stroke="#C9D3D9" stroke-width="6"/>
    <rect x="120" y="380" width="960" height="60" fill="url(#st-marron-baltico)"/>
    <rect x="120" y="140" width="960" height="240" fill="url(#st-marron-baltico)" opacity="0.35"/>
    <rect x="120" y="440" width="960" height="200" fill="#FAFAF8" stroke="#E3E6E8" stroke-width="4"/>
    <rect x="560" y="470" width="90" height="130" fill="#EDEFF1"/>
    <circle cx="700" cy="360" r="26" fill="#3A3D3F"/>
    <ellipse cx="880" cy="372" rx="70" ry="14" fill="#FFFFFF" opacity="0.8"/>
    <circle cx="855" cy="362" r="12" fill="#7FA06B"/><circle cx="885" cy="358" r="12" fill="#8FB07A"/><circle cx="912" cy="363" r="12" fill="#7FA06B"/></svg>