<svg xmlns="http://www.w3.org/2000/svg" viewBox="0 0 1200 800"><defs><pattern id="st-negro-marquina" patternUnits="userSpaceOnUse" width="300" height="200"><rect width="300" height="200" fill="#1E2022"/><polyline points="0,130 50,124 100,135 150,107 200,106 250,102 300,77" fill="none" stroke="#F4F4F2" stroke-width="2.9" opacity="0.51" stroke-linecap="round"/><polyline points="0,11 50,6 100,19 150,21 200,31 250,6 300,6" fill="none" stroke="#F4F4F2" stroke-width="4.0" opacity="0.67" stroke-linecap="round"/><polyline points="0,56 50,57 100,81 150,51 200,44 250,94 300,48" fill="none" stroke="#3A3D3F" stroke-width="3.3" opacity="0.44" stroke-linecap="round"/><polyline points="0,128 50,121 100,140 150,97 200,146 250,107 300,142" fill="none" stroke="#F4F4F2" stroke-width="3.5" opacity="0.53" stroke-linecap="round"/><polyline points="0,17 50,31 100,-29 150,35 200,21 250,-2 300,-30" fill="none" stroke="#F4F4F2" stroke-width="2.7" opacity="0.53" stroke-linecap="round"/><polyline points="0,81 50,91 100,48 150,77 200,83 250,46 300,85" fill="none" stroke="#3A3D3F" stroke-width="2.9" opacity="0.57" stroke-linecap="round"/><polyline points="0,133 50,70 100,89 150,71 200,114 250,103 300,97" fill="none" stroke="#F4F4F2" stroke-width="1.0" opacity="0.52" stroke-linecap="round"/></pattern></defs>
    <rect width="1200" height="800" fill="#F4F3F1"/>
    <rect x="0" y="640" width="1200" height="160" fill="#D9CDBC"/>
    <rect x="80" y="120" width="280" height="220" fill="#E9EDF0" stroke="#C9D3D9" stroke-width="6"/>
    <rect x="120" y="380" width="960" height="60" fill="url(#st-negro-marquina)"/>
    <rect x="120" y="140" width="960" height="240" fill="url(#st-negro-marquina)" opacity="0.35"/>
    <rect x="120" y="440" width="960" height="200" fill="#FAFAF8" stroke="#E3E6E8" stroke-width="4"/>
    <rect x="560" y="470" width="90" height="130" fill="#EDEFF1"/>
    <circle cx="700" cy="360" r="26" fill="#3A3D3F"/>
    <ellipse cx="880" cy="372" rx="70" ry="14" fill="#FFFFFF" opacity="0.8"/>
    <circle cx="855" cy="362" r="12" fill="#7FA06B"/><circle cx="885" cy="358" r="12" fill="#8FB07A"/><circle cx="912" cy="363" r="12" fill="#7FA06B"/></svg>