<svg xmlns="http://www.w3.org/2000/svg" viewBox="0 0 1200 800"><defs><pattern id="st-taj-mahal" patternUnits="userSpaceOnUse" width="300" height="200"><rect width="300" height="200" fill="#E8E0D2"/><polyline points="0,93 50,72 100,34 150,61 200,80 250,62 300,58" fill="none" stroke="#C9A87A" stroke-width="3.3" opacity="0.67" stroke-linecap="round"/><polyline points="0,16 50,67 100,30 150,18 200,48 250,79 300,29" fill="none" stroke="#C9A87A" stroke-width="2.6" opacity="0.60" stroke-linecap="round"/><polyline points="0,174 50,160 100,204 150,160 200,173 250,209 300,183" fill="none" stroke="#B0A48C" stroke-width="3.2" opacity="0.54" stroke-linecap="round"/><polyline points="0,89 50,137 100,106 150,119 200,118 250,134 300,120" fill="none" stroke="#C9A87A" stroke-width="1.6" opacity="0.40" stroke-linecap="round"/><polyline points="0,89 50,90 100,120 150,99 200,106 250,68 300,60" fill="none" stroke="#C9A87A" stroke-width="2.1" opacity="0.56" stroke-linecap="round"/><polyline points="0,67 50,62 100,39 150,53 200,10 250,29 300,18" fill="none" stroke="#B0A48C" stroke-width="3.5" opacity="0.37" stroke-linecap="round"/><polyline points="0,161 50,153 100,192 150,160 200,154 250,128 300,142" fill="none" stroke="#C9A87A" stroke-width="2.9" opacity="0.48" stroke-linecap="round"/></pattern></defs>
    <rect width="1200" height="800" fill="#F4F3F1"/>
    <rect x="0" y="640" width="1200" height="160" fill="#D9CDBC"/>
    <rect x="80" y="120" width="280" height="220" fill="#E9EDF0" stroke="#C9D3D9" stroke-width="6"/>
    <rect x="120" y="380" width="960" height="60" fill="url(#st-taj-mahal)"/>
    <rect x="120" y="140" width="960" height="240" fill="url(#st-taj-mahal)" opacity="0.35"/>
    <rect x="120" y="440" width="960" height="200" fill="#FAFAF8" stroke="#E3E6E8" stroke-width="4"/>
    <rect x="560" y="470" width="90" height="130" fill="#EDEFF1"/>
    <circle cx="700" cy="360" r="26" fill="#3A3D3F"/>
    <ellipse cx="880" cy="372" rx="70" ry="14" fill="#FFFFFF" opacity="0.8"/>
    <circle cx="855" cy="362" r="12" fill="#7FA06B"/><circle cx="885" cy="358" r="12" fill="#8FB07A"/><circle cx="912" cy="363" r="12" fill="#7FA06B"/></svg>