<svg xmlns="http://www.w3.org/2000/svg" viewBox="0 0 1200 800"><defs><pattern id="st-blue-dunes" patternUnits="userSpaceOnUse" width="300" height="200"><rect width="300" height="200" fill="#9A968C"/><circle cx="274.1" cy="60.3" r="1.2" fill="#6E6A64" opacity="0.35"/><circle cx="179.4" cy="46.3" r="2.3" fill="#6E6A64" opacity="0.32"/><circle cx="140.2" cy="35.4" r="1.5" fill="#C7B79A" opacity="0.38"/><circle cx="157.4" cy="168.8" r="0.8" fill="#C7B79A" opacity="0.43"/><circle cx="20.9" cy="158.4" r="2.0" fill="#C7B79A" opacity="0.65"/><circle cx="42.5" cy="41.7" r="1.2" fill="#6E6A64" opacity="0.35"/><circle cx="190.1" cy="71.3" r="0.6" fill="#6E6A64" opacity="0.71"/><circle cx="19.9" cy="136.6" r="1.3" fill="#C7B79A" opacity="0.35"/><circle cx="10.9" cy="119.8" r="1.2" fill="#6E6A64" opacity="0.70"/><circle cx="97.0" cy="184.4" r="0.9" fill="#C7B79A" opacity="0.72"/><circle cx="201.7" cy="197.8" r="2.6" fill="#C7B79A" opacity="0.47"/><circle cx="70.1" cy="86.3" r="1.8" fill="#6E6A64" opacity="0.49"/><circle cx="203.3" cy="124.9" r="1.7" fill="#6E6A64" opacity="0.51"/><circle cx="291.1" cy="158.4" r="1.6" fill="#6E6A64" opacity="0.55"/><circle cx="245.4" cy="158.0" r="0.9" fill="#6E6A64" opacity="0.74"/><circle cx="233.9" cy="109.3" r="1.2" fill="#C7B79A" opacity="0.62"/><circle cx="13.1" cy="35.3" r="0.7" fill="#C7B79A" opacity="0.62"/><circle cx="261.6" cy="151.3" r="0.9" fill="#C7B79A" opacity="0.51"/><circle cx="213.8" cy="154.4" r="1.6" fill="#C7B79A" opacity="0.59"/><circle cx="292.7" cy="45.0" r="2.3" fill="#6E6A64" opacity="0.74"/><circle cx="143.8" cy="83.1" r="2.0" fill="#6E6A64" opacity="0.34"/><circle cx="168.0" cy="76.8" r="1.0" fill="#6E6A64" opacity="0.46"/><circle cx="255.0" cy="4.3" r="2.2" fill="#C7B79A" opacity="0.44"/><circle cx="217.0" cy="170.0" r="2.1" fill="#C7B79A" opacity="0.26"/><circle cx="121.4" cy="93.1" r="1.7" fill="#C7B79A" opacity="0.27"/><circle cx="224.9" cy="129.8" r="2.7" fill="#6E6A64" opacity="0.26"/><circle cx="206.1" cy="28.7" r="1.6" fill="#C7B79A" opacity="0.31"/><circle cx="99.2" cy="20.2" r="1.8" fill="#6E6A64" opacity="0.57"/><circle cx="227.5" cy="38.1" r="2.0" fill="#6E6A64" opacity="0.75"/><circle cx="136.2" cy="75.8" r="2.6" fill="#C7B79A" opacity="0.55"/><circle cx="126.3" cy="74.5" r="1.3" fill="#C7B79A" opacity="0.39"/><circle cx="287.7" cy="146.0" r="2.2" fill="#C7B79A" opacity="0.44"/><circle cx="32.3" cy="127.9" r="1.2" fill="#C7B79A" opacity="0.51"/><circle cx="227.8" cy="72.8" r="2.8" fill="#6E6A64" opacity="0.29"/><circle cx="130.5" cy="70.1" r="1.5" fill="#6E6A64" opacity="0.38"/><circle cx="219.4" cy="1.9" r="1.7" fill="#C7B79A" opacity="0.73"/><circle cx="128.5" cy="31.8" r="1.9" fill="#C7B79A" opacity="0.29"/><circle cx="81.0" cy="27.0" r="2.1" fill="#6E6A64" opacity="0.62"/><circle cx="122.4" cy="114.2" r="2.2" fill="#C7B79A" opacity="0.25"/><circle cx="153.5" cy="168.0" r="1.0" fill="#C7B79A" opacity="0.44"/><circle cx="164.1" cy="33.5" r="2.2" fill="#6E6A64" opacity="0.68"/><circle cx="66.4" cy="81.7" r="0.7" fill="#6E6A64" opacity="0.63"/><circle cx="27.8" cy="98.3" r="2.6" fill="#6E6A64" opacity="0.29"/><circle cx="104.9" cy="106.2" r="1.8" fill="#6E6A64" opacity="0.62"/><circle cx="76.4" cy="120.9" r="1.7" fill="#C7B79A" opacity="0.39"/><circle cx="76.4" cy="39.2" r="2.5" fill="#6E6A64" opacity="0.37"/><circle cx="228.3" cy="61.8" r="1.1" fill="#6E6A64" opacity="0.48"/><circle cx="177.3" cy="48.5" r="1.1" fill="#C7B79A" opacity="0.57"/><circle cx="24.4" cy="7.4" r="0.7" fill="#6E6A64" opacity="0.73"/><circle cx="259.3" cy="116.9" r="2.6" fill="#C7B79A" opacity="0.29"/><circle cx="94.2" cy="81.3" r="1.3" fill="#C7B79A" opacity="0.73"/><circle cx="196.6" cy="19.6" r="1.9" fill="#C7B79A" opacity="0.41"/><circle cx="223.0" cy="88.2" r="2.0" fill="#C7B79A" opacity="0.60"/><circle cx="152.1" cy="35.8" r="2.3" fill="#6E6A64" opacity="0.40"/><circle cx="18.2" cy="92.5" r="1.9" fill="#C7B79A" opacity="0.45"/><circle cx="144.3" cy="192.4" r="1.7" fill="#6E6A64" opacity="0.45"/><circle cx="76.0" cy="128.7" r="2.2" fill="#6E6A64" opacity="0.63"/><circle cx="114.0" cy="42.7" r="0.9" fill="#C7B79A" opacity="0.39"/><circle cx="48.3" cy="46.1" r="1.9" fill="#6E6A64" opacity="0.39"/><circle cx="190.8" cy="176.7" r="1.2" fill="#C7B79A" opacity="0.45"/><circle cx="209.2" cy="86.8" r="1.2" fill="#C7B79A" opacity="0.27"/><circle cx="259.9" cy="66.0" r="0.6" fill="#C7B79A" opacity="0.45"/><circle cx="221.6" cy="196.4" r="1.7" fill="#C7B79A" opacity="0.41"/><circle cx="28.6" cy="41.6" r="0.8" fill="#C7B79A" opacity="0.64"/><circle cx="204.1" cy="68.8" r="2.3" fill="#C7B79A" opacity="0.67"/><circle cx="193.4" cy="4.6" r="1.6" fill="#C7B79A" opacity="0.55"/><circle cx="197.4" cy="123.7" r="2.1" fill="#C7B79A" opacity="0.53"/><circle cx="206.0" cy="71.1" r="0.7" fill="#6E6A64" opacity="0.60"/><circle cx="131.1" cy="17.9" r="1.2" fill="#6E6A64" opacity="0.41"/><circle cx="140.5" cy="149.8" r="0.9" fill="#C7B79A" opacity="0.49"/><circle cx="290.5" cy="89.7" r="2.4" fill="#6E6A64" opacity="0.28"/><circle cx="59.9" cy="53.0" r="2.7" fill="#6E6A64" opacity="0.54"/><circle cx="182.9" cy="136.6" r="1.8" fill="#6E6A64" opacity="0.56"/><circle cx="182.6" cy="141.1" r="1.2" fill="#6E6A64" opacity="0.75"/><circle cx="4.6" cy="126.4" r="2.1" fill="#6E6A64" opacity="0.47"/><circle cx="49.6" cy="100.6" r="2.8" fill="#C7B79A" opacity="0.29"/><circle cx="207.4" cy="42.0" r="1.5" fill="#C7B79A" opacity="0.55"/><circle cx="290.2" cy="55.0" r="1.6" fill="#6E6A64" opacity="0.74"/><circle cx="65.5" cy="58.6" r="1.7" fill="#6E6A64" opacity="0.71"/><circle cx="89.9" cy="9.2" r="1.5" fill="#C7B79A" opacity="0.73"/><circle cx="41.9" cy="55.3" r="1.5" fill="#C7B79A" opacity="0.40"/><circle cx="255.8" cy="27.3" r="1.1" fill="#C7B79A" opacity="0.36"/><circle cx="154.9" cy="59.2" r="1.1" fill="#C7B79A" opacity="0.32"/><circle cx="184.5" cy="144.1" r="2.0" fill="#C7B79A" opacity="0.49"/><circle cx="45.4" cy="23.3" r="1.1" fill="#6E6A64" opacity="0.29"/><circle cx="127.6" cy="8.7" r="0.7" fill="#6E6A64" opacity="0.37"/><circle cx="143.1" cy="137.9" r="0.9" fill="#C7B79A" opacity="0.55"/><circle cx="59.4" cy="63.3" r="1.9" fill="#C7B79A" opacity="0.53"/><circle cx="33.0" cy="74.5" r="2.6" fill="#C7B79A" opacity="0.42"/><circle cx="242.6" cy="53.5" r="0.8" fill="#C7B79A" opacity="0.63"/><circle cx="22.6" cy="163.9" r="1.5" fill="#C7B79A" opacity="0.64"/><circle cx="196.0" cy="73.1" r="2.7" fill="#C7B79A" opacity="0.50"/><circle cx="208.1" cy="107.5" r="1.8" fill="#6E6A64" opacity="0.26"/><circle cx="260.1" cy="141.9" r="2.2" fill="#C7B79A" opacity="0.65"/><circle cx="41.6" cy="21.3" r="1.0" fill="#C7B79A" opacity="0.67"/><circle cx="64.7" cy="116.6" r="1.8" fill="#6E6A64" opacity="0.48"/><circle cx="196.9" cy="13.8" r="2.1" fill="#C7B79A" opacity="0.60"/><circle cx="194.8" cy="135.6" r="2.1" fill="#C7B79A" opacity="0.47"/><circle cx="137.1" cy="97.5" r="1.1" fill="#6E6A64" opacity="0.35"/><circle cx="158.0" cy="196.4" r="1.3" fill="#C7B79A" opacity="0.54"/><circle cx="80.7" cy="32.9" r="1.9" fill="#6E6A64" opacity="0.43"/><circle cx="150.6" cy="66.8" r="2.1" fill="#C7B79A" opacity="0.39"/><circle cx="168.5" cy="106.3" r="2.2" fill="#6E6A64" opacity="0.50"/><circle cx="24.3" cy="129.6" r="2.8" fill="#C7B79A" opacity="0.59"/><circle cx="130.0" cy="41.2" r="2.7" fill="#6E6A64" opacity="0.65"/><circle cx="253.2" cy="160.2" r="2.8" fill="#C7B79A" opacity="0.53"/><circle cx="50.4" cy="42.6" r="2.7" fill="#C7B79A" opacity="0.51"/><circle cx="100.4" cy="37.4" r="0.9" fill="#6E6A64" opacity="0.68"/><circle cx="137.3" cy="174.7" r="1.0" fill="#C7B79A" opacity="0.67"/><circle cx="184.3" cy="188.5" r="1.7" fill="#C7B79A" opacity="0.72"/><circle cx="86.7" cy="72.0" r="1.3" fill="#C7B79A" opacity="0.51"/><circle cx="145.6" cy="166.5" r="1.5" fill="#C7B79A" opacity="0.47"/><circle cx="150.7" cy="183.8" r="2.4" fill="#6E6A64" opacity="0.25"/><circle cx="114.1" cy="161.6" r="1.8" fill="#C7B79A" opacity="0.69"/><circle cx="3.3" cy="152.3" r="2.3" fill="#C7B79A" opacity="0.45"/><circle cx="274.8" cy="45.4" r="2.6" fill="#C7B79A" opacity="0.67"/><circle cx="207.4" cy="123.1" r="2.8" fill="#6E6A64" opacity="0.25"/><circle cx="35.2" cy="148.8" r="1.3" fill="#C7B79A" opacity="0.68"/><circle cx="281.5" cy="189.9" r="2.6" fill="#6E6A64" opacity="0.49"/><circle cx="91.7" cy="172.9" r="2.1" fill="#6E6A64" opacity="0.75"/><circle cx="266.5" cy="172.6" r="0.9" fill="#C7B79A" opacity="0.67"/><circle cx="195.9" cy="33.9" r="2.5" fill="#6E6A64" opacity="0.28"/><circle cx="91.9" cy="127.9" r="2.1" fill="#C7B79A" opacity="0.71"/><circle cx="122.1" cy="40.3" r="1.2" fill="#C7B79A" opacity="0.49"/><circle cx="42.9" cy="194.1" r="2.5" fill="#C7B79A" opacity="0.56"/><circle cx="233.1" cy="4.6" r="0.8" fill="#C7B79A" opacity="0.69"/><circle cx="227.0" cy="168.7" r="2.6" fill="#6E6A64" opacity="0.67"/><circle cx="147.6" cy="87.1" r="0.6" fill="#6E6A64" opacity="0.39"/><circle cx="240.3" cy="19.7" r="2.8" fill="#C7B79A" opacity="0.72"/><circle cx="6.1" cy="174.5" r="0.7" fill="#C7B79A" opacity="0.74"/><circle cx="234.9" cy="129.8" r="1.4" fill="#C7B79A" opacity="0.29"/><circle cx="138.5" cy="189.9" r="1.7" fill="#C7B79A" opacity="0.35"/><circle cx="84.6" cy="74.2" r="2.3" fill="#C7B79A" opacity="0.27"/><circle cx="29.8" cy="138.6" r="0.7" fill="#C7B79A" opacity="0.32"/><circle cx="252.6" cy="131.9" r="2.0" fill="#C7B79A" opacity="0.61"/><circle cx="187.4" cy="84.5" r="1.1" fill="#6E6A64" opacity="0.27"/><circle cx="157.4" cy="130.2" r="0.8" fill="#6E6A64" opacity="0.52"/><circle cx="7.7" cy="62.3" r="1.8" fill="#6E6A64" opacity="0.56"/><circle cx="39.5" cy="22.2" r="1.5" fill="#C7B79A" opacity="0.30"/><circle cx="42.6" cy="121.5" r="2.0" fill="#6E6A64" opacity="0.42"/><circle cx="28.8" cy="197.9" r="1.3" fill="#C7B79A" opacity="0.73"/><circle cx="265.9" cy="103.8" r="1.7" fill="#C7B79A" opacity="0.41"/><circle cx="10.4" cy="128.9" r="2.2" fill="#C7B79A" opacity="0.57"/><circle cx="40.9" cy="155.1" r="2.7" fill="#6E6A64" opacity="0.65"/><circle cx="291.7" cy="146.1" r="1.7" fill="#6E6A64" opacity="0.62"/><circle cx="85.9" cy="169.2" r="1.5" fill="#C7B79A" opacity="0.51"/><circle cx="68.9" cy="150.8" r="1.9" fill="#C7B79A" opacity="0.39"/><circle cx="141.7" cy="165.7" r="1.8" fill="#C7B79A" opacity="0.48"/><circle cx="294.0" cy="59.0" r="2.5" fill="#C7B79A" opacity="0.29"/><circle cx="137.9" cy="1.6" r="1.3" fill="#C7B79A" opacity="0.47"/><circle cx="141.0" cy="179.3" r="2.1" fill="#C7B79A" opacity="0.53"/><circle cx="59.8" cy="15.0" r="0.8" fill="#6E6A64" opacity="0.44"/><circle cx="272.9" cy="124.1" r="1.1" fill="#6E6A64" opacity="0.43"/><circle cx="14.6" cy="3.6" r="0.7" fill="#6E6A64" opacity="0.33"/><circle cx="8.2" cy="53.9" r="1.1" fill="#C7B79A" opacity="0.50"/><circle cx="198.8" cy="135.1" r="1.4" fill="#C7B79A" opacity="0.33"/><circle cx="87.6" cy="55.1" r="2.0" fill="#C7B79A" opacity="0.39"/><circle cx="164.2" cy="192.4" r="1.3" fill="#6E6A64" opacity="0.52"/><circle cx="240.7" cy="51.2" r="2.5" fill="#6E6A64" opacity="0.70"/><circle cx="84.8" cy="150.7" r="2.0" fill="#6E6A64" opacity="0.28"/><circle cx="252.9" cy="47.0" r="1.6" fill="#C7B79A" opacity="0.54"/><circle cx="123.6" cy="89.0" r="2.2" fill="#6E6A64" opacity="0.58"/><circle cx="31.4" cy="106.8" r="0.7" fill="#6E6A64" opacity="0.53"/><circle cx="299.2" cy="34.5" r="2.3" fill="#C7B79A" opacity="0.60"/><circle cx="172.5" cy="65.2" r="0.9" fill="#6E6A64" opacity="0.51"/><circle cx="252.2" cy="140.3" r="2.8" fill="#6E6A64" opacity="0.67"/><circle cx="28.1" cy="171.6" r="1.2" fill="#6E6A64" opacity="0.74"/><circle cx="112.3" cy="196.6" r="0.8" fill="#C7B79A" opacity="0.55"/><circle cx="172.4" cy="67.8" r="1.8" fill="#C7B79A" opacity="0.26"/><circle cx="64.7" cy="74.8" r="0.8" fill="#6E6A64" opacity="0.51"/><circle cx="268.1" cy="99.7" r="2.2" fill="#C7B79A" opacity="0.71"/><circle cx="116.8" cy="106.0" r="2.3" fill="#C7B79A" opacity="0.34"/><circle cx="134.0" cy="161.0" r="1.2" fill="#6E6A64" opacity="0.44"/><circle cx="64.9" cy="191.2" r="0.8" fill="#6E6A64" opacity="0.56"/><circle cx="110.6" cy="71.4" r="2.3" fill="#C7B79A" opacity="0.44"/><circle cx="260.8" cy="46.6" r="2.7" fill="#6E6A64" opacity="0.58"/><circle cx="127.7" cy="87.8" r="1.3" fill="#6E6A64" opacity="0.63"/><circle cx="178.7" cy="180.8" r="2.1" fill="#C7B79A" opacity="0.61"/><circle cx="170.4" cy="148.5" r="0.9" fill="#C7B79A" opacity="0.47"/><circle cx="181.4" cy="6.2" r="1.6" fill="#C7B79A" opacity="0.46"/><circle cx="46.1" cy="50.9" r="1.7" fill="#6E6A64" opacity="0.39"/><circle cx="187.5" cy="83.2" r="0.6" fill="#6E6A64" opacity="0.65"/><circle cx="251.1" cy="163.0" r="1.8" fill="#6E6A64" opacity="0.60"/><circle cx="37.7" cy="98.3" r="1.3" fill="#C7B79A" opacity="0.32"/><circle cx="37.3" cy="67.5" r="1.9" fill="#C7B79A" opacity="0.66"/><circle cx="61.8" cy="174.9" r="2.3" fill="#6E6A64" opacity="0.58"/><circle cx="178.7" cy="139.7" r="1.2" fill="#C7B79A" opacity="0.45"/><circle cx="44.7" cy="118.0" r="2.7" fill="#C7B79A" opacity="0.54"/><circle cx="238.4" cy="58.6" r="0.9" fill="#6E6A64" opacity="0.45"/><circle cx="194.0" cy="191.7" r="1.5" fill="#C7B79A" opacity="0.31"/><circle cx="234.8" cy="51.3" r="1.1" fill="#C7B79A" opacity="0.34"/><circle cx="206.0" cy="30.6" r="2.2" fill="#C7B79A" opacity="0.25"/><circle cx="108.6" cy="71.0" r="2.5" fill="#6E6A64" opacity="0.45"/><circle cx="32.5" cy="84.2" r="1.6" fill="#6E6A64" opacity="0.60"/><circle cx="289.6" cy="107.8" r="2.1" fill="#6E6A64" opacity="0.52"/><circle cx="247.5" cy="194.3" r="2.0" fill="#C7B79A" opacity="0.40"/><circle cx="62.8" cy="33.3" r="2.2" fill="#C7B79A" opacity="0.35"/><circle cx="214.1" cy="106.7" r="0.7" fill="#C7B79A" opacity="0.30"/><circle cx="35.8" cy="178.3" r="2.5" fill="#C7B79A" opacity="0.72"/><circle cx="50.8" cy="115.2" r="1.0" fill="#6E6A64" opacity="0.65"/><circle cx="4.7" cy="44.1" r="2.6" fill="#C7B79A" opacity="0.64"/><circle cx="98.3" cy="39.6" r="1.9" fill="#6E6A64" opacity="0.43"/><circle cx="21.4" cy="146.7" r="2.4" fill="#C7B79A" opacity="0.53"/><circle cx="286.2" cy="136.5" r="1.4" fill="#6E6A64" opacity="0.58"/><circle cx="160.1" cy="194.8" r="2.7" fill="#C7B79A" opacity="0.59"/><circle cx="299.7" cy="144.4" r="2.3" fill="#6E6A64" opacity="0.53"/><circle cx="183.7" cy="0.8" r="1.6" fill="#C7B79A" opacity="0.65"/><circle cx="246.2" cy="60.7" r="2.8" fill="#6E6A64" opacity="0.74"/><circle cx="10.6" cy="125.0" r="0.8" fill="#6E6A64" opacity="0.70"/><circle cx="22.1" cy="53.4" r="1.3" fill="#6E6A64" opacity="0.40"/><circle cx="81.7" cy="54.0" r="2.4" fill="#6E6A64" opacity="0.41"/><circle cx="79.1" cy="105.1" r="2.6" fill="#6E6A64" opacity="0.57"/><circle cx="126.5" cy="111.1" r="2.8" fill="#6E6A64" opacity="0.37"/><circle cx="291.4" cy="191.2" r="1.7" fill="#6E6A64" opacity="0.65"/><circle cx="230.3" cy="101.4" r="1.2" fill="#6E6A64" opacity="0.70"/><circle cx="221.9" cy="190.6" r="1.9" fill="#C7B79A" opacity="0.60"/><circle cx="0.5" cy="89.0" r="0.9" fill="#C7B79A" opacity="0.50"/><circle cx="189.1" cy="130.6" r="1.2" fill="#C7B79A" opacity="0.61"/><circle cx="33.3" cy="108.5" r="1.0" fill="#6E6A64" opacity="0.64"/><circle cx="133.8" cy="164.2" r="2.3" fill="#C7B79A" opacity="0.50"/></pattern></defs>
    <rect width="1200" height="800" fill="#F2F1EF"/>
    <rect x="0" y="60" width="1200" height="300" fill="#EAEAE8" opacity="0.7"/>
    <circle cx="420" cy="150" r="34" fill="#E8C87A" opacity="0.9"/>
    <circle cx="620" cy="150" r="34" fill="#E8C87A" opacity="0.9"/>
    <circle cx="820" cy="150" r="34" fill="#E8C87A" opacity="0.9"/>
    <polygon points="180,420 1020,420 1100,760 100,760" fill="#F7F6F4" stroke="#E3E6E8" stroke-width="4"/>
    <polygon points="180,420 1020,420 1040,470 160,470" fill="url(#st-blue-dunes)"/>
    <polygon points="160,470 100,760 140,760 196,470" fill="url(#st-blue-dunes)"/>
    <polygon points="1040,470 1100,760 1060,760 1004,470" fill="url(#st-blue-dunes)"/></svg>