<svg xmlns="http://www.w3.org/2000/svg" viewBox="0 0 1200 800"><defs><pattern id="st-calacatta-oro" patternUnits="userSpaceOnUse" width="300" height="200"><rect width="300" height="200" fill="#F2EFE8"/><polyline points="0,87 50,96 100,64 150,86 200,118 250,79 300,83" fill="none" stroke="#C9A25E" stroke-width="2.0" opacity="0.51" stroke-linecap="round"/><polyline points="0,143 50,192 100,188 150,134 200,137 250,144 300,151" fill="none" stroke="#C9A25E" stroke-width="2.7" opacity="0.43" stroke-linecap="round"/><polyline points="0,87 50,76 100,94 150,84 200,113 250,81 300,110" fill="none" stroke="#9A9C9E" stroke-width="2.0" opacity="0.42" stroke-linecap="round"/><polyline points="0,-18 50,19 100,15 150,13 200,29 250,23 300,-17" fill="none" stroke="#C9A25E" stroke-width="1.4" opacity="0.63" stroke-linecap="round"/><polyline points="0,21 50,40 100,24 150,36 200,13 250,58 300,19" fill="none" stroke="#C9A25E" stroke-width="1.2" opacity="0.33" stroke-linecap="round"/><polyline points="0,198 50,185 100,211 150,187 200,196 250,198 300,147" fill="none" stroke="#9A9C9E" stroke-width="3.8" opacity="0.61" stroke-linecap="round"/><polyline points="0,100 50,86 100,80 150,69 200,62 250,127 300,59" fill="none" stroke="#C9A25E" stroke-width="1.4" opacity="0.66" stroke-linecap="round"/></pattern></defs>
    <rect width="1200" height="800" fill="#F2F1EF"/>
    <rect x="0" y="60" width="1200" height="300" fill="#EAEAE8" opacity="0.7"/>
    <circle cx="420" cy="150" r="34" fill="#E8C87A" opacity="0.9"/>
    <circle cx="620" cy="150" r="34" fill="#E8C87A" opacity="0.9"/>
    <circle cx="820" cy="150" r="34" fill="#E8C87A" opacity="0.9"/>
    <polygon points="180,420 1020,420 1100,760 100,760" fill="#F7F6F4" stroke="#E3E6E8" stroke-width="4"/>
    <polygon points="180,420 1020,420 1040,470 160,470" fill="url(#st-calacatta-oro)"/>
    <polygon points="160,470 100,760 140,760 196,470" fill="url(#st-calacatta-oro)"/>
    <polygon points="1040,470 1100,760 1060,760 1004,470" fill="url(#st-calacatta-oro)"/></svg>