<svg xmlns="http://www.w3.org/2000/svg" viewBox="0 0 1200 800"><defs><pattern id="st-gris-perla" patternUnits="userSpaceOnUse" width="300" height="200"><rect width="300" height="200" fill="#B7B9BA"/><circle cx="21.9" cy="129.0" r="1.6" fill="#D9DADB" opacity="0.74"/><circle cx="255.3" cy="69.6" r="1.1" fill="#8E9192" opacity="0.28"/><circle cx="240.5" cy="47.7" r="2.2" fill="#D9DADB" opacity="0.28"/><circle cx="222.9" cy="123.3" r="1.7" fill="#8E9192" opacity="0.59"/><circle cx="3.3" cy="104.5" r="2.3" fill="#8E9192" opacity="0.31"/><circle cx="71.6" cy="169.5" r="2.2" fill="#8E9192" opacity="0.26"/><circle cx="239.8" cy="22.7" r="2.6" fill="#8E9192" opacity="0.42"/><circle cx="275.5" cy="183.3" r="2.0" fill="#D9DADB" opacity="0.65"/><circle cx="135.2" cy="7.5" r="2.4" fill="#D9DADB" opacity="0.73"/><circle cx="97.7" cy="43.9" r="2.1" fill="#8E9192" opacity="0.26"/><circle cx="197.1" cy="122.9" r="2.8" fill="#D9DADB" opacity="0.36"/><circle cx="156.6" cy="178.3" r="0.6" fill="#D9DADB" opacity="0.25"/><circle cx="121.5" cy="3.5" r="0.6" fill="#8E9192" opacity="0.65"/><circle cx="92.9" cy="139.7" r="2.4" fill="#D9DADB" opacity="0.46"/><circle cx="160.5" cy="98.7" r="1.5" fill="#D9DADB" opacity="0.35"/><circle cx="36.4" cy="118.2" r="2.6" fill="#8E9192" opacity="0.64"/><circle cx="288.1" cy="50.5" r="1.3" fill="#8E9192" opacity="0.51"/><circle cx="172.1" cy="185.3" r="0.9" fill="#D9DADB" opacity="0.58"/><circle cx="167.2" cy="4.6" r="1.6" fill="#D9DADB" opacity="0.27"/><circle cx="207.5" cy="72.0" r="1.6" fill="#8E9192" opacity="0.55"/><circle cx="216.3" cy="54.7" r="1.2" fill="#D9DADB" opacity="0.47"/><circle cx="238.9" cy="79.4" r="2.2" fill="#8E9192" opacity="0.57"/><circle cx="176.3" cy="20.8" r="1.5" fill="#D9DADB" opacity="0.61"/><circle cx="18.2" cy="123.7" r="2.5" fill="#D9DADB" opacity="0.57"/><circle cx="276.7" cy="159.4" r="2.5" fill="#D9DADB" opacity="0.60"/><circle cx="219.4" cy="113.5" r="1.0" fill="#8E9192" opacity="0.74"/><circle cx="202.7" cy="8.9" r="2.8" fill="#8E9192" opacity="0.41"/><circle cx="5.4" cy="61.1" r="2.6" fill="#D9DADB" opacity="0.39"/><circle cx="61.8" cy="166.9" r="2.6" fill="#8E9192" opacity="0.47"/><circle cx="194.9" cy="127.0" r="2.3" fill="#8E9192" opacity="0.55"/><circle cx="50.1" cy="1.2" r="2.7" fill="#D9DADB" opacity="0.49"/><circle cx="28.4" cy="197.6" r="2.1" fill="#D9DADB" opacity="0.36"/><circle cx="19.7" cy="94.6" r="1.1" fill="#D9DADB" opacity="0.52"/><circle cx="135.8" cy="196.5" r="0.7" fill="#D9DADB" opacity="0.43"/><circle cx="144.4" cy="22.3" r="1.8" fill="#D9DADB" opacity="0.45"/><circle cx="2.1" cy="128.4" r="1.8" fill="#D9DADB" opacity="0.36"/><circle cx="287.4" cy="63.5" r="1.4" fill="#D9DADB" opacity="0.26"/><circle cx="134.7" cy="57.7" r="2.0" fill="#8E9192" opacity="0.27"/><circle cx="167.1" cy="45.1" r="2.2" fill="#D9DADB" opacity="0.62"/><circle cx="230.0" cy="18.9" r="2.5" fill="#8E9192" opacity="0.51"/><circle cx="24.3" cy="120.4" r="2.7" fill="#8E9192" opacity="0.36"/><circle cx="239.8" cy="61.3" r="2.5" fill="#D9DADB" opacity="0.33"/><circle cx="288.6" cy="79.4" r="2.2" fill="#8E9192" opacity="0.74"/><circle cx="138.2" cy="27.0" r="2.0" fill="#8E9192" opacity="0.28"/><circle cx="245.2" cy="193.7" r="0.8" fill="#8E9192" opacity="0.55"/><circle cx="188.2" cy="61.6" r="0.7" fill="#D9DADB" opacity="0.48"/><circle cx="201.5" cy="194.3" r="2.3" fill="#8E9192" opacity="0.55"/><circle cx="208.2" cy="59.0" r="1.5" fill="#8E9192" opacity="0.30"/><circle cx="253.7" cy="182.3" r="2.4" fill="#D9DADB" opacity="0.28"/><circle cx="239.0" cy="38.9" r="1.6" fill="#8E9192" opacity="0.72"/><circle cx="153.8" cy="73.9" r="2.8" fill="#8E9192" opacity="0.64"/><circle cx="210.2" cy="58.1" r="0.9" fill="#8E9192" opacity="0.67"/><circle cx="275.8" cy="177.5" r="2.2" fill="#D9DADB" opacity="0.34"/><circle cx="107.1" cy="54.9" r="2.5" fill="#D9DADB" opacity="0.60"/><circle cx="82.7" cy="105.7" r="1.0" fill="#8E9192" opacity="0.70"/><circle cx="36.9" cy="26.8" r="2.1" fill="#8E9192" opacity="0.45"/><circle cx="93.0" cy="18.8" r="0.8" fill="#D9DADB" opacity="0.73"/><circle cx="196.1" cy="141.6" r="2.7" fill="#D9DADB" opacity="0.41"/><circle cx="147.4" cy="3.3" r="1.5" fill="#D9DADB" opacity="0.58"/><circle cx="136.5" cy="182.2" r="2.4" fill="#8E9192" opacity="0.56"/><circle cx="275.5" cy="182.7" r="1.8" fill="#D9DADB" opacity="0.34"/><circle cx="32.1" cy="123.9" r="0.7" fill="#8E9192" opacity="0.27"/><circle cx="262.7" cy="161.9" r="0.8" fill="#D9DADB" opacity="0.64"/><circle cx="45.9" cy="45.5" r="0.7" fill="#8E9192" opacity="0.53"/><circle cx="16.2" cy="5.0" r="1.9" fill="#D9DADB" opacity="0.58"/><circle cx="196.5" cy="174.4" r="2.8" fill="#D9DADB" opacity="0.51"/><circle cx="132.3" cy="146.8" r="1.9" fill="#D9DADB" opacity="0.53"/><circle cx="124.5" cy="63.5" r="0.9" fill="#D9DADB" opacity="0.54"/><circle cx="262.9" cy="36.4" r="2.0" fill="#D9DADB" opacity="0.72"/><circle cx="259.6" cy="103.1" r="1.0" fill="#8E9192" opacity="0.37"/><circle cx="82.2" cy="116.0" r="2.4" fill="#8E9192" opacity="0.70"/><circle cx="187.0" cy="164.7" r="0.7" fill="#D9DADB" opacity="0.30"/><circle cx="152.9" cy="131.2" r="2.6" fill="#8E9192" opacity="0.61"/><circle cx="214.1" cy="179.2" r="2.1" fill="#8E9192" opacity="0.58"/><circle cx="293.8" cy="175.8" r="1.4" fill="#D9DADB" opacity="0.29"/><circle cx="137.2" cy="47.7" r="2.6" fill="#D9DADB" opacity="0.27"/><circle cx="245.4" cy="69.6" r="2.4" fill="#D9DADB" opacity="0.75"/><circle cx="8.1" cy="86.5" r="2.1" fill="#D9DADB" opacity="0.74"/><circle cx="237.5" cy="69.3" r="1.2" fill="#8E9192" opacity="0.40"/><circle cx="201.0" cy="4.0" r="1.3" fill="#8E9192" opacity="0.73"/><circle cx="255.1" cy="113.3" r="0.6" fill="#D9DADB" opacity="0.69"/><circle cx="178.7" cy="12.7" r="0.6" fill="#D9DADB" opacity="0.54"/><circle cx="105.9" cy="199.1" r="1.2" fill="#D9DADB" opacity="0.58"/><circle cx="159.8" cy="73.1" r="1.7" fill="#8E9192" opacity="0.68"/><circle cx="285.9" cy="94.5" r="1.2" fill="#D9DADB" opacity="0.74"/><circle cx="285.0" cy="71.5" r="2.2" fill="#D9DADB" opacity="0.32"/><circle cx="47.1" cy="182.3" r="1.0" fill="#8E9192" opacity="0.26"/><circle cx="284.0" cy="131.4" r="0.8" fill="#8E9192" opacity="0.54"/><circle cx="163.5" cy="37.9" r="2.4" fill="#8E9192" opacity="0.51"/><circle cx="242.0" cy="57.8" r="1.0" fill="#8E9192" opacity="0.45"/><circle cx="198.2" cy="140.1" r="1.9" fill="#D9DADB" opacity="0.47"/><circle cx="66.3" cy="114.9" r="1.9" fill="#8E9192" opacity="0.68"/><circle cx="169.6" cy="116.2" r="1.9" fill="#8E9192" opacity="0.32"/><circle cx="53.3" cy="137.2" r="2.4" fill="#D9DADB" opacity="0.58"/><circle cx="18.4" cy="119.2" r="0.9" fill="#D9DADB" opacity="0.38"/><circle cx="154.8" cy="174.1" r="1.6" fill="#D9DADB" opacity="0.39"/><circle cx="174.4" cy="139.3" r="2.6" fill="#D9DADB" opacity="0.41"/><circle cx="44.8" cy="67.5" r="1.8" fill="#D9DADB" opacity="0.65"/><circle cx="222.6" cy="48.1" r="2.5" fill="#D9DADB" opacity="0.70"/><circle cx="286.4" cy="163.3" r="2.5" fill="#D9DADB" opacity="0.51"/><circle cx="170.6" cy="176.5" r="2.5" fill="#D9DADB" opacity="0.53"/><circle cx="98.1" cy="155.1" r="2.6" fill="#D9DADB" opacity="0.31"/><circle cx="114.5" cy="25.6" r="2.5" fill="#D9DADB" opacity="0.41"/><circle cx="120.6" cy="62.8" r="1.2" fill="#D9DADB" opacity="0.55"/><circle cx="106.2" cy="111.6" r="2.1" fill="#D9DADB" opacity="0.25"/><circle cx="283.5" cy="143.1" r="2.6" fill="#8E9192" opacity="0.65"/><circle cx="219.9" cy="143.0" r="2.2" fill="#8E9192" opacity="0.28"/><circle cx="272.0" cy="134.3" r="1.2" fill="#8E9192" opacity="0.57"/><circle cx="218.4" cy="132.3" r="0.9" fill="#8E9192" opacity="0.29"/><circle cx="193.5" cy="33.9" r="1.5" fill="#8E9192" opacity="0.74"/><circle cx="20.4" cy="39.9" r="2.2" fill="#D9DADB" opacity="0.30"/><circle cx="244.4" cy="9.9" r="2.0" fill="#8E9192" opacity="0.35"/><circle cx="66.5" cy="152.2" r="1.4" fill="#D9DADB" opacity="0.47"/><circle cx="276.4" cy="45.0" r="0.9" fill="#D9DADB" opacity="0.49"/><circle cx="86.3" cy="192.7" r="1.6" fill="#D9DADB" opacity="0.39"/><circle cx="163.7" cy="114.4" r="2.1" fill="#D9DADB" opacity="0.52"/><circle cx="165.1" cy="166.3" r="2.0" fill="#D9DADB" opacity="0.67"/><circle cx="69.2" cy="97.1" r="2.1" fill="#8E9192" opacity="0.43"/><circle cx="210.3" cy="137.2" r="1.5" fill="#D9DADB" opacity="0.43"/><circle cx="11.4" cy="20.5" r="1.1" fill="#8E9192" opacity="0.40"/><circle cx="218.1" cy="140.1" r="1.4" fill="#D9DADB" opacity="0.53"/><circle cx="231.1" cy="37.4" r="2.1" fill="#8E9192" opacity="0.75"/><circle cx="140.4" cy="24.2" r="0.8" fill="#D9DADB" opacity="0.71"/><circle cx="257.9" cy="138.1" r="2.1" fill="#8E9192" opacity="0.73"/><circle cx="251.3" cy="31.5" r="1.9" fill="#8E9192" opacity="0.51"/><circle cx="277.0" cy="194.1" r="1.1" fill="#D9DADB" opacity="0.64"/><circle cx="213.7" cy="107.8" r="2.0" fill="#D9DADB" opacity="0.57"/><circle cx="295.7" cy="136.3" r="0.9" fill="#D9DADB" opacity="0.75"/><circle cx="146.2" cy="146.9" r="2.3" fill="#D9DADB" opacity="0.74"/><circle cx="110.5" cy="66.0" r="1.4" fill="#D9DADB" opacity="0.58"/><circle cx="89.5" cy="168.4" r="1.7" fill="#D9DADB" opacity="0.52"/><circle cx="73.1" cy="99.2" r="2.3" fill="#D9DADB" opacity="0.55"/><circle cx="273.2" cy="29.3" r="2.6" fill="#D9DADB" opacity="0.32"/><circle cx="257.6" cy="144.5" r="2.2" fill="#8E9192" opacity="0.35"/><circle cx="82.6" cy="67.7" r="1.3" fill="#D9DADB" opacity="0.60"/><circle cx="126.9" cy="14.3" r="1.4" fill="#8E9192" opacity="0.32"/><circle cx="224.9" cy="81.3" r="2.5" fill="#D9DADB" opacity="0.30"/><circle cx="199.7" cy="69.1" r="1.7" fill="#8E9192" opacity="0.45"/><circle cx="296.6" cy="37.8" r="2.4" fill="#D9DADB" opacity="0.62"/><circle cx="16.6" cy="195.3" r="0.7" fill="#8E9192" opacity="0.40"/><circle cx="149.5" cy="120.1" r="1.5" fill="#8E9192" opacity="0.62"/><circle cx="207.3" cy="116.4" r="1.4" fill="#8E9192" opacity="0.27"/><circle cx="257.6" cy="103.4" r="1.3" fill="#8E9192" opacity="0.69"/><circle cx="256.9" cy="37.2" r="0.8" fill="#D9DADB" opacity="0.67"/><circle cx="184.0" cy="66.7" r="0.7" fill="#8E9192" opacity="0.31"/><circle cx="72.9" cy="22.1" r="2.4" fill="#8E9192" opacity="0.72"/><circle cx="247.0" cy="37.2" r="2.2" fill="#8E9192" opacity="0.64"/><circle cx="251.6" cy="105.4" r="0.6" fill="#8E9192" opacity="0.27"/><circle cx="87.5" cy="168.1" r="1.8" fill="#D9DADB" opacity="0.52"/><circle cx="144.7" cy="136.8" r="1.2" fill="#D9DADB" opacity="0.56"/><circle cx="135.1" cy="49.3" r="1.2" fill="#D9DADB" opacity="0.71"/><circle cx="26.4" cy="158.0" r="2.1" fill="#D9DADB" opacity="0.64"/><circle cx="275.1" cy="152.5" r="2.6" fill="#D9DADB" opacity="0.49"/><circle cx="159.7" cy="114.9" r="2.8" fill="#D9DADB" opacity="0.66"/><circle cx="214.6" cy="8.7" r="1.1" fill="#D9DADB" opacity="0.63"/><circle cx="63.0" cy="101.2" r="2.0" fill="#D9DADB" opacity="0.45"/><circle cx="50.2" cy="118.9" r="1.0" fill="#8E9192" opacity="0.66"/><circle cx="77.2" cy="136.6" r="1.3" fill="#D9DADB" opacity="0.51"/><circle cx="133.7" cy="199.3" r="2.0" fill="#8E9192" opacity="0.49"/><circle cx="131.7" cy="78.0" r="2.7" fill="#D9DADB" opacity="0.26"/><circle cx="239.0" cy="158.5" r="2.8" fill="#D9DADB" opacity="0.34"/><circle cx="211.9" cy="63.7" r="2.6" fill="#8E9192" opacity="0.66"/><circle cx="129.2" cy="8.9" r="1.5" fill="#D9DADB" opacity="0.50"/><circle cx="125.1" cy="91.1" r="1.4" fill="#D9DADB" opacity="0.65"/><circle cx="22.8" cy="110.9" r="1.9" fill="#D9DADB" opacity="0.50"/><circle cx="67.7" cy="128.2" r="1.9" fill="#D9DADB" opacity="0.42"/><circle cx="60.6" cy="151.0" r="1.8" fill="#8E9192" opacity="0.49"/><circle cx="191.4" cy="157.7" r="2.2" fill="#D9DADB" opacity="0.54"/><circle cx="272.1" cy="52.6" r="1.9" fill="#D9DADB" opacity="0.56"/><circle cx="70.3" cy="154.9" r="1.8" fill="#8E9192" opacity="0.39"/><circle cx="142.5" cy="20.7" r="1.5" fill="#8E9192" opacity="0.33"/><circle cx="167.5" cy="198.8" r="1.7" fill="#D9DADB" opacity="0.46"/><circle cx="179.3" cy="119.4" r="1.7" fill="#8E9192" opacity="0.41"/><circle cx="201.3" cy="116.5" r="2.2" fill="#D9DADB" opacity="0.41"/><circle cx="78.8" cy="183.3" r="1.6" fill="#D9DADB" opacity="0.66"/><circle cx="112.7" cy="61.2" r="1.7" fill="#8E9192" opacity="0.58"/><circle cx="92.8" cy="61.9" r="2.3" fill="#8E9192" opacity="0.32"/><circle cx="31.2" cy="23.0" r="1.6" fill="#D9DADB" opacity="0.72"/><circle cx="195.4" cy="197.0" r="1.9" fill="#D9DADB" opacity="0.44"/><circle cx="141.9" cy="73.5" r="2.0" fill="#D9DADB" opacity="0.61"/><circle cx="49.5" cy="134.4" r="2.0" fill="#D9DADB" opacity="0.66"/><circle cx="152.3" cy="143.5" r="2.5" fill="#8E9192" opacity="0.54"/><circle cx="73.6" cy="167.9" r="1.4" fill="#D9DADB" opacity="0.31"/><circle cx="158.7" cy="134.3" r="0.7" fill="#D9DADB" opacity="0.52"/><circle cx="8.6" cy="117.3" r="1.5" fill="#D9DADB" opacity="0.41"/><circle cx="213.0" cy="161.9" r="0.8" fill="#8E9192" opacity="0.47"/><circle cx="84.0" cy="39.3" r="2.4" fill="#D9DADB" opacity="0.36"/><circle cx="89.2" cy="135.0" r="1.3" fill="#D9DADB" opacity="0.60"/><circle cx="285.0" cy="72.1" r="2.4" fill="#D9DADB" opacity="0.63"/><circle cx="150.2" cy="66.0" r="2.7" fill="#D9DADB" opacity="0.72"/><circle cx="119.0" cy="13.4" r="2.1" fill="#D9DADB" opacity="0.65"/><circle cx="14.7" cy="115.2" r="2.2" fill="#D9DADB" opacity="0.33"/><circle cx="82.4" cy="31.1" r="2.0" fill="#8E9192" opacity="0.62"/><circle cx="123.2" cy="169.2" r="1.9" fill="#8E9192" opacity="0.61"/><circle cx="26.9" cy="107.8" r="2.5" fill="#8E9192" opacity="0.61"/><circle cx="205.6" cy="151.3" r="2.5" fill="#8E9192" opacity="0.63"/><circle cx="126.7" cy="18.9" r="0.8" fill="#8E9192" opacity="0.50"/><circle cx="46.9" cy="66.6" r="1.2" fill="#D9DADB" opacity="0.52"/><circle cx="244.7" cy="43.3" r="2.3" fill="#8E9192" opacity="0.27"/><circle cx="154.5" cy="179.2" r="1.2" fill="#D9DADB" opacity="0.38"/><circle cx="99.4" cy="8.3" r="0.8" fill="#8E9192" opacity="0.59"/><circle cx="224.8" cy="123.7" r="1.6" fill="#8E9192" opacity="0.59"/><circle cx="231.6" cy="66.9" r="1.1" fill="#D9DADB" opacity="0.29"/><circle cx="209.6" cy="149.5" r="1.4" fill="#D9DADB" opacity="0.37"/><circle cx="170.9" cy="9.2" r="2.7" fill="#D9DADB" opacity="0.63"/><circle cx="83.0" cy="98.5" r="0.7" fill="#8E9192" opacity="0.27"/><circle cx="102.5" cy="106.9" r="1.0" fill="#D9DADB" opacity="0.39"/><circle cx="108.0" cy="116.5" r="1.3" fill="#8E9192" opacity="0.43"/><circle cx="33.7" cy="90.8" r="2.4" fill="#D9DADB" opacity="0.35"/><circle cx="103.0" cy="97.2" r="2.0" fill="#D9DADB" opacity="0.71"/><circle cx="61.0" cy="62.2" r="2.2" fill="#D9DADB" opacity="0.54"/><circle cx="108.8" cy="60.5" r="1.9" fill="#D9DADB" opacity="0.59"/><circle cx="236.1" cy="137.1" r="2.4" fill="#8E9192" opacity="0.36"/><circle cx="55.0" cy="63.0" r="1.1" fill="#D9DADB" opacity="0.50"/><circle cx="33.1" cy="24.0" r="1.7" fill="#D9DADB" opacity="0.52"/><circle cx="226.8" cy="43.1" r="2.4" fill="#8E9192" opacity="0.38"/><circle cx="115.0" cy="135.5" r="2.5" fill="#8E9192" opacity="0.34"/><circle cx="131.7" cy="198.3" r="1.9" fill="#D9DADB" opacity="0.69"/><circle cx="100.2" cy="32.0" r="2.1" fill="#8E9192" opacity="0.32"/><circle cx="265.9" cy="96.5" r="2.3" fill="#8E9192" opacity="0.61"/></pattern></defs>
    <rect width="1200" height="800" fill="#F2F1EF"/>
    <rect x="0" y="60" width="1200" height="300" fill="#EAEAE8" opacity="0.7"/>
    <circle cx="420" cy="150" r="34" fill="#E8C87A" opacity="0.9"/>
    <circle cx="620" cy="150" r="34" fill="#E8C87A" opacity="0.9"/>
    <circle cx="820" cy="150" r="34" fill="#E8C87A" opacity="0.9"/>
    <polygon points="180,420 1020,420 1100,760 100,760" fill="#F7F6F4" stroke="#E3E6E8" stroke-width="4"/>
    <polygon points="180,420 1020,420 1040,470 160,470" fill="url(#st-gris-perla)"/>
    <polygon points="160,470 100,760 140,760 196,470" fill="url(#st-gris-perla)"/>
    <polygon points="1040,470 1100,760 1060,760 1004,470" fill="url(#st-gris-perla)"/></svg>