<svg xmlns="http://www.w3.org/2000/svg" viewBox="0 0 1200 800"><defs><pattern id="st-negro-absoluto" patternUnits="userSpaceOnUse" width="300" height="200"><rect width="300" height="200" fill="#232526"/><circle cx="119.5" cy="52.2" r="1.2" fill="#2E3132" opacity="0.43"/><circle cx="274.1" cy="20.4" r="0.8" fill="#1B1D1E" opacity="0.31"/><circle cx="260.0" cy="183.1" r="0.9" fill="#1B1D1E" opacity="0.31"/><circle cx="167.2" cy="51.8" r="1.4" fill="#2E3132" opacity="0.60"/><circle cx="7.6" cy="64.3" r="2.5" fill="#2E3132" opacity="0.50"/><circle cx="48.9" cy="73.0" r="2.2" fill="#1B1D1E" opacity="0.68"/><circle cx="147.6" cy="167.5" r="1.6" fill="#1B1D1E" opacity="0.27"/><circle cx="182.2" cy="29.9" r="0.7" fill="#2E3132" opacity="0.70"/><circle cx="87.1" cy="23.7" r="2.4" fill="#1B1D1E" opacity="0.41"/><circle cx="85.5" cy="16.2" r="2.2" fill="#2E3132" opacity="0.49"/><circle cx="222.7" cy="133.9" r="2.3" fill="#2E3132" opacity="0.45"/><circle cx="99.7" cy="51.6" r="1.4" fill="#2E3132" opacity="0.55"/><circle cx="6.2" cy="14.3" r="1.1" fill="#2E3132" opacity="0.28"/><circle cx="154.2" cy="193.0" r="0.7" fill="#2E3132" opacity="0.30"/><circle cx="111.5" cy="173.5" r="1.8" fill="#2E3132" opacity="0.62"/><circle cx="234.4" cy="178.7" r="2.8" fill="#1B1D1E" opacity="0.70"/><circle cx="1.7" cy="23.9" r="2.7" fill="#1B1D1E" opacity="0.29"/><circle cx="147.6" cy="6.1" r="1.6" fill="#2E3132" opacity="0.69"/><circle cx="195.3" cy="125.9" r="0.9" fill="#1B1D1E" opacity="0.28"/><circle cx="90.2" cy="43.2" r="2.0" fill="#2E3132" opacity="0.46"/><circle cx="233.1" cy="166.0" r="0.8" fill="#2E3132" opacity="0.27"/><circle cx="213.9" cy="72.7" r="2.3" fill="#2E3132" opacity="0.58"/><circle cx="144.6" cy="67.6" r="1.0" fill="#2E3132" opacity="0.34"/><circle cx="92.8" cy="69.9" r="2.0" fill="#2E3132" opacity="0.43"/><circle cx="15.0" cy="35.7" r="2.8" fill="#2E3132" opacity="0.62"/><circle cx="190.0" cy="113.8" r="1.9" fill="#2E3132" opacity="0.50"/><circle cx="51.8" cy="134.4" r="0.8" fill="#2E3132" opacity="0.70"/><circle cx="223.8" cy="31.5" r="2.4" fill="#2E3132" opacity="0.45"/><circle cx="251.3" cy="198.3" r="0.6" fill="#1B1D1E" opacity="0.45"/><circle cx="135.2" cy="176.2" r="1.8" fill="#1B1D1E" opacity="0.62"/><circle cx="265.3" cy="76.9" r="1.4" fill="#2E3132" opacity="0.61"/><circle cx="53.7" cy="138.0" r="1.8" fill="#2E3132" opacity="0.25"/><circle cx="67.9" cy="12.0" r="0.9" fill="#1B1D1E" opacity="0.73"/><circle cx="164.4" cy="188.5" r="2.2" fill="#2E3132" opacity="0.65"/><circle cx="222.0" cy="149.4" r="1.1" fill="#1B1D1E" opacity="0.44"/><circle cx="174.8" cy="58.5" r="2.7" fill="#1B1D1E" opacity="0.57"/><circle cx="246.1" cy="182.9" r="2.7" fill="#1B1D1E" opacity="0.60"/><circle cx="181.2" cy="49.3" r="0.9" fill="#1B1D1E" opacity="0.56"/><circle cx="181.1" cy="132.3" r="2.8" fill="#2E3132" opacity="0.70"/><circle cx="235.5" cy="76.9" r="0.9" fill="#1B1D1E" opacity="0.51"/><circle cx="256.5" cy="54.3" r="1.4" fill="#1B1D1E" opacity="0.65"/><circle cx="111.7" cy="50.0" r="1.5" fill="#2E3132" opacity="0.64"/><circle cx="157.5" cy="87.1" r="1.5" fill="#2E3132" opacity="0.42"/><circle cx="172.7" cy="181.0" r="0.7" fill="#2E3132" opacity="0.25"/><circle cx="291.5" cy="28.4" r="1.2" fill="#2E3132" opacity="0.44"/><circle cx="37.2" cy="30.2" r="2.4" fill="#2E3132" opacity="0.37"/><circle cx="254.9" cy="46.1" r="1.1" fill="#2E3132" opacity="0.41"/><circle cx="145.7" cy="84.2" r="2.1" fill="#1B1D1E" opacity="0.64"/><circle cx="199.4" cy="122.8" r="1.5" fill="#2E3132" opacity="0.40"/><circle cx="228.1" cy="66.3" r="2.7" fill="#1B1D1E" opacity="0.66"/><circle cx="299.2" cy="33.9" r="2.0" fill="#2E3132" opacity="0.29"/><circle cx="69.4" cy="181.6" r="1.4" fill="#2E3132" opacity="0.55"/><circle cx="117.2" cy="58.3" r="1.4" fill="#2E3132" opacity="0.55"/><circle cx="177.0" cy="94.2" r="1.4" fill="#2E3132" opacity="0.42"/><circle cx="271.9" cy="23.3" r="2.0" fill="#2E3132" opacity="0.38"/><circle cx="247.3" cy="38.7" r="1.7" fill="#1B1D1E" opacity="0.63"/><circle cx="104.1" cy="81.9" r="2.4" fill="#1B1D1E" opacity="0.58"/><circle cx="232.1" cy="64.5" r="1.5" fill="#1B1D1E" opacity="0.40"/><circle cx="43.4" cy="24.2" r="1.7" fill="#1B1D1E" opacity="0.42"/><circle cx="105.5" cy="13.5" r="0.9" fill="#1B1D1E" opacity="0.30"/><circle cx="275.0" cy="121.9" r="2.3" fill="#1B1D1E" opacity="0.68"/><circle cx="130.5" cy="31.5" r="1.5" fill="#2E3132" opacity="0.47"/><circle cx="206.2" cy="105.8" r="1.5" fill="#1B1D1E" opacity="0.64"/><circle cx="125.5" cy="12.2" r="2.2" fill="#2E3132" opacity="0.75"/><circle cx="233.5" cy="77.2" r="1.3" fill="#1B1D1E" opacity="0.33"/><circle cx="131.3" cy="175.5" r="2.1" fill="#2E3132" opacity="0.63"/><circle cx="108.6" cy="152.1" r="1.5" fill="#2E3132" opacity="0.65"/><circle cx="77.5" cy="178.0" r="1.3" fill="#2E3132" opacity="0.53"/><circle cx="205.6" cy="39.0" r="0.8" fill="#1B1D1E" opacity="0.31"/><circle cx="249.3" cy="158.1" r="2.6" fill="#1B1D1E" opacity="0.42"/><circle cx="287.5" cy="150.5" r="1.6" fill="#2E3132" opacity="0.63"/><circle cx="154.2" cy="113.3" r="2.1" fill="#2E3132" opacity="0.73"/><circle cx="272.7" cy="47.0" r="1.2" fill="#2E3132" opacity="0.61"/><circle cx="288.4" cy="11.5" r="2.4" fill="#1B1D1E" opacity="0.65"/><circle cx="2.2" cy="14.8" r="1.8" fill="#2E3132" opacity="0.42"/><circle cx="203.8" cy="35.4" r="2.0" fill="#2E3132" opacity="0.25"/><circle cx="105.3" cy="177.6" r="1.8" fill="#2E3132" opacity="0.64"/><circle cx="74.4" cy="160.4" r="2.3" fill="#1B1D1E" opacity="0.43"/><circle cx="67.5" cy="140.1" r="0.6" fill="#2E3132" opacity="0.40"/><circle cx="63.2" cy="65.4" r="2.1" fill="#1B1D1E" opacity="0.65"/><circle cx="95.9" cy="166.6" r="1.5" fill="#2E3132" opacity="0.30"/><circle cx="188.8" cy="177.6" r="1.8" fill="#2E3132" opacity="0.58"/><circle cx="187.1" cy="91.6" r="1.3" fill="#2E3132" opacity="0.71"/><circle cx="91.8" cy="50.1" r="1.9" fill="#2E3132" opacity="0.57"/><circle cx="292.7" cy="164.6" r="1.3" fill="#1B1D1E" opacity="0.35"/><circle cx="201.9" cy="73.0" r="1.8" fill="#1B1D1E" opacity="0.36"/><circle cx="87.0" cy="27.5" r="1.5" fill="#2E3132" opacity="0.29"/><circle cx="104.3" cy="117.9" r="1.4" fill="#1B1D1E" opacity="0.74"/><circle cx="132.7" cy="26.1" r="1.6" fill="#2E3132" opacity="0.65"/><circle cx="106.4" cy="115.7" r="2.6" fill="#1B1D1E" opacity="0.49"/><circle cx="248.6" cy="54.0" r="2.4" fill="#1B1D1E" opacity="0.30"/><circle cx="4.5" cy="167.6" r="0.7" fill="#1B1D1E" opacity="0.63"/><circle cx="175.2" cy="131.1" r="1.0" fill="#1B1D1E" opacity="0.72"/><circle cx="150.4" cy="189.7" r="2.2" fill="#1B1D1E" opacity="0.56"/><circle cx="142.3" cy="114.2" r="1.8" fill="#2E3132" opacity="0.32"/><circle cx="18.3" cy="90.6" r="1.3" fill="#2E3132" opacity="0.51"/><circle cx="134.9" cy="141.5" r="1.0" fill="#1B1D1E" opacity="0.58"/><circle cx="271.0" cy="82.6" r="2.6" fill="#1B1D1E" opacity="0.28"/><circle cx="260.6" cy="10.6" r="1.4" fill="#2E3132" opacity="0.42"/><circle cx="227.1" cy="126.3" r="1.3" fill="#2E3132" opacity="0.38"/><circle cx="115.7" cy="89.4" r="1.2" fill="#2E3132" opacity="0.54"/><circle cx="27.3" cy="108.0" r="1.6" fill="#1B1D1E" opacity="0.47"/><circle cx="151.9" cy="160.5" r="0.9" fill="#1B1D1E" opacity="0.52"/><circle cx="1.3" cy="151.3" r="2.2" fill="#1B1D1E" opacity="0.65"/><circle cx="243.3" cy="199.4" r="2.1" fill="#1B1D1E" opacity="0.72"/><circle cx="234.3" cy="61.0" r="2.3" fill="#2E3132" opacity="0.52"/><circle cx="253.0" cy="84.9" r="1.4" fill="#2E3132" opacity="0.64"/><circle cx="33.6" cy="101.4" r="0.7" fill="#1B1D1E" opacity="0.71"/><circle cx="199.4" cy="44.4" r="1.2" fill="#1B1D1E" opacity="0.45"/><circle cx="295.6" cy="107.0" r="1.1" fill="#1B1D1E" opacity="0.57"/><circle cx="23.2" cy="30.7" r="2.2" fill="#1B1D1E" opacity="0.47"/><circle cx="72.1" cy="127.2" r="2.3" fill="#2E3132" opacity="0.33"/><circle cx="154.2" cy="34.2" r="1.5" fill="#1B1D1E" opacity="0.46"/><circle cx="237.1" cy="4.1" r="2.3" fill="#2E3132" opacity="0.55"/><circle cx="177.4" cy="126.3" r="1.2" fill="#1B1D1E" opacity="0.71"/><circle cx="153.7" cy="83.1" r="0.6" fill="#2E3132" opacity="0.37"/><circle cx="100.3" cy="38.0" r="1.1" fill="#1B1D1E" opacity="0.49"/><circle cx="240.4" cy="58.3" r="2.7" fill="#1B1D1E" opacity="0.63"/><circle cx="19.3" cy="70.5" r="0.9" fill="#1B1D1E" opacity="0.33"/><circle cx="237.9" cy="149.3" r="1.1" fill="#1B1D1E" opacity="0.33"/><circle cx="286.0" cy="139.8" r="2.5" fill="#2E3132" opacity="0.64"/><circle cx="75.8" cy="12.9" r="2.4" fill="#2E3132" opacity="0.39"/><circle cx="74.7" cy="154.6" r="2.4" fill="#1B1D1E" opacity="0.62"/><circle cx="39.3" cy="187.5" r="0.7" fill="#2E3132" opacity="0.26"/><circle cx="48.2" cy="127.1" r="1.0" fill="#1B1D1E" opacity="0.59"/><circle cx="235.8" cy="70.5" r="0.9" fill="#1B1D1E" opacity="0.39"/><circle cx="125.2" cy="18.1" r="2.0" fill="#2E3132" opacity="0.56"/><circle cx="261.7" cy="29.8" r="1.2" fill="#1B1D1E" opacity="0.46"/><circle cx="146.3" cy="113.7" r="1.1" fill="#2E3132" opacity="0.69"/><circle cx="268.7" cy="48.2" r="2.1" fill="#2E3132" opacity="0.56"/><circle cx="141.1" cy="137.5" r="1.1" fill="#2E3132" opacity="0.56"/><circle cx="131.0" cy="100.9" r="0.9" fill="#2E3132" opacity="0.55"/><circle cx="194.9" cy="94.5" r="1.3" fill="#2E3132" opacity="0.31"/><circle cx="11.5" cy="67.0" r="0.7" fill="#1B1D1E" opacity="0.42"/><circle cx="215.0" cy="48.7" r="0.6" fill="#2E3132" opacity="0.53"/><circle cx="228.7" cy="173.6" r="1.8" fill="#1B1D1E" opacity="0.35"/><circle cx="197.8" cy="34.9" r="2.6" fill="#1B1D1E" opacity="0.58"/><circle cx="123.4" cy="173.9" r="2.6" fill="#1B1D1E" opacity="0.65"/><circle cx="95.2" cy="102.4" r="1.7" fill="#1B1D1E" opacity="0.72"/><circle cx="125.2" cy="57.9" r="2.4" fill="#2E3132" opacity="0.59"/><circle cx="181.1" cy="93.1" r="2.6" fill="#2E3132" opacity="0.47"/><circle cx="119.3" cy="97.3" r="1.2" fill="#2E3132" opacity="0.46"/><circle cx="118.5" cy="152.7" r="2.6" fill="#1B1D1E" opacity="0.49"/><circle cx="113.0" cy="22.9" r="0.9" fill="#1B1D1E" opacity="0.53"/><circle cx="26.0" cy="175.1" r="2.7" fill="#2E3132" opacity="0.62"/><circle cx="202.8" cy="135.9" r="1.2" fill="#1B1D1E" opacity="0.32"/><circle cx="244.3" cy="180.0" r="1.9" fill="#2E3132" opacity="0.36"/><circle cx="140.4" cy="152.4" r="1.8" fill="#1B1D1E" opacity="0.74"/><circle cx="103.0" cy="24.2" r="2.6" fill="#2E3132" opacity="0.62"/><circle cx="299.9" cy="181.1" r="1.5" fill="#2E3132" opacity="0.51"/><circle cx="187.4" cy="45.9" r="1.1" fill="#2E3132" opacity="0.36"/><circle cx="144.2" cy="34.2" r="0.6" fill="#2E3132" opacity="0.43"/><circle cx="4.7" cy="42.8" r="2.2" fill="#2E3132" opacity="0.52"/><circle cx="192.0" cy="72.3" r="0.7" fill="#2E3132" opacity="0.52"/><circle cx="51.4" cy="182.7" r="1.9" fill="#1B1D1E" opacity="0.29"/><circle cx="283.9" cy="181.9" r="1.7" fill="#1B1D1E" opacity="0.43"/><circle cx="179.3" cy="48.3" r="0.8" fill="#2E3132" opacity="0.26"/><circle cx="149.6" cy="86.2" r="2.2" fill="#1B1D1E" opacity="0.26"/><circle cx="262.4" cy="14.9" r="2.6" fill="#2E3132" opacity="0.28"/><circle cx="174.2" cy="190.4" r="1.5" fill="#1B1D1E" opacity="0.62"/><circle cx="163.7" cy="161.6" r="1.9" fill="#2E3132" opacity="0.35"/><circle cx="265.2" cy="158.6" r="0.7" fill="#1B1D1E" opacity="0.62"/><circle cx="201.8" cy="115.4" r="0.9" fill="#2E3132" opacity="0.65"/><circle cx="118.9" cy="25.3" r="0.9" fill="#2E3132" opacity="0.63"/><circle cx="17.3" cy="29.6" r="2.6" fill="#2E3132" opacity="0.49"/><circle cx="287.0" cy="40.0" r="1.3" fill="#1B1D1E" opacity="0.38"/><circle cx="39.9" cy="94.1" r="1.8" fill="#1B1D1E" opacity="0.63"/><circle cx="143.7" cy="44.6" r="2.0" fill="#1B1D1E" opacity="0.42"/><circle cx="154.8" cy="180.7" r="0.8" fill="#2E3132" opacity="0.37"/><circle cx="252.0" cy="184.7" r="2.5" fill="#1B1D1E" opacity="0.40"/><circle cx="69.4" cy="20.2" r="1.3" fill="#2E3132" opacity="0.47"/><circle cx="130.3" cy="154.4" r="1.6" fill="#1B1D1E" opacity="0.64"/><circle cx="180.0" cy="113.8" r="1.0" fill="#1B1D1E" opacity="0.46"/><circle cx="119.5" cy="173.1" r="0.7" fill="#2E3132" opacity="0.66"/><circle cx="238.4" cy="177.5" r="1.8" fill="#1B1D1E" opacity="0.25"/><circle cx="149.0" cy="97.9" r="1.9" fill="#1B1D1E" opacity="0.37"/><circle cx="18.8" cy="120.1" r="2.5" fill="#2E3132" opacity="0.55"/><circle cx="204.2" cy="66.9" r="1.6" fill="#1B1D1E" opacity="0.73"/><circle cx="184.0" cy="153.8" r="0.9" fill="#1B1D1E" opacity="0.68"/><circle cx="92.4" cy="77.6" r="2.5" fill="#2E3132" opacity="0.68"/><circle cx="52.6" cy="39.1" r="1.2" fill="#1B1D1E" opacity="0.63"/><circle cx="9.9" cy="98.1" r="2.7" fill="#2E3132" opacity="0.41"/><circle cx="65.4" cy="62.5" r="0.9" fill="#2E3132" opacity="0.58"/><circle cx="108.6" cy="110.9" r="0.7" fill="#1B1D1E" opacity="0.48"/><circle cx="251.9" cy="147.5" r="0.8" fill="#2E3132" opacity="0.61"/><circle cx="262.6" cy="91.4" r="2.3" fill="#1B1D1E" opacity="0.30"/><circle cx="97.3" cy="98.9" r="2.5" fill="#2E3132" opacity="0.34"/><circle cx="34.8" cy="118.6" r="2.1" fill="#1B1D1E" opacity="0.32"/><circle cx="109.1" cy="180.9" r="2.5" fill="#2E3132" opacity="0.38"/><circle cx="43.6" cy="19.7" r="2.3" fill="#1B1D1E" opacity="0.73"/><circle cx="283.6" cy="28.2" r="2.2" fill="#1B1D1E" opacity="0.59"/><circle cx="230.0" cy="147.8" r="1.6" fill="#2E3132" opacity="0.36"/><circle cx="272.6" cy="90.1" r="2.7" fill="#1B1D1E" opacity="0.71"/><circle cx="123.4" cy="92.9" r="1.4" fill="#2E3132" opacity="0.45"/><circle cx="50.2" cy="8.6" r="2.1" fill="#2E3132" opacity="0.28"/><circle cx="209.2" cy="126.7" r="1.6" fill="#2E3132" opacity="0.31"/><circle cx="179.3" cy="129.3" r="2.0" fill="#2E3132" opacity="0.45"/><circle cx="194.6" cy="180.0" r="1.9" fill="#2E3132" opacity="0.69"/><circle cx="178.4" cy="146.1" r="1.3" fill="#2E3132" opacity="0.57"/><circle cx="176.0" cy="154.2" r="2.1" fill="#1B1D1E" opacity="0.64"/><circle cx="88.4" cy="78.8" r="1.2" fill="#2E3132" opacity="0.63"/><circle cx="205.3" cy="165.1" r="2.0" fill="#1B1D1E" opacity="0.54"/><circle cx="138.8" cy="184.1" r="1.9" fill="#2E3132" opacity="0.54"/><circle cx="56.5" cy="121.6" r="2.4" fill="#2E3132" opacity="0.63"/><circle cx="14.8" cy="0.3" r="1.7" fill="#2E3132" opacity="0.26"/><circle cx="92.5" cy="35.8" r="1.4" fill="#2E3132" opacity="0.70"/><circle cx="123.8" cy="125.0" r="1.3" fill="#2E3132" opacity="0.74"/><circle cx="231.9" cy="68.4" r="0.7" fill="#2E3132" opacity="0.28"/><circle cx="62.2" cy="126.0" r="0.9" fill="#2E3132" opacity="0.67"/><circle cx="15.5" cy="105.7" r="2.4" fill="#1B1D1E" opacity="0.51"/><circle cx="281.7" cy="186.0" r="1.2" fill="#2E3132" opacity="0.62"/><circle cx="72.9" cy="71.2" r="0.6" fill="#2E3132" opacity="0.49"/><circle cx="56.5" cy="80.4" r="1.5" fill="#2E3132" opacity="0.47"/><circle cx="189.2" cy="169.8" r="1.3" fill="#1B1D1E" opacity="0.34"/><circle cx="149.5" cy="88.2" r="0.7" fill="#1B1D1E" opacity="0.69"/><circle cx="271.8" cy="65.8" r="1.1" fill="#1B1D1E" opacity="0.66"/><circle cx="279.2" cy="36.5" r="1.2" fill="#1B1D1E" opacity="0.47"/><circle cx="17.1" cy="193.6" r="1.3" fill="#2E3132" opacity="0.32"/><circle cx="86.4" cy="78.4" r="1.3" fill="#2E3132" opacity="0.63"/><circle cx="276.9" cy="2.7" r="1.0" fill="#1B1D1E" opacity="0.56"/></pattern></defs>
    <rect width="1200" height="800" fill="#F2F1EF"/>
    <rect x="0" y="60" width="1200" height="300" fill="#EAEAE8" opacity="0.7"/>
    <circle cx="420" cy="150" r="34" fill="#E8C87A" opacity="0.9"/>
    <circle cx="620" cy="150" r="34" fill="#E8C87A" opacity="0.9"/>
    <circle cx="820" cy="150" r="34" fill="#E8C87A" opacity="0.9"/>
    <polygon points="180,420 1020,420 1100,760 100,760" fill="#F7F6F4" stroke="#E3E6E8" stroke-width="4"/>
    <polygon points="180,420 1020,420 1040,470 160,470" fill="url(#st-negro-absoluto)"/>
    <polygon points="160,470 100,760 140,760 196,470" fill="url(#st-negro-absoluto)"/>
    <polygon points="1040,470 1100,760 1060,760 1004,470" fill="url(#st-negro-absoluto)"/></svg>