<svg xmlns="http://www.w3.org/2000/svg" viewBox="0 0 1200 800"><defs><pattern id="st-negro-marquina" patternUnits="userSpaceOnUse" width="300" height="200"><rect width="300" height="200" fill="#1E2022"/><polyline points="0,130 50,124 100,135 150,107 200,106 250,102 300,77" fill="none" stroke="#F4F4F2" stroke-width="2.9" opacity="0.51" stroke-linecap="round"/><polyline points="0,11 50,6 100,19 150,21 200,31 250,6 300,6" fill="none" stroke="#F4F4F2" stroke-width="4.0" opacity="0.67" stroke-linecap="round"/><polyline points="0,56 50,57 100,81 150,51 200,44 250,94 300,48" fill="none" stroke="#3A3D3F" stroke-width="3.3" opacity="0.44" stroke-linecap="round"/><polyline points="0,128 50,121 100,140 150,97 200,146 250,107 300,142" fill="none" stroke="#F4F4F2" stroke-width="3.5" opacity="0.53" stroke-linecap="round"/><polyline points="0,17 50,31 100,-29 150,35 200,21 250,-2 300,-30" fill="none" stroke="#F4F4F2" stroke-width="2.7" opacity="0.53" stroke-linecap="round"/><polyline points="0,81 50,91 100,48 150,77 200,83 250,46 300,85" fill="none" stroke="#3A3D3F" stroke-width="2.9" opacity="0.57" stroke-linecap="round"/><polyline points="0,133 50,70 100,89 150,71 200,114 250,103 300,97" fill="none" stroke="#F4F4F2" stroke-width="1.0" opacity="0.52" stroke-linecap="round"/></pattern></defs>
    <rect width="1200" height="800" fill="#F2F1EF"/>
    <rect x="0" y="60" width="1200" height="300" fill="#EAEAE8" opacity="0.7"/>
    <circle cx="420" cy="150" r="34" fill="#E8C87A" opacity="0.9"/>
    <circle cx="620" cy="150" r="34" fill="#E8C87A" opacity="0.9"/>
    <circle cx="820" cy="150" r="34" fill="#E8C87A" opacity="0.9"/>
    <polygon points="180,420 1020,420 1100,760 100,760" fill="#F7F6F4" stroke="#E3E6E8" stroke-width="4"/>
    <polygon points="180,420 1020,420 1040,470 160,470" fill="url(#st-negro-marquina)"/>
    <polygon points="160,470 100,760 140,760 196,470" fill="url(#st-negro-marquina)"/>
    <polygon points="1040,470 1100,760 1060,760 1004,470" fill="url(#st-negro-marquina)"/></svg>