<svg xmlns="http://www.w3.org/2000/svg" viewBox="0 0 1200 800"><defs><pattern id="st-smithtown" patternUnits="userSpaceOnUse" width="300" height="200"><rect width="300" height="200" fill="#EDEDEA"/><polyline points="0,78 50,45 100,56 150,102 200,86 250,94 300,85" fill="none" stroke="#B9BCC0" stroke-width="1.6" opacity="0.46" stroke-linecap="round"/><polyline points="0,92 50,52 100,34 150,56 200,43 250,69 300,31" fill="none" stroke="#B9BCC0" stroke-width="2.2" opacity="0.39" stroke-linecap="round"/><polyline points="0,36 50,41 100,50 150,32 200,41 250,88 300,65" fill="none" stroke="#8C9095" stroke-width="2.9" opacity="0.43" stroke-linecap="round"/><polyline points="0,25 50,38 100,33 150,42 200,-18 250,1 300,29" fill="none" stroke="#B9BCC0" stroke-width="2.0" opacity="0.34" stroke-linecap="round"/><polyline points="0,87 50,113 100,139 150,129 200,139 250,144 300,123" fill="none" stroke="#B9BCC0" stroke-width="2.9" opacity="0.38" stroke-linecap="round"/><polyline points="0,31 50,22 100,80 150,27 200,26 250,33 300,72" fill="none" stroke="#8C9095" stroke-width="3.3" opacity="0.55" stroke-linecap="round"/><polyline points="0,109 50,112 100,155 150,95 200,146 250,100 300,133" fill="none" stroke="#B9BCC0" stroke-width="2.5" opacity="0.58" stroke-linecap="round"/></pattern></defs>
    <rect width="1200" height="800" fill="#F2F1EF"/>
    <rect x="0" y="60" width="1200" height="300" fill="#EAEAE8" opacity="0.7"/>
    <circle cx="420" cy="150" r="34" fill="#E8C87A" opacity="0.9"/>
    <circle cx="620" cy="150" r="34" fill="#E8C87A" opacity="0.9"/>
    <circle cx="820" cy="150" r="34" fill="#E8C87A" opacity="0.9"/>
    <polygon points="180,420 1020,420 1100,760 100,760" fill="#F7F6F4" stroke="#E3E6E8" stroke-width="4"/>
    <polygon points="180,420 1020,420 1040,470 160,470" fill="url(#st-smithtown)"/>
    <polygon points="160,470 100,760 140,760 196,470" fill="url(#st-smithtown)"/>
    <polygon points="1040,470 1100,760 1060,760 1004,470" fill="url(#st-smithtown)"/></svg>