<svg xmlns="http://www.w3.org/2000/svg" viewBox="0 0 1200 800"><defs><pattern id="st-taj-mahal" patternUnits="userSpaceOnUse" width="300" height="200"><rect width="300" height="200" fill="#E8E0D2"/><polyline points="0,93 50,72 100,34 150,61 200,80 250,62 300,58" fill="none" stroke="#C9A87A" stroke-width="3.3" opacity="0.67" stroke-linecap="round"/><polyline points="0,16 50,67 100,30 150,18 200,48 250,79 300,29" fill="none" stroke="#C9A87A" stroke-width="2.6" opacity="0.60" stroke-linecap="round"/><polyline points="0,174 50,160 100,204 150,160 200,173 250,209 300,183" fill="none" stroke="#B0A48C" stroke-width="3.2" opacity="0.54" stroke-linecap="round"/><polyline points="0,89 50,137 100,106 150,119 200,118 250,134 300,120" fill="none" stroke="#C9A87A" stroke-width="1.6" opacity="0.40" stroke-linecap="round"/><polyline points="0,89 50,90 100,120 150,99 200,106 250,68 300,60" fill="none" stroke="#C9A87A" stroke-width="2.1" opacity="0.56" stroke-linecap="round"/><polyline points="0,67 50,62 100,39 150,53 200,10 250,29 300,18" fill="none" stroke="#B0A48C" stroke-width="3.5" opacity="0.37" stroke-linecap="round"/><polyline points="0,161 50,153 100,192 150,160 200,154 250,128 300,142" fill="none" stroke="#C9A87A" stroke-width="2.9" opacity="0.48" stroke-linecap="round"/></pattern></defs>
    <rect width="1200" height="800" fill="#F2F1EF"/>
    <rect x="0" y="60" width="1200" height="300" fill="#EAEAE8" opacity="0.7"/>
    <circle cx="420" cy="150" r="34" fill="#E8C87A" opacity="0.9"/>
    <circle cx="620" cy="150" r="34" fill="#E8C87A" opacity="0.9"/>
    <circle cx="820" cy="150" r="34" fill="#E8C87A" opacity="0.9"/>
    <polygon points="180,420 1020,420 1100,760 100,760" fill="#F7F6F4" stroke="#E3E6E8" stroke-width="4"/>
    <polygon points="180,420 1020,420 1040,470 160,470" fill="url(#st-taj-mahal)"/>
    <polygon points="160,470 100,760 140,760 196,470" fill="url(#st-taj-mahal)"/>
    <polygon points="1040,470 1100,760 1060,760 1004,470" fill="url(#st-taj-mahal)"/></svg>