<svg xmlns="http://www.w3.org/2000/svg" viewBox="0 0 200 200"><defs><pattern id="sw-black-galaxy" patternUnits="userSpaceOnUse" width="200" height="200"><rect width="200" height="200" fill="#1A1815"/><circle cx="4.9" cy="22.3" r="2.3" fill="#C9A24E" opacity="0.66"/><circle cx="115.9" cy="149.7" r="1.8" fill="#C9A24E" opacity="0.41"/><circle cx="130.0" cy="5.5" r="2.6" fill="#C9A24E" opacity="0.50"/><circle cx="188.4" cy="160.6" r="2.1" fill="#C9A24E" opacity="0.58"/><circle cx="3.0" cy="0.8" r="1.9" fill="#C9A24E" opacity="0.68"/><circle cx="11.3" cy="149.0" r="2.4" fill="#0E0D0B" opacity="0.74"/><circle cx="65.9" cy="20.6" r="0.6" fill="#C9A24E" opacity="0.52"/><circle cx="56.2" cy="112.5" r="0.9" fill="#0E0D0B" opacity="0.32"/><circle cx="64.4" cy="25.4" r="2.6" fill="#C9A24E" opacity="0.52"/><circle cx="54.0" cy="19.1" r="2.5" fill="#C9A24E" opacity="0.51"/><circle cx="92.3" cy="101.6" r="1.0" fill="#C9A24E" opacity="0.35"/><circle cx="105.9" cy="51.3" r="1.0" fill="#C9A24E" opacity="0.39"/><circle cx="169.5" cy="172.6" r="1.2" fill="#C9A24E" opacity="0.60"/><circle cx="128.0" cy="184.6" r="2.5" fill="#C9A24E" opacity="0.33"/><circle cx="152.5" cy="43.5" r="2.3" fill="#C9A24E" opacity="0.38"/><circle cx="28.9" cy="97.9" r="1.4" fill="#C9A24E" opacity="0.32"/><circle cx="179.9" cy="178.3" r="1.1" fill="#0E0D0B" opacity="0.30"/><circle cx="20.9" cy="18.5" r="2.2" fill="#0E0D0B" opacity="0.53"/><circle cx="49.0" cy="11.7" r="1.0" fill="#0E0D0B" opacity="0.72"/><circle cx="64.6" cy="99.3" r="1.3" fill="#0E0D0B" opacity="0.29"/><circle cx="127.7" cy="193.0" r="1.0" fill="#0E0D0B" opacity="0.39"/><circle cx="46.3" cy="130.5" r="2.4" fill="#C9A24E" opacity="0.35"/><circle cx="198.9" cy="164.3" r="1.3" fill="#0E0D0B" opacity="0.35"/><circle cx="89.6" cy="183.8" r="1.0" fill="#C9A24E" opacity="0.50"/><circle cx="37.7" cy="71.1" r="1.5" fill="#C9A24E" opacity="0.74"/><circle cx="199.3" cy="189.9" r="1.2" fill="#C9A24E" opacity="0.52"/><circle cx="123.3" cy="7.4" r="2.4" fill="#0E0D0B" opacity="0.40"/><circle cx="39.7" cy="50.2" r="2.7" fill="#0E0D0B" opacity="0.43"/><circle cx="82.7" cy="192.9" r="1.1" fill="#0E0D0B" opacity="0.34"/><circle cx="45.4" cy="80.6" r="1.0" fill="#C9A24E" opacity="0.63"/><circle cx="69.1" cy="84.3" r="1.9" fill="#0E0D0B" opacity="0.47"/><circle cx="65.6" cy="189.8" r="1.2" fill="#0E0D0B" opacity="0.35"/><circle cx="72.5" cy="19.9" r="1.3" fill="#0E0D0B" opacity="0.74"/><circle cx="142.4" cy="190.2" r="1.5" fill="#C9A24E" opacity="0.39"/><circle cx="164.7" cy="197.4" r="1.8" fill="#C9A24E" opacity="0.60"/><circle cx="21.5" cy="42.2" r="1.4" fill="#0E0D0B" opacity="0.26"/><circle cx="76.4" cy="184.5" r="1.7" fill="#0E0D0B" opacity="0.75"/><circle cx="196.6" cy="32.3" r="0.7" fill="#C9A24E" opacity="0.63"/><circle cx="108.8" cy="163.9" r="1.4" fill="#C9A24E" opacity="0.74"/><circle cx="87.6" cy="83.9" r="2.5" fill="#0E0D0B" opacity="0.57"/><circle cx="178.1" cy="111.1" r="2.7" fill="#0E0D0B" opacity="0.47"/><circle cx="151.3" cy="1.9" r="1.6" fill="#0E0D0B" opacity="0.72"/><circle cx="192.9" cy="105.0" r="2.1" fill="#0E0D0B" opacity="0.41"/><circle cx="125.8" cy="50.6" r="1.2" fill="#0E0D0B" opacity="0.68"/><circle cx="165.5" cy="172.8" r="2.0" fill="#0E0D0B" opacity="0.74"/><circle cx="8.8" cy="64.6" r="2.8" fill="#0E0D0B" opacity="0.30"/><circle cx="56.4" cy="67.5" r="0.9" fill="#0E0D0B" opacity="0.28"/><circle cx="168.1" cy="93.1" r="0.7" fill="#C9A24E" opacity="0.34"/><circle cx="152.0" cy="179.3" r="2.5" fill="#C9A24E" opacity="0.29"/><circle cx="186.5" cy="178.3" r="1.9" fill="#C9A24E" opacity="0.33"/><circle cx="175.8" cy="179.7" r="2.3" fill="#0E0D0B" opacity="0.56"/><circle cx="39.2" cy="65.7" r="1.5" fill="#C9A24E" opacity="0.42"/><circle cx="132.8" cy="199.8" r="2.3" fill="#C9A24E" opacity="0.36"/><circle cx="5.3" cy="49.2" r="2.6" fill="#C9A24E" opacity="0.45"/><circle cx="87.1" cy="140.6" r="2.2" fill="#0E0D0B" opacity="0.73"/><circle cx="112.0" cy="148.5" r="2.1" fill="#0E0D0B" opacity="0.43"/><circle cx="73.2" cy="118.2" r="1.7" fill="#0E0D0B" opacity="0.55"/><circle cx="112.2" cy="20.5" r="2.4" fill="#C9A24E" opacity="0.25"/><circle cx="140.7" cy="41.3" r="1.7" fill="#C9A24E" opacity="0.55"/><circle cx="196.3" cy="3.4" r="2.0" fill="#C9A24E" opacity="0.40"/><circle cx="131.4" cy="122.2" r="2.5" fill="#0E0D0B" opacity="0.54"/><circle cx="35.6" cy="94.7" r="1.1" fill="#C9A24E" opacity="0.29"/><circle cx="191.0" cy="121.5" r="1.5" fill="#0E0D0B" opacity="0.53"/><circle cx="161.2" cy="62.4" r="2.6" fill="#C9A24E" opacity="0.64"/><circle cx="13.4" cy="125.4" r="2.8" fill="#0E0D0B" opacity="0.68"/><circle cx="74.2" cy="89.1" r="2.5" fill="#0E0D0B" opacity="0.50"/><circle cx="18.3" cy="57.6" r="0.7" fill="#C9A24E" opacity="0.58"/><circle cx="90.7" cy="150.1" r="2.5" fill="#0E0D0B" opacity="0.27"/><circle cx="62.5" cy="122.9" r="1.0" fill="#0E0D0B" opacity="0.35"/><circle cx="119.4" cy="124.6" r="1.3" fill="#C9A24E" opacity="0.41"/><circle cx="84.3" cy="185.5" r="2.6" fill="#C9A24E" opacity="0.59"/><circle cx="172.5" cy="39.5" r="1.4" fill="#C9A24E" opacity="0.60"/><circle cx="81.1" cy="80.0" r="2.5" fill="#0E0D0B" opacity="0.67"/><circle cx="10.7" cy="48.1" r="1.2" fill="#C9A24E" opacity="0.68"/><circle cx="21.0" cy="55.8" r="1.7" fill="#C9A24E" opacity="0.32"/><circle cx="120.2" cy="140.5" r="2.2" fill="#C9A24E" opacity="0.39"/><circle cx="86.6" cy="154.8" r="2.7" fill="#C9A24E" opacity="0.60"/><circle cx="24.6" cy="188.2" r="2.2" fill="#0E0D0B" opacity="0.53"/><circle cx="53.2" cy="122.8" r="2.8" fill="#C9A24E" opacity="0.64"/><circle cx="128.7" cy="122.1" r="0.8" fill="#C9A24E" opacity="0.37"/><circle cx="199.9" cy="53.5" r="0.7" fill="#C9A24E" opacity="0.29"/><circle cx="96.9" cy="43.4" r="2.3" fill="#C9A24E" opacity="0.43"/><circle cx="153.8" cy="166.7" r="2.3" fill="#0E0D0B" opacity="0.54"/><circle cx="163.6" cy="68.3" r="2.0" fill="#C9A24E" opacity="0.62"/><circle cx="67.9" cy="119.2" r="0.9" fill="#0E0D0B" opacity="0.32"/><circle cx="178.3" cy="105.3" r="0.7" fill="#0E0D0B" opacity="0.66"/><circle cx="132.5" cy="49.3" r="1.7" fill="#0E0D0B" opacity="0.59"/><circle cx="182.9" cy="166.8" r="0.9" fill="#C9A24E" opacity="0.35"/><circle cx="19.1" cy="154.5" r="2.8" fill="#C9A24E" opacity="0.27"/><circle cx="123.1" cy="13.2" r="2.2" fill="#0E0D0B" opacity="0.71"/><circle cx="58.5" cy="2.7" r="2.6" fill="#0E0D0B" opacity="0.56"/><circle cx="92.7" cy="131.1" r="2.2" fill="#C9A24E" opacity="0.40"/><circle cx="152.1" cy="176.7" r="1.6" fill="#0E0D0B" opacity="0.54"/><circle cx="111.5" cy="43.8" r="1.7" fill="#0E0D0B" opacity="0.49"/><circle cx="15.8" cy="51.6" r="1.3" fill="#C9A24E" opacity="0.59"/><circle cx="36.2" cy="156.3" r="2.2" fill="#0E0D0B" opacity="0.63"/><circle cx="158.4" cy="106.6" r="0.7" fill="#0E0D0B" opacity="0.69"/><circle cx="5.2" cy="132.8" r="2.5" fill="#0E0D0B" opacity="0.40"/><circle cx="192.1" cy="168.8" r="2.0" fill="#C9A24E" opacity="0.50"/><circle cx="16.0" cy="7.9" r="1.8" fill="#0E0D0B" opacity="0.68"/><circle cx="77.4" cy="191.3" r="1.6" fill="#0E0D0B" opacity="0.36"/><circle cx="36.4" cy="30.9" r="1.2" fill="#C9A24E" opacity="0.70"/><circle cx="100.9" cy="164.2" r="0.9" fill="#0E0D0B" opacity="0.53"/><circle cx="49.2" cy="43.8" r="0.9" fill="#C9A24E" opacity="0.52"/><circle cx="185.8" cy="159.1" r="2.1" fill="#0E0D0B" opacity="0.28"/><circle cx="29.7" cy="192.3" r="2.6" fill="#0E0D0B" opacity="0.26"/><circle cx="137.2" cy="106.9" r="2.8" fill="#C9A24E" opacity="0.40"/><circle cx="57.0" cy="170.3" r="0.6" fill="#0E0D0B" opacity="0.28"/><circle cx="19.3" cy="108.8" r="2.6" fill="#C9A24E" opacity="0.42"/><circle cx="158.0" cy="197.4" r="0.9" fill="#0E0D0B" opacity="0.57"/><circle cx="66.5" cy="80.9" r="1.3" fill="#0E0D0B" opacity="0.73"/><circle cx="86.1" cy="130.5" r="1.1" fill="#0E0D0B" opacity="0.55"/><circle cx="128.4" cy="131.8" r="2.0" fill="#C9A24E" opacity="0.55"/><circle cx="31.2" cy="107.8" r="2.0" fill="#C9A24E" opacity="0.68"/><circle cx="46.9" cy="73.8" r="2.8" fill="#C9A24E" opacity="0.69"/><circle cx="65.0" cy="126.9" r="1.9" fill="#0E0D0B" opacity="0.39"/><circle cx="167.6" cy="67.5" r="0.9" fill="#0E0D0B" opacity="0.67"/><circle cx="118.4" cy="155.6" r="1.1" fill="#0E0D0B" opacity="0.39"/><circle cx="184.5" cy="199.3" r="0.7" fill="#0E0D0B" opacity="0.64"/><circle cx="92.5" cy="176.8" r="2.4" fill="#C9A24E" opacity="0.74"/><circle cx="117.1" cy="192.5" r="0.7" fill="#0E0D0B" opacity="0.69"/><circle cx="103.5" cy="165.6" r="0.9" fill="#C9A24E" opacity="0.33"/><circle cx="22.5" cy="52.3" r="2.4" fill="#0E0D0B" opacity="0.44"/><circle cx="59.9" cy="1.2" r="1.8" fill="#C9A24E" opacity="0.62"/><circle cx="38.7" cy="42.7" r="2.6" fill="#C9A24E" opacity="0.50"/><circle cx="174.2" cy="110.6" r="1.1" fill="#0E0D0B" opacity="0.30"/><circle cx="163.3" cy="198.3" r="2.3" fill="#C9A24E" opacity="0.73"/><circle cx="6.7" cy="47.0" r="1.6" fill="#0E0D0B" opacity="0.70"/><circle cx="164.3" cy="168.5" r="0.8" fill="#C9A24E" opacity="0.37"/><circle cx="44.0" cy="0.4" r="2.5" fill="#C9A24E" opacity="0.57"/><circle cx="24.3" cy="195.3" r="2.4" fill="#0E0D0B" opacity="0.47"/><circle cx="9.5" cy="42.6" r="1.7" fill="#C9A24E" opacity="0.69"/><circle cx="118.7" cy="24.4" r="2.5" fill="#0E0D0B" opacity="0.66"/><circle cx="108.1" cy="104.3" r="1.0" fill="#0E0D0B" opacity="0.35"/><circle cx="126.5" cy="149.5" r="1.8" fill="#C9A24E" opacity="0.30"/><circle cx="4.1" cy="86.7" r="2.4" fill="#0E0D0B" opacity="0.56"/><circle cx="74.8" cy="190.5" r="1.8" fill="#0E0D0B" opacity="0.37"/><circle cx="131.9" cy="106.0" r="1.3" fill="#0E0D0B" opacity="0.74"/><circle cx="116.8" cy="4.2" r="2.6" fill="#0E0D0B" opacity="0.31"/><circle cx="141.0" cy="70.8" r="0.7" fill="#C9A24E" opacity="0.60"/><circle cx="42.4" cy="128.7" r="2.6" fill="#0E0D0B" opacity="0.55"/><circle cx="73.4" cy="193.4" r="0.9" fill="#C9A24E" opacity="0.44"/><circle cx="123.5" cy="161.7" r="2.2" fill="#0E0D0B" opacity="0.55"/><circle cx="74.7" cy="34.3" r="1.4" fill="#C9A24E" opacity="0.29"/><circle cx="90.7" cy="71.0" r="1.9" fill="#0E0D0B" opacity="0.50"/><circle cx="38.8" cy="79.9" r="2.1" fill="#0E0D0B" opacity="0.29"/><circle cx="45.4" cy="39.4" r="2.3" fill="#C9A24E" opacity="0.47"/><circle cx="185.3" cy="53.8" r="1.5" fill="#C9A24E" opacity="0.54"/><circle cx="103.6" cy="42.1" r="2.7" fill="#0E0D0B" opacity="0.34"/><circle cx="171.2" cy="160.7" r="1.2" fill="#C9A24E" opacity="0.66"/><circle cx="173.9" cy="158.3" r="2.0" fill="#0E0D0B" opacity="0.59"/><circle cx="134.6" cy="65.0" r="2.2" fill="#0E0D0B" opacity="0.25"/><circle cx="68.7" cy="14.9" r="2.5" fill="#C9A24E" opacity="0.39"/><circle cx="73.1" cy="1.2" r="1.4" fill="#C9A24E" opacity="0.69"/><circle cx="148.5" cy="165.2" r="2.8" fill="#C9A24E" opacity="0.57"/><circle cx="154.7" cy="18.6" r="2.2" fill="#C9A24E" opacity="0.69"/><circle cx="99.7" cy="199.2" r="2.0" fill="#0E0D0B" opacity="0.39"/><circle cx="162.0" cy="159.3" r="2.5" fill="#C9A24E" opacity="0.33"/><circle cx="45.8" cy="188.5" r="2.5" fill="#C9A24E" opacity="0.63"/><circle cx="70.2" cy="168.9" r="2.0" fill="#0E0D0B" opacity="0.72"/><circle cx="191.6" cy="64.1" r="1.6" fill="#0E0D0B" opacity="0.57"/><circle cx="158.6" cy="141.3" r="1.5" fill="#0E0D0B" opacity="0.73"/><circle cx="1.4" cy="127.1" r="1.3" fill="#C9A24E" opacity="0.74"/><circle cx="54.1" cy="96.2" r="2.4" fill="#0E0D0B" opacity="0.34"/><circle cx="109.8" cy="93.6" r="1.5" fill="#C9A24E" opacity="0.53"/><circle cx="109.9" cy="90.4" r="2.5" fill="#0E0D0B" opacity="0.47"/><circle cx="166.2" cy="72.3" r="0.6" fill="#C9A24E" opacity="0.67"/><circle cx="116.2" cy="62.2" r="2.7" fill="#C9A24E" opacity="0.59"/><circle cx="12.4" cy="75.5" r="1.3" fill="#C9A24E" opacity="0.47"/><circle cx="144.4" cy="9.1" r="1.0" fill="#0E0D0B" opacity="0.62"/><circle cx="194.3" cy="63.6" r="0.9" fill="#0E0D0B" opacity="0.43"/><circle cx="125.5" cy="98.9" r="2.3" fill="#C9A24E" opacity="0.27"/><circle cx="5.5" cy="123.1" r="1.4" fill="#0E0D0B" opacity="0.72"/><circle cx="160.8" cy="114.5" r="0.7" fill="#C9A24E" opacity="0.61"/><circle cx="66.0" cy="177.5" r="1.3" fill="#0E0D0B" opacity="0.42"/><circle cx="166.2" cy="31.1" r="2.0" fill="#C9A24E" opacity="0.51"/><circle cx="32.4" cy="31.7" r="2.3" fill="#0E0D0B" opacity="0.66"/><circle cx="50.4" cy="127.8" r="0.7" fill="#0E0D0B" opacity="0.46"/><circle cx="43.1" cy="149.8" r="0.8" fill="#C9A24E" opacity="0.54"/><circle cx="25.8" cy="31.7" r="1.4" fill="#C9A24E" opacity="0.63"/><circle cx="95.5" cy="166.6" r="2.8" fill="#0E0D0B" opacity="0.42"/><circle cx="52.8" cy="95.8" r="2.5" fill="#0E0D0B" opacity="0.34"/><circle cx="157.6" cy="131.2" r="2.6" fill="#C9A24E" opacity="0.55"/><circle cx="17.9" cy="110.4" r="1.2" fill="#0E0D0B" opacity="0.36"/><circle cx="12.1" cy="85.8" r="2.7" fill="#0E0D0B" opacity="0.46"/><circle cx="44.5" cy="147.0" r="1.8" fill="#0E0D0B" opacity="0.47"/><circle cx="34.2" cy="176.0" r="2.7" fill="#C9A24E" opacity="0.31"/><circle cx="137.5" cy="136.4" r="1.8" fill="#0E0D0B" opacity="0.45"/><circle cx="103.1" cy="95.6" r="1.2" fill="#C9A24E" opacity="0.43"/><circle cx="161.3" cy="180.0" r="0.9" fill="#0E0D0B" opacity="0.32"/><circle cx="45.9" cy="64.4" r="1.9" fill="#0E0D0B" opacity="0.33"/><circle cx="150.2" cy="193.8" r="1.2" fill="#C9A24E" opacity="0.48"/><circle cx="15.6" cy="139.1" r="2.6" fill="#C9A24E" opacity="0.42"/><circle cx="153.8" cy="86.3" r="1.3" fill="#0E0D0B" opacity="0.66"/><circle cx="2.4" cy="58.1" r="1.8" fill="#C9A24E" opacity="0.65"/><circle cx="13.9" cy="70.0" r="1.4" fill="#C9A24E" opacity="0.65"/><circle cx="77.9" cy="18.9" r="2.1" fill="#0E0D0B" opacity="0.47"/><circle cx="76.3" cy="105.4" r="1.1" fill="#0E0D0B" opacity="0.48"/><circle cx="172.9" cy="189.3" r="1.8" fill="#C9A24E" opacity="0.57"/><circle cx="34.8" cy="78.8" r="2.4" fill="#C9A24E" opacity="0.31"/><circle cx="188.7" cy="152.1" r="1.4" fill="#0E0D0B" opacity="0.53"/><circle cx="109.2" cy="113.7" r="1.8" fill="#0E0D0B" opacity="0.71"/><circle cx="41.3" cy="82.7" r="2.5" fill="#C9A24E" opacity="0.71"/><circle cx="156.1" cy="15.1" r="0.7" fill="#0E0D0B" opacity="0.32"/><circle cx="39.4" cy="59.9" r="1.7" fill="#C9A24E" opacity="0.61"/><circle cx="114.0" cy="47.2" r="2.4" fill="#C9A24E" opacity="0.73"/><circle cx="195.3" cy="111.0" r="1.4" fill="#C9A24E" opacity="0.40"/><circle cx="180.3" cy="44.5" r="1.5" fill="#C9A24E" opacity="0.32"/><circle cx="69.6" cy="189.0" r="2.3" fill="#0E0D0B" opacity="0.40"/><circle cx="123.0" cy="56.3" r="1.5" fill="#0E0D0B" opacity="0.31"/><circle cx="148.5" cy="84.1" r="1.5" fill="#C9A24E" opacity="0.37"/><circle cx="124.7" cy="124.8" r="2.5" fill="#0E0D0B" opacity="0.26"/><circle cx="155.7" cy="67.9" r="1.2" fill="#0E0D0B" opacity="0.60"/><circle cx="160.8" cy="195.6" r="1.9" fill="#0E0D0B" opacity="0.31"/><circle cx="96.0" cy="71.3" r="1.0" fill="#C9A24E" opacity="0.36"/><circle cx="110.2" cy="162.4" r="0.6" fill="#C9A24E" opacity="0.30"/><circle cx="33.6" cy="195.4" r="0.7" fill="#0E0D0B" opacity="0.68"/><circle cx="0.2" cy="45.1" r="2.2" fill="#0E0D0B" opacity="0.73"/><circle cx="3.1" cy="156.4" r="2.2" fill="#0E0D0B" opacity="0.46"/><circle cx="183.8" cy="100.4" r="2.3" fill="#C9A24E" opacity="0.52"/></pattern></defs><rect width="200" height="200" fill="url(#sw-black-galaxy)"/></svg>