<svg xmlns="http://www.w3.org/2000/svg" viewBox="0 0 200 200"><defs><pattern id="sw-blanco-carrara" patternUnits="userSpaceOnUse" width="200" height="200"><rect width="200" height="200" fill="#EDEDEA"/><polyline points="0,193 33,228 67,216 100,182 133,222 167,186" fill="none" stroke="#C9CBC9" stroke-width="2.2" opacity="0.36" stroke-linecap="round"/><polyline points="0,-6 33,2 67,19 100,47 133,19 167,41" fill="none" stroke="#C9CBC9" stroke-width="1.2" opacity="0.41" stroke-linecap="round"/><polyline points="0,75 33,73 67,66 100,104 133,95 167,123" fill="none" stroke="#B4B7B6" stroke-width="3.2" opacity="0.55" stroke-linecap="round"/><polyline points="0,33 33,38 67,95 100,90 133,48 167,99" fill="none" stroke="#C9CBC9" stroke-width="2.9" opacity="0.49" stroke-linecap="round"/><polyline points="0,205 33,166 67,164 100,204 133,216 167,167" fill="none" stroke="#C9CBC9" stroke-width="4.0" opacity="0.31" stroke-linecap="round"/><polyline points="0,119 33,122 67,79 100,111 133,125 167,65" fill="none" stroke="#B4B7B6" stroke-width="1.3" opacity="0.53" stroke-linecap="round"/><polyline points="0,42 33,35 67,39 100,81 133,44 167,59" fill="none" stroke="#C9CBC9" stroke-width="1.5" opacity="0.44" stroke-linecap="round"/></pattern></defs><rect width="200" height="200" fill="url(#sw-blanco-carrara)"/></svg>