<svg xmlns="http://www.w3.org/2000/svg" viewBox="0 0 200 200"><defs><pattern id="sw-blue-dunes" patternUnits="userSpaceOnUse" width="200" height="200"><rect width="200" height="200" fill="#9A968C"/><circle cx="6.6" cy="161.9" r="2.0" fill="#C7B79A" opacity="0.27"/><circle cx="157.6" cy="163.8" r="1.4" fill="#C7B79A" opacity="0.29"/><circle cx="43.6" cy="44.6" r="0.9" fill="#6E6A64" opacity="0.43"/><circle cx="87.7" cy="34.7" r="2.0" fill="#6E6A64" opacity="0.30"/><circle cx="105.1" cy="68.0" r="1.1" fill="#6E6A64" opacity="0.64"/><circle cx="192.9" cy="137.6" r="0.9" fill="#C7B79A" opacity="0.65"/><circle cx="151.6" cy="184.9" r="1.0" fill="#6E6A64" opacity="0.74"/><circle cx="41.1" cy="121.7" r="1.3" fill="#6E6A64" opacity="0.58"/><circle cx="69.4" cy="185.6" r="2.1" fill="#6E6A64" opacity="0.48"/><circle cx="15.0" cy="29.0" r="1.3" fill="#6E6A64" opacity="0.62"/><circle cx="182.1" cy="141.6" r="2.2" fill="#C7B79A" opacity="0.64"/><circle cx="90.0" cy="5.3" r="2.6" fill="#6E6A64" opacity="0.44"/><circle cx="94.7" cy="183.8" r="0.9" fill="#C7B79A" opacity="0.49"/><circle cx="145.0" cy="144.4" r="1.7" fill="#C7B79A" opacity="0.36"/><circle cx="71.2" cy="13.5" r="2.5" fill="#6E6A64" opacity="0.58"/><circle cx="7.2" cy="65.9" r="2.2" fill="#6E6A64" opacity="0.39"/><circle cx="146.2" cy="146.7" r="2.2" fill="#6E6A64" opacity="0.29"/><circle cx="29.7" cy="26.8" r="2.0" fill="#C7B79A" opacity="0.44"/><circle cx="169.2" cy="92.0" r="1.0" fill="#6E6A64" opacity="0.35"/><circle cx="2.6" cy="165.2" r="1.8" fill="#6E6A64" opacity="0.47"/><circle cx="182.1" cy="61.8" r="1.4" fill="#C7B79A" opacity="0.56"/><circle cx="197.5" cy="78.8" r="1.9" fill="#C7B79A" opacity="0.42"/><circle cx="130.6" cy="16.6" r="2.8" fill="#6E6A64" opacity="0.44"/><circle cx="145.3" cy="135.3" r="0.7" fill="#C7B79A" opacity="0.49"/><circle cx="108.6" cy="42.8" r="0.7" fill="#6E6A64" opacity="0.64"/><circle cx="147.2" cy="117.6" r="0.9" fill="#6E6A64" opacity="0.74"/><circle cx="135.7" cy="63.9" r="2.5" fill="#C7B79A" opacity="0.26"/><circle cx="119.3" cy="0.9" r="1.8" fill="#C7B79A" opacity="0.56"/><circle cx="68.8" cy="84.7" r="0.8" fill="#C7B79A" opacity="0.42"/><circle cx="170.1" cy="64.2" r="2.4" fill="#6E6A64" opacity="0.42"/><circle cx="46.1" cy="169.6" r="1.2" fill="#6E6A64" opacity="0.71"/><circle cx="112.2" cy="134.7" r="2.7" fill="#C7B79A" opacity="0.51"/><circle cx="65.2" cy="152.9" r="2.8" fill="#6E6A64" opacity="0.51"/><circle cx="105.9" cy="165.6" r="1.2" fill="#C7B79A" opacity="0.64"/><circle cx="94.0" cy="84.3" r="2.3" fill="#6E6A64" opacity="0.56"/><circle cx="37.6" cy="146.8" r="1.8" fill="#6E6A64" opacity="0.58"/><circle cx="115.1" cy="5.5" r="2.0" fill="#6E6A64" opacity="0.39"/><circle cx="30.9" cy="150.0" r="2.0" fill="#C7B79A" opacity="0.60"/><circle cx="104.0" cy="62.4" r="1.6" fill="#6E6A64" opacity="0.65"/><circle cx="90.6" cy="106.2" r="1.6" fill="#6E6A64" opacity="0.50"/><circle cx="139.5" cy="148.7" r="2.0" fill="#C7B79A" opacity="0.69"/><circle cx="81.0" cy="116.4" r="2.6" fill="#6E6A64" opacity="0.28"/><circle cx="48.9" cy="84.1" r="2.3" fill="#6E6A64" opacity="0.50"/><circle cx="36.6" cy="96.8" r="2.5" fill="#C7B79A" opacity="0.36"/><circle cx="185.3" cy="125.5" r="2.7" fill="#6E6A64" opacity="0.51"/><circle cx="6.8" cy="156.0" r="2.2" fill="#C7B79A" opacity="0.46"/><circle cx="138.8" cy="11.2" r="1.5" fill="#C7B79A" opacity="0.66"/><circle cx="33.6" cy="106.4" r="2.0" fill="#6E6A64" opacity="0.37"/><circle cx="180.9" cy="138.6" r="1.4" fill="#6E6A64" opacity="0.39"/><circle cx="62.7" cy="108.4" r="1.3" fill="#C7B79A" opacity="0.62"/><circle cx="42.6" cy="75.7" r="0.7" fill="#6E6A64" opacity="0.41"/><circle cx="187.9" cy="48.5" r="2.3" fill="#C7B79A" opacity="0.36"/><circle cx="25.1" cy="5.2" r="2.2" fill="#C7B79A" opacity="0.28"/><circle cx="28.9" cy="50.1" r="1.3" fill="#C7B79A" opacity="0.68"/><circle cx="44.4" cy="102.4" r="0.7" fill="#6E6A64" opacity="0.39"/><circle cx="42.5" cy="118.2" r="2.0" fill="#C7B79A" opacity="0.70"/><circle cx="9.1" cy="46.3" r="1.7" fill="#C7B79A" opacity="0.70"/><circle cx="167.1" cy="116.9" r="1.1" fill="#6E6A64" opacity="0.53"/><circle cx="131.7" cy="64.0" r="1.1" fill="#C7B79A" opacity="0.40"/><circle cx="0.0" cy="80.8" r="2.1" fill="#6E6A64" opacity="0.53"/><circle cx="172.6" cy="108.7" r="1.6" fill="#6E6A64" opacity="0.32"/><circle cx="109.4" cy="59.4" r="1.7" fill="#6E6A64" opacity="0.44"/><circle cx="18.3" cy="170.5" r="2.7" fill="#6E6A64" opacity="0.71"/><circle cx="77.7" cy="94.5" r="2.4" fill="#6E6A64" opacity="0.31"/><circle cx="192.1" cy="121.0" r="2.0" fill="#C7B79A" opacity="0.35"/><circle cx="80.5" cy="131.9" r="1.4" fill="#C7B79A" opacity="0.27"/><circle cx="99.0" cy="91.0" r="1.4" fill="#6E6A64" opacity="0.53"/><circle cx="196.6" cy="65.4" r="1.9" fill="#6E6A64" opacity="0.68"/><circle cx="3.3" cy="181.8" r="0.7" fill="#6E6A64" opacity="0.27"/><circle cx="53.2" cy="114.8" r="1.0" fill="#C7B79A" opacity="0.53"/><circle cx="139.5" cy="109.4" r="1.8" fill="#6E6A64" opacity="0.47"/><circle cx="3.5" cy="136.8" r="0.7" fill="#6E6A64" opacity="0.73"/><circle cx="156.9" cy="182.5" r="1.3" fill="#6E6A64" opacity="0.35"/><circle cx="37.5" cy="69.6" r="1.9" fill="#C7B79A" opacity="0.25"/><circle cx="97.6" cy="13.5" r="1.6" fill="#6E6A64" opacity="0.71"/><circle cx="26.9" cy="110.9" r="2.7" fill="#6E6A64" opacity="0.52"/><circle cx="107.3" cy="162.7" r="2.2" fill="#6E6A64" opacity="0.57"/><circle cx="102.4" cy="28.6" r="1.4" fill="#6E6A64" opacity="0.74"/><circle cx="79.7" cy="116.7" r="0.8" fill="#6E6A64" opacity="0.60"/><circle cx="165.5" cy="5.3" r="0.8" fill="#C7B79A" opacity="0.48"/><circle cx="34.6" cy="198.8" r="2.5" fill="#6E6A64" opacity="0.37"/><circle cx="132.0" cy="16.4" r="2.4" fill="#6E6A64" opacity="0.62"/><circle cx="28.7" cy="14.1" r="2.3" fill="#C7B79A" opacity="0.51"/><circle cx="110.6" cy="140.8" r="0.7" fill="#C7B79A" opacity="0.64"/><circle cx="0.5" cy="26.7" r="1.2" fill="#C7B79A" opacity="0.63"/><circle cx="113.8" cy="5.8" r="2.4" fill="#6E6A64" opacity="0.71"/><circle cx="147.4" cy="71.2" r="2.7" fill="#C7B79A" opacity="0.58"/><circle cx="101.9" cy="164.4" r="1.6" fill="#6E6A64" opacity="0.66"/><circle cx="37.3" cy="197.0" r="1.4" fill="#6E6A64" opacity="0.61"/><circle cx="161.4" cy="6.7" r="2.1" fill="#C7B79A" opacity="0.75"/><circle cx="52.9" cy="46.0" r="1.8" fill="#C7B79A" opacity="0.26"/><circle cx="15.8" cy="4.4" r="1.5" fill="#6E6A64" opacity="0.26"/><circle cx="169.5" cy="164.0" r="1.3" fill="#C7B79A" opacity="0.68"/><circle cx="70.0" cy="88.3" r="1.8" fill="#C7B79A" opacity="0.47"/><circle cx="66.1" cy="44.7" r="0.9" fill="#C7B79A" opacity="0.70"/><circle cx="188.2" cy="159.7" r="2.7" fill="#6E6A64" opacity="0.41"/><circle cx="170.0" cy="108.0" r="1.9" fill="#C7B79A" opacity="0.33"/><circle cx="4.9" cy="134.6" r="1.9" fill="#6E6A64" opacity="0.48"/><circle cx="34.2" cy="10.5" r="2.2" fill="#6E6A64" opacity="0.49"/><circle cx="169.6" cy="121.5" r="2.2" fill="#6E6A64" opacity="0.39"/><circle cx="48.7" cy="90.6" r="2.4" fill="#6E6A64" opacity="0.63"/><circle cx="124.1" cy="133.0" r="1.9" fill="#6E6A64" opacity="0.46"/><circle cx="85.3" cy="145.8" r="0.8" fill="#C7B79A" opacity="0.68"/><circle cx="14.3" cy="129.5" r="2.7" fill="#C7B79A" opacity="0.69"/><circle cx="74.8" cy="144.0" r="2.2" fill="#C7B79A" opacity="0.35"/><circle cx="133.9" cy="197.3" r="2.1" fill="#6E6A64" opacity="0.75"/><circle cx="118.4" cy="67.9" r="0.7" fill="#6E6A64" opacity="0.71"/><circle cx="102.7" cy="60.1" r="1.1" fill="#C7B79A" opacity="0.72"/><circle cx="132.1" cy="92.9" r="2.1" fill="#C7B79A" opacity="0.63"/><circle cx="177.5" cy="122.6" r="1.0" fill="#6E6A64" opacity="0.73"/><circle cx="24.6" cy="97.9" r="0.8" fill="#6E6A64" opacity="0.60"/><circle cx="96.5" cy="49.1" r="0.8" fill="#6E6A64" opacity="0.38"/><circle cx="8.4" cy="110.1" r="1.6" fill="#C7B79A" opacity="0.29"/><circle cx="57.2" cy="74.1" r="1.7" fill="#6E6A64" opacity="0.54"/><circle cx="43.7" cy="82.6" r="0.7" fill="#C7B79A" opacity="0.53"/><circle cx="27.7" cy="47.1" r="2.7" fill="#6E6A64" opacity="0.43"/><circle cx="17.1" cy="5.5" r="1.6" fill="#6E6A64" opacity="0.57"/><circle cx="190.5" cy="10.0" r="1.9" fill="#6E6A64" opacity="0.62"/><circle cx="52.0" cy="150.4" r="2.3" fill="#6E6A64" opacity="0.70"/><circle cx="121.0" cy="108.6" r="0.8" fill="#C7B79A" opacity="0.74"/><circle cx="153.4" cy="48.2" r="2.4" fill="#6E6A64" opacity="0.69"/><circle cx="98.2" cy="36.5" r="2.8" fill="#6E6A64" opacity="0.63"/><circle cx="185.5" cy="0.1" r="1.7" fill="#6E6A64" opacity="0.58"/><circle cx="149.3" cy="13.6" r="2.4" fill="#C7B79A" opacity="0.30"/><circle cx="182.8" cy="122.2" r="2.0" fill="#6E6A64" opacity="0.27"/><circle cx="27.3" cy="96.7" r="2.1" fill="#C7B79A" opacity="0.65"/><circle cx="194.7" cy="123.1" r="2.2" fill="#6E6A64" opacity="0.47"/><circle cx="122.5" cy="24.0" r="2.5" fill="#C7B79A" opacity="0.66"/><circle cx="63.2" cy="15.1" r="2.4" fill="#6E6A64" opacity="0.49"/><circle cx="106.3" cy="193.1" r="1.8" fill="#6E6A64" opacity="0.75"/><circle cx="133.9" cy="158.8" r="2.2" fill="#6E6A64" opacity="0.34"/><circle cx="109.6" cy="171.9" r="2.7" fill="#C7B79A" opacity="0.62"/><circle cx="100.7" cy="40.5" r="1.4" fill="#6E6A64" opacity="0.68"/><circle cx="33.7" cy="143.0" r="1.2" fill="#C7B79A" opacity="0.35"/><circle cx="183.4" cy="183.8" r="0.9" fill="#6E6A64" opacity="0.60"/><circle cx="194.7" cy="81.9" r="1.3" fill="#6E6A64" opacity="0.31"/><circle cx="38.7" cy="193.5" r="2.1" fill="#C7B79A" opacity="0.73"/><circle cx="101.2" cy="67.4" r="1.7" fill="#6E6A64" opacity="0.47"/><circle cx="4.9" cy="133.9" r="1.6" fill="#C7B79A" opacity="0.67"/><circle cx="165.4" cy="126.9" r="2.7" fill="#C7B79A" opacity="0.53"/><circle cx="79.6" cy="39.5" r="0.9" fill="#C7B79A" opacity="0.27"/><circle cx="148.0" cy="13.2" r="2.6" fill="#C7B79A" opacity="0.30"/><circle cx="30.5" cy="159.7" r="1.0" fill="#6E6A64" opacity="0.29"/><circle cx="135.3" cy="116.7" r="0.8" fill="#6E6A64" opacity="0.54"/><circle cx="40.6" cy="136.6" r="2.1" fill="#C7B79A" opacity="0.26"/><circle cx="50.8" cy="108.8" r="1.6" fill="#C7B79A" opacity="0.54"/><circle cx="85.0" cy="115.6" r="1.5" fill="#6E6A64" opacity="0.33"/><circle cx="99.4" cy="120.5" r="2.6" fill="#6E6A64" opacity="0.57"/><circle cx="42.8" cy="190.8" r="2.5" fill="#C7B79A" opacity="0.34"/><circle cx="145.3" cy="53.0" r="1.2" fill="#C7B79A" opacity="0.66"/><circle cx="141.1" cy="181.8" r="2.0" fill="#C7B79A" opacity="0.29"/><circle cx="23.2" cy="22.3" r="1.8" fill="#C7B79A" opacity="0.72"/><circle cx="133.0" cy="145.4" r="2.2" fill="#C7B79A" opacity="0.60"/><circle cx="182.3" cy="137.1" r="2.8" fill="#C7B79A" opacity="0.45"/><circle cx="8.7" cy="20.0" r="1.6" fill="#6E6A64" opacity="0.72"/><circle cx="64.7" cy="9.6" r="2.4" fill="#6E6A64" opacity="0.67"/><circle cx="39.7" cy="3.0" r="0.7" fill="#6E6A64" opacity="0.60"/><circle cx="16.0" cy="0.6" r="2.4" fill="#6E6A64" opacity="0.39"/><circle cx="157.0" cy="62.3" r="2.1" fill="#6E6A64" opacity="0.42"/><circle cx="130.0" cy="196.2" r="2.5" fill="#C7B79A" opacity="0.27"/><circle cx="61.6" cy="180.7" r="1.9" fill="#6E6A64" opacity="0.26"/><circle cx="26.6" cy="120.0" r="1.4" fill="#6E6A64" opacity="0.39"/><circle cx="69.8" cy="133.4" r="1.8" fill="#6E6A64" opacity="0.51"/><circle cx="162.4" cy="177.0" r="2.7" fill="#6E6A64" opacity="0.39"/><circle cx="90.2" cy="199.5" r="2.7" fill="#6E6A64" opacity="0.63"/><circle cx="75.9" cy="31.2" r="1.0" fill="#C7B79A" opacity="0.36"/><circle cx="135.0" cy="6.1" r="2.7" fill="#C7B79A" opacity="0.30"/><circle cx="164.4" cy="117.4" r="1.8" fill="#6E6A64" opacity="0.67"/><circle cx="164.8" cy="106.4" r="2.4" fill="#6E6A64" opacity="0.36"/><circle cx="195.9" cy="84.9" r="2.1" fill="#C7B79A" opacity="0.55"/><circle cx="66.0" cy="90.4" r="1.1" fill="#C7B79A" opacity="0.55"/><circle cx="153.2" cy="175.6" r="1.9" fill="#C7B79A" opacity="0.55"/><circle cx="162.0" cy="29.8" r="1.0" fill="#C7B79A" opacity="0.67"/><circle cx="11.5" cy="135.2" r="0.8" fill="#C7B79A" opacity="0.32"/><circle cx="57.8" cy="55.4" r="1.8" fill="#C7B79A" opacity="0.48"/><circle cx="49.8" cy="57.6" r="1.9" fill="#C7B79A" opacity="0.70"/><circle cx="17.7" cy="68.4" r="1.0" fill="#6E6A64" opacity="0.53"/><circle cx="95.4" cy="162.5" r="2.3" fill="#6E6A64" opacity="0.69"/><circle cx="76.1" cy="184.9" r="2.7" fill="#C7B79A" opacity="0.70"/><circle cx="101.2" cy="106.7" r="1.9" fill="#C7B79A" opacity="0.70"/><circle cx="82.4" cy="113.6" r="1.4" fill="#C7B79A" opacity="0.71"/><circle cx="57.4" cy="28.4" r="1.5" fill="#6E6A64" opacity="0.69"/><circle cx="78.7" cy="66.7" r="1.5" fill="#6E6A64" opacity="0.38"/><circle cx="35.7" cy="125.3" r="1.4" fill="#C7B79A" opacity="0.60"/><circle cx="10.5" cy="4.8" r="2.7" fill="#C7B79A" opacity="0.72"/><circle cx="166.8" cy="165.2" r="2.2" fill="#C7B79A" opacity="0.63"/><circle cx="171.8" cy="14.4" r="2.6" fill="#C7B79A" opacity="0.39"/><circle cx="152.0" cy="130.8" r="2.2" fill="#C7B79A" opacity="0.34"/><circle cx="182.2" cy="18.7" r="2.1" fill="#6E6A64" opacity="0.46"/><circle cx="107.4" cy="197.4" r="0.8" fill="#6E6A64" opacity="0.61"/><circle cx="98.7" cy="22.9" r="2.4" fill="#6E6A64" opacity="0.57"/><circle cx="141.7" cy="44.1" r="1.1" fill="#C7B79A" opacity="0.44"/><circle cx="59.3" cy="91.1" r="2.7" fill="#6E6A64" opacity="0.33"/><circle cx="67.0" cy="97.9" r="1.3" fill="#C7B79A" opacity="0.48"/><circle cx="61.7" cy="57.8" r="1.8" fill="#C7B79A" opacity="0.59"/><circle cx="44.0" cy="112.1" r="1.8" fill="#C7B79A" opacity="0.57"/><circle cx="73.8" cy="172.5" r="1.1" fill="#C7B79A" opacity="0.59"/><circle cx="159.1" cy="76.6" r="2.2" fill="#C7B79A" opacity="0.46"/><circle cx="78.3" cy="77.1" r="0.7" fill="#6E6A64" opacity="0.38"/><circle cx="135.7" cy="63.2" r="2.2" fill="#C7B79A" opacity="0.45"/><circle cx="50.5" cy="117.2" r="2.3" fill="#6E6A64" opacity="0.60"/><circle cx="178.8" cy="2.7" r="1.7" fill="#6E6A64" opacity="0.30"/><circle cx="69.4" cy="186.9" r="2.5" fill="#C7B79A" opacity="0.60"/><circle cx="152.5" cy="196.3" r="2.5" fill="#6E6A64" opacity="0.54"/><circle cx="162.1" cy="105.6" r="2.7" fill="#C7B79A" opacity="0.37"/><circle cx="91.5" cy="160.0" r="2.2" fill="#C7B79A" opacity="0.58"/><circle cx="81.9" cy="130.4" r="0.6" fill="#C7B79A" opacity="0.33"/><circle cx="45.0" cy="2.6" r="1.7" fill="#C7B79A" opacity="0.63"/><circle cx="18.6" cy="199.4" r="1.4" fill="#6E6A64" opacity="0.44"/><circle cx="55.2" cy="136.3" r="1.3" fill="#C7B79A" opacity="0.51"/><circle cx="44.1" cy="110.1" r="1.2" fill="#C7B79A" opacity="0.63"/><circle cx="67.6" cy="121.6" r="2.6" fill="#6E6A64" opacity="0.71"/><circle cx="89.1" cy="30.6" r="2.5" fill="#C7B79A" opacity="0.61"/><circle cx="176.1" cy="45.0" r="1.2" fill="#6E6A64" opacity="0.41"/><circle cx="54.9" cy="143.4" r="1.6" fill="#6E6A64" opacity="0.44"/><circle cx="0.4" cy="30.0" r="2.3" fill="#6E6A64" opacity="0.69"/><circle cx="57.6" cy="23.9" r="2.1" fill="#6E6A64" opacity="0.50"/><circle cx="197.4" cy="81.4" r="0.6" fill="#6E6A64" opacity="0.67"/><circle cx="5.7" cy="151.1" r="0.8" fill="#C7B79A" opacity="0.28"/><circle cx="105.3" cy="63.4" r="1.7" fill="#C7B79A" opacity="0.46"/></pattern></defs><rect width="200" height="200" fill="url(#sw-blue-dunes)"/></svg>