<svg xmlns="http://www.w3.org/2000/svg" viewBox="0 0 200 200"><defs><pattern id="sw-calacatta-oro" patternUnits="userSpaceOnUse" width="200" height="200"><rect width="200" height="200" fill="#F2EFE8"/><polyline points="0,146 33,77 67,133 100,99 133,85 167,144" fill="none" stroke="#C9A25E" stroke-width="1.1" opacity="0.60" stroke-linecap="round"/><polyline points="0,95 33,81 67,107 100,77 133,76 167,65" fill="none" stroke="#C9A25E" stroke-width="2.9" opacity="0.69" stroke-linecap="round"/><polyline points="0,-11 33,46 67,-9 100,52 133,12 167,19" fill="none" stroke="#9A9C9E" stroke-width="3.2" opacity="0.67" stroke-linecap="round"/><polyline points="0,165 33,171 67,121 100,151 133,160 167,131" fill="none" stroke="#C9A25E" stroke-width="2.7" opacity="0.64" stroke-linecap="round"/><polyline points="0,80 33,123 67,96 100,112 133,117 167,141" fill="none" stroke="#C9A25E" stroke-width="2.1" opacity="0.31" stroke-linecap="round"/><polyline points="0,141 33,169 67,183 100,202 133,151 167,174" fill="none" stroke="#9A9C9E" stroke-width="2.1" opacity="0.56" stroke-linecap="round"/><polyline points="0,218 33,177 67,179 100,220 133,199 167,170" fill="none" stroke="#C9A25E" stroke-width="3.7" opacity="0.31" stroke-linecap="round"/></pattern></defs><rect width="200" height="200" fill="url(#sw-calacatta-oro)"/></svg>