<svg xmlns="http://www.w3.org/2000/svg" viewBox="0 0 200 200"><defs><pattern id="sw-gris-perla" patternUnits="userSpaceOnUse" width="200" height="200"><rect width="200" height="200" fill="#B7B9BA"/><circle cx="38.5" cy="30.6" r="2.4" fill="#8E9192" opacity="0.66"/><circle cx="8.2" cy="187.0" r="2.4" fill="#D9DADB" opacity="0.26"/><circle cx="110.5" cy="57.0" r="1.6" fill="#D9DADB" opacity="0.33"/><circle cx="131.3" cy="189.2" r="0.8" fill="#D9DADB" opacity="0.47"/><circle cx="93.4" cy="14.0" r="1.3" fill="#8E9192" opacity="0.30"/><circle cx="12.2" cy="65.3" r="1.9" fill="#D9DADB" opacity="0.56"/><circle cx="184.7" cy="136.3" r="0.7" fill="#8E9192" opacity="0.45"/><circle cx="11.5" cy="168.4" r="2.0" fill="#D9DADB" opacity="0.38"/><circle cx="152.4" cy="73.2" r="1.0" fill="#D9DADB" opacity="0.51"/><circle cx="15.4" cy="88.5" r="2.6" fill="#D9DADB" opacity="0.66"/><circle cx="179.1" cy="66.7" r="2.3" fill="#8E9192" opacity="0.52"/><circle cx="147.6" cy="97.3" r="1.4" fill="#D9DADB" opacity="0.70"/><circle cx="40.1" cy="62.4" r="2.0" fill="#D9DADB" opacity="0.63"/><circle cx="12.9" cy="125.7" r="2.5" fill="#8E9192" opacity="0.27"/><circle cx="14.6" cy="154.3" r="0.9" fill="#8E9192" opacity="0.69"/><circle cx="75.5" cy="74.8" r="1.4" fill="#D9DADB" opacity="0.41"/><circle cx="129.5" cy="161.9" r="2.8" fill="#D9DADB" opacity="0.68"/><circle cx="170.0" cy="60.8" r="2.1" fill="#D9DADB" opacity="0.50"/><circle cx="138.1" cy="142.2" r="1.0" fill="#D9DADB" opacity="0.53"/><circle cx="145.8" cy="192.2" r="1.1" fill="#8E9192" opacity="0.28"/><circle cx="30.5" cy="33.5" r="2.8" fill="#8E9192" opacity="0.69"/><circle cx="44.8" cy="81.5" r="0.9" fill="#D9DADB" opacity="0.54"/><circle cx="78.2" cy="33.1" r="2.0" fill="#D9DADB" opacity="0.61"/><circle cx="12.8" cy="89.0" r="1.1" fill="#D9DADB" opacity="0.30"/><circle cx="12.1" cy="109.1" r="1.4" fill="#8E9192" opacity="0.47"/><circle cx="143.5" cy="101.3" r="1.4" fill="#8E9192" opacity="0.72"/><circle cx="133.4" cy="44.1" r="1.5" fill="#8E9192" opacity="0.36"/><circle cx="56.7" cy="41.8" r="2.7" fill="#D9DADB" opacity="0.38"/><circle cx="158.3" cy="13.5" r="1.5" fill="#D9DADB" opacity="0.64"/><circle cx="9.2" cy="115.4" r="2.0" fill="#8E9192" opacity="0.42"/><circle cx="195.3" cy="96.3" r="2.6" fill="#D9DADB" opacity="0.31"/><circle cx="139.3" cy="186.4" r="2.6" fill="#D9DADB" opacity="0.43"/><circle cx="56.8" cy="119.6" r="2.8" fill="#8E9192" opacity="0.52"/><circle cx="44.5" cy="89.2" r="1.4" fill="#D9DADB" opacity="0.28"/><circle cx="103.2" cy="36.5" r="2.7" fill="#D9DADB" opacity="0.62"/><circle cx="92.7" cy="73.3" r="1.9" fill="#D9DADB" opacity="0.71"/><circle cx="21.1" cy="37.2" r="1.5" fill="#8E9192" opacity="0.36"/><circle cx="66.7" cy="180.7" r="1.8" fill="#D9DADB" opacity="0.25"/><circle cx="133.8" cy="193.3" r="1.6" fill="#8E9192" opacity="0.51"/><circle cx="141.6" cy="157.0" r="0.9" fill="#D9DADB" opacity="0.57"/><circle cx="46.3" cy="35.5" r="2.6" fill="#D9DADB" opacity="0.37"/><circle cx="196.6" cy="96.0" r="2.2" fill="#D9DADB" opacity="0.49"/><circle cx="22.8" cy="65.2" r="1.9" fill="#8E9192" opacity="0.46"/><circle cx="58.8" cy="17.6" r="2.8" fill="#8E9192" opacity="0.51"/><circle cx="97.9" cy="198.4" r="1.7" fill="#D9DADB" opacity="0.67"/><circle cx="81.3" cy="178.5" r="2.6" fill="#8E9192" opacity="0.57"/><circle cx="120.9" cy="143.7" r="2.7" fill="#D9DADB" opacity="0.73"/><circle cx="54.2" cy="116.9" r="2.4" fill="#D9DADB" opacity="0.60"/><circle cx="133.8" cy="113.5" r="0.8" fill="#8E9192" opacity="0.44"/><circle cx="49.1" cy="30.4" r="2.5" fill="#8E9192" opacity="0.55"/><circle cx="82.3" cy="68.3" r="2.2" fill="#D9DADB" opacity="0.32"/><circle cx="196.9" cy="87.0" r="1.3" fill="#8E9192" opacity="0.62"/><circle cx="60.3" cy="94.5" r="2.3" fill="#8E9192" opacity="0.52"/><circle cx="198.8" cy="69.2" r="1.5" fill="#8E9192" opacity="0.37"/><circle cx="87.4" cy="115.5" r="1.9" fill="#D9DADB" opacity="0.64"/><circle cx="170.9" cy="152.5" r="2.4" fill="#D9DADB" opacity="0.69"/><circle cx="20.5" cy="136.4" r="2.5" fill="#D9DADB" opacity="0.30"/><circle cx="21.8" cy="15.9" r="0.7" fill="#D9DADB" opacity="0.55"/><circle cx="197.8" cy="21.2" r="0.7" fill="#D9DADB" opacity="0.59"/><circle cx="163.8" cy="86.4" r="1.1" fill="#D9DADB" opacity="0.64"/><circle cx="16.9" cy="4.6" r="2.3" fill="#8E9192" opacity="0.39"/><circle cx="157.5" cy="117.2" r="1.8" fill="#D9DADB" opacity="0.27"/><circle cx="45.6" cy="135.9" r="1.8" fill="#8E9192" opacity="0.44"/><circle cx="89.3" cy="98.5" r="2.3" fill="#D9DADB" opacity="0.71"/><circle cx="66.8" cy="57.2" r="1.5" fill="#D9DADB" opacity="0.27"/><circle cx="82.5" cy="101.7" r="2.6" fill="#D9DADB" opacity="0.73"/><circle cx="55.6" cy="114.1" r="1.1" fill="#8E9192" opacity="0.53"/><circle cx="142.3" cy="57.8" r="2.2" fill="#8E9192" opacity="0.62"/><circle cx="91.2" cy="0.3" r="1.5" fill="#D9DADB" opacity="0.57"/><circle cx="132.7" cy="68.1" r="1.0" fill="#8E9192" opacity="0.41"/><circle cx="0.6" cy="135.8" r="1.8" fill="#8E9192" opacity="0.38"/><circle cx="88.3" cy="48.5" r="0.9" fill="#D9DADB" opacity="0.49"/><circle cx="137.0" cy="177.2" r="2.1" fill="#D9DADB" opacity="0.39"/><circle cx="58.5" cy="107.7" r="2.8" fill="#8E9192" opacity="0.59"/><circle cx="90.4" cy="62.9" r="1.0" fill="#D9DADB" opacity="0.54"/><circle cx="85.3" cy="58.1" r="2.5" fill="#8E9192" opacity="0.50"/><circle cx="132.6" cy="190.3" r="0.9" fill="#D9DADB" opacity="0.27"/><circle cx="114.4" cy="60.1" r="1.9" fill="#D9DADB" opacity="0.75"/><circle cx="194.3" cy="127.4" r="2.4" fill="#8E9192" opacity="0.29"/><circle cx="39.5" cy="0.2" r="0.7" fill="#8E9192" opacity="0.49"/><circle cx="176.7" cy="56.9" r="1.6" fill="#D9DADB" opacity="0.66"/><circle cx="80.5" cy="1.8" r="1.9" fill="#8E9192" opacity="0.30"/><circle cx="196.0" cy="154.0" r="2.3" fill="#D9DADB" opacity="0.27"/><circle cx="94.2" cy="69.8" r="2.6" fill="#8E9192" opacity="0.33"/><circle cx="160.8" cy="97.9" r="1.2" fill="#D9DADB" opacity="0.58"/><circle cx="18.7" cy="68.6" r="1.7" fill="#D9DADB" opacity="0.66"/><circle cx="83.4" cy="115.7" r="2.8" fill="#8E9192" opacity="0.28"/><circle cx="51.7" cy="32.5" r="2.7" fill="#D9DADB" opacity="0.66"/><circle cx="124.3" cy="160.4" r="1.1" fill="#8E9192" opacity="0.70"/><circle cx="161.0" cy="11.1" r="2.3" fill="#8E9192" opacity="0.57"/><circle cx="169.9" cy="22.2" r="2.1" fill="#8E9192" opacity="0.59"/><circle cx="129.4" cy="46.2" r="0.8" fill="#8E9192" opacity="0.44"/><circle cx="143.8" cy="172.7" r="1.4" fill="#D9DADB" opacity="0.73"/><circle cx="132.1" cy="83.6" r="2.0" fill="#8E9192" opacity="0.40"/><circle cx="50.7" cy="142.7" r="0.8" fill="#D9DADB" opacity="0.41"/><circle cx="48.3" cy="17.1" r="2.5" fill="#D9DADB" opacity="0.31"/><circle cx="155.0" cy="33.5" r="2.4" fill="#D9DADB" opacity="0.65"/><circle cx="104.9" cy="66.4" r="1.5" fill="#8E9192" opacity="0.66"/><circle cx="91.2" cy="161.1" r="1.3" fill="#D9DADB" opacity="0.35"/><circle cx="55.2" cy="88.4" r="1.3" fill="#D9DADB" opacity="0.36"/><circle cx="108.6" cy="34.2" r="0.8" fill="#D9DADB" opacity="0.72"/><circle cx="89.2" cy="21.3" r="2.4" fill="#8E9192" opacity="0.38"/><circle cx="49.3" cy="65.1" r="1.1" fill="#8E9192" opacity="0.59"/><circle cx="78.5" cy="62.6" r="1.0" fill="#D9DADB" opacity="0.65"/><circle cx="58.9" cy="14.4" r="1.7" fill="#D9DADB" opacity="0.45"/><circle cx="154.1" cy="180.3" r="2.0" fill="#D9DADB" opacity="0.37"/><circle cx="31.3" cy="168.3" r="2.4" fill="#D9DADB" opacity="0.48"/><circle cx="17.1" cy="157.0" r="1.4" fill="#D9DADB" opacity="0.61"/><circle cx="186.2" cy="50.5" r="2.0" fill="#8E9192" opacity="0.75"/><circle cx="183.6" cy="168.0" r="0.8" fill="#D9DADB" opacity="0.75"/><circle cx="180.4" cy="65.8" r="1.7" fill="#8E9192" opacity="0.39"/><circle cx="162.3" cy="92.5" r="1.2" fill="#D9DADB" opacity="0.27"/><circle cx="152.2" cy="78.4" r="0.6" fill="#D9DADB" opacity="0.51"/><circle cx="165.5" cy="157.5" r="0.8" fill="#8E9192" opacity="0.34"/><circle cx="99.1" cy="122.9" r="2.1" fill="#D9DADB" opacity="0.46"/><circle cx="153.6" cy="116.1" r="2.2" fill="#8E9192" opacity="0.29"/><circle cx="188.9" cy="48.7" r="0.8" fill="#D9DADB" opacity="0.49"/><circle cx="13.1" cy="158.4" r="2.7" fill="#D9DADB" opacity="0.38"/><circle cx="4.5" cy="97.7" r="1.3" fill="#D9DADB" opacity="0.64"/><circle cx="67.5" cy="156.1" r="2.1" fill="#8E9192" opacity="0.39"/><circle cx="121.1" cy="15.7" r="0.8" fill="#8E9192" opacity="0.56"/><circle cx="121.7" cy="40.0" r="2.4" fill="#D9DADB" opacity="0.60"/><circle cx="17.8" cy="96.4" r="2.6" fill="#8E9192" opacity="0.58"/><circle cx="39.8" cy="111.4" r="1.1" fill="#D9DADB" opacity="0.54"/><circle cx="121.7" cy="159.6" r="1.4" fill="#D9DADB" opacity="0.71"/><circle cx="56.6" cy="86.2" r="2.4" fill="#8E9192" opacity="0.61"/><circle cx="185.8" cy="62.1" r="1.6" fill="#8E9192" opacity="0.37"/><circle cx="21.2" cy="73.2" r="2.8" fill="#D9DADB" opacity="0.52"/><circle cx="0.4" cy="142.3" r="1.9" fill="#8E9192" opacity="0.51"/><circle cx="175.8" cy="84.7" r="2.5" fill="#8E9192" opacity="0.59"/><circle cx="37.0" cy="197.5" r="2.4" fill="#8E9192" opacity="0.56"/><circle cx="66.0" cy="81.2" r="1.0" fill="#8E9192" opacity="0.32"/><circle cx="26.4" cy="195.7" r="1.7" fill="#8E9192" opacity="0.73"/><circle cx="185.6" cy="149.0" r="2.7" fill="#8E9192" opacity="0.38"/><circle cx="70.0" cy="119.6" r="2.3" fill="#8E9192" opacity="0.59"/><circle cx="154.4" cy="11.7" r="1.7" fill="#8E9192" opacity="0.35"/><circle cx="83.8" cy="144.5" r="1.5" fill="#8E9192" opacity="0.51"/><circle cx="29.1" cy="74.2" r="1.6" fill="#8E9192" opacity="0.36"/><circle cx="176.3" cy="149.5" r="2.5" fill="#D9DADB" opacity="0.48"/><circle cx="148.1" cy="0.7" r="1.3" fill="#D9DADB" opacity="0.51"/><circle cx="160.0" cy="161.7" r="1.1" fill="#D9DADB" opacity="0.67"/><circle cx="108.9" cy="25.8" r="2.3" fill="#8E9192" opacity="0.67"/><circle cx="195.4" cy="134.2" r="2.3" fill="#8E9192" opacity="0.41"/><circle cx="79.3" cy="198.8" r="1.1" fill="#D9DADB" opacity="0.56"/><circle cx="168.8" cy="57.1" r="1.1" fill="#8E9192" opacity="0.45"/><circle cx="42.1" cy="161.7" r="2.4" fill="#D9DADB" opacity="0.75"/><circle cx="3.7" cy="2.0" r="1.8" fill="#D9DADB" opacity="0.58"/><circle cx="172.7" cy="60.2" r="1.4" fill="#D9DADB" opacity="0.37"/><circle cx="105.1" cy="99.8" r="1.9" fill="#8E9192" opacity="0.57"/><circle cx="149.9" cy="188.2" r="1.1" fill="#D9DADB" opacity="0.26"/><circle cx="137.2" cy="51.8" r="1.1" fill="#D9DADB" opacity="0.46"/><circle cx="1.0" cy="165.3" r="0.8" fill="#8E9192" opacity="0.43"/><circle cx="134.5" cy="173.8" r="1.5" fill="#8E9192" opacity="0.65"/><circle cx="79.0" cy="48.4" r="2.7" fill="#8E9192" opacity="0.28"/><circle cx="146.3" cy="174.7" r="1.6" fill="#8E9192" opacity="0.35"/><circle cx="174.1" cy="175.7" r="0.9" fill="#8E9192" opacity="0.29"/><circle cx="14.8" cy="66.8" r="1.9" fill="#D9DADB" opacity="0.36"/><circle cx="157.9" cy="144.8" r="2.3" fill="#D9DADB" opacity="0.38"/><circle cx="85.6" cy="10.4" r="1.6" fill="#8E9192" opacity="0.71"/><circle cx="161.3" cy="123.6" r="1.0" fill="#8E9192" opacity="0.25"/><circle cx="52.4" cy="92.2" r="0.9" fill="#8E9192" opacity="0.56"/><circle cx="85.4" cy="94.7" r="1.8" fill="#D9DADB" opacity="0.48"/><circle cx="135.1" cy="35.5" r="2.6" fill="#D9DADB" opacity="0.48"/><circle cx="46.4" cy="33.6" r="1.9" fill="#8E9192" opacity="0.43"/><circle cx="190.4" cy="45.2" r="1.5" fill="#8E9192" opacity="0.61"/><circle cx="152.8" cy="19.1" r="2.3" fill="#8E9192" opacity="0.60"/><circle cx="156.6" cy="185.6" r="1.1" fill="#D9DADB" opacity="0.54"/><circle cx="17.1" cy="78.5" r="1.0" fill="#8E9192" opacity="0.66"/><circle cx="31.2" cy="91.2" r="2.5" fill="#8E9192" opacity="0.65"/><circle cx="199.6" cy="164.9" r="0.9" fill="#8E9192" opacity="0.43"/><circle cx="182.2" cy="11.4" r="2.6" fill="#8E9192" opacity="0.67"/><circle cx="187.0" cy="68.4" r="1.3" fill="#8E9192" opacity="0.67"/><circle cx="192.3" cy="188.2" r="1.5" fill="#D9DADB" opacity="0.64"/><circle cx="102.4" cy="60.5" r="2.2" fill="#8E9192" opacity="0.67"/><circle cx="36.7" cy="167.3" r="1.0" fill="#8E9192" opacity="0.71"/><circle cx="151.1" cy="72.2" r="0.9" fill="#8E9192" opacity="0.70"/><circle cx="194.4" cy="42.5" r="2.0" fill="#8E9192" opacity="0.72"/><circle cx="197.0" cy="4.7" r="1.8" fill="#D9DADB" opacity="0.29"/><circle cx="92.7" cy="33.5" r="1.5" fill="#D9DADB" opacity="0.67"/><circle cx="74.8" cy="174.0" r="2.3" fill="#D9DADB" opacity="0.35"/><circle cx="84.7" cy="197.1" r="1.7" fill="#D9DADB" opacity="0.48"/><circle cx="34.0" cy="88.7" r="1.2" fill="#8E9192" opacity="0.58"/><circle cx="160.4" cy="71.6" r="1.1" fill="#8E9192" opacity="0.60"/><circle cx="116.3" cy="161.3" r="0.8" fill="#D9DADB" opacity="0.30"/><circle cx="191.4" cy="54.6" r="2.4" fill="#8E9192" opacity="0.47"/><circle cx="67.6" cy="152.2" r="0.7" fill="#D9DADB" opacity="0.52"/><circle cx="108.6" cy="113.9" r="1.6" fill="#D9DADB" opacity="0.30"/><circle cx="181.7" cy="147.9" r="0.9" fill="#D9DADB" opacity="0.40"/><circle cx="13.3" cy="32.3" r="1.4" fill="#D9DADB" opacity="0.64"/><circle cx="78.2" cy="71.7" r="2.0" fill="#8E9192" opacity="0.52"/><circle cx="21.5" cy="185.1" r="1.3" fill="#8E9192" opacity="0.39"/><circle cx="14.1" cy="128.6" r="1.1" fill="#D9DADB" opacity="0.52"/><circle cx="41.8" cy="51.2" r="2.2" fill="#8E9192" opacity="0.51"/><circle cx="127.5" cy="182.9" r="1.6" fill="#8E9192" opacity="0.49"/><circle cx="86.6" cy="57.8" r="2.2" fill="#8E9192" opacity="0.68"/><circle cx="16.1" cy="69.1" r="2.4" fill="#8E9192" opacity="0.29"/><circle cx="116.4" cy="158.1" r="1.9" fill="#8E9192" opacity="0.74"/><circle cx="47.6" cy="36.5" r="2.7" fill="#D9DADB" opacity="0.68"/><circle cx="17.6" cy="142.1" r="2.8" fill="#8E9192" opacity="0.43"/><circle cx="4.9" cy="127.2" r="2.4" fill="#D9DADB" opacity="0.68"/><circle cx="113.7" cy="81.4" r="2.7" fill="#8E9192" opacity="0.55"/><circle cx="63.2" cy="86.9" r="1.3" fill="#D9DADB" opacity="0.45"/><circle cx="9.5" cy="107.0" r="1.2" fill="#D9DADB" opacity="0.36"/><circle cx="101.5" cy="9.2" r="2.5" fill="#D9DADB" opacity="0.33"/><circle cx="169.3" cy="120.0" r="2.6" fill="#8E9192" opacity="0.40"/><circle cx="147.0" cy="114.1" r="0.6" fill="#D9DADB" opacity="0.32"/><circle cx="27.7" cy="36.6" r="2.2" fill="#D9DADB" opacity="0.58"/><circle cx="152.8" cy="58.3" r="2.5" fill="#8E9192" opacity="0.33"/><circle cx="34.1" cy="165.2" r="0.8" fill="#D9DADB" opacity="0.59"/><circle cx="109.1" cy="180.1" r="2.0" fill="#8E9192" opacity="0.32"/><circle cx="30.3" cy="118.4" r="1.0" fill="#8E9192" opacity="0.26"/><circle cx="87.3" cy="77.0" r="2.0" fill="#D9DADB" opacity="0.73"/><circle cx="162.2" cy="56.5" r="2.2" fill="#8E9192" opacity="0.60"/><circle cx="18.5" cy="116.8" r="0.6" fill="#D9DADB" opacity="0.25"/><circle cx="123.5" cy="66.0" r="2.1" fill="#8E9192" opacity="0.26"/><circle cx="3.7" cy="82.4" r="0.6" fill="#D9DADB" opacity="0.47"/><circle cx="133.9" cy="70.4" r="1.5" fill="#D9DADB" opacity="0.34"/><circle cx="159.1" cy="149.1" r="1.4" fill="#8E9192" opacity="0.74"/><circle cx="50.3" cy="74.6" r="1.9" fill="#D9DADB" opacity="0.45"/><circle cx="193.3" cy="195.7" r="1.7" fill="#8E9192" opacity="0.57"/></pattern></defs><rect width="200" height="200" fill="url(#sw-gris-perla)"/></svg>