<svg xmlns="http://www.w3.org/2000/svg" viewBox="0 0 200 200"><defs><pattern id="sw-gris-niebla" patternUnits="userSpaceOnUse" width="200" height="200"><rect width="200" height="200" fill="#AEB2B5"/><polyline points="0,33 33,9 67,6 100,23 133,-5 167,61" fill="none" stroke="#C6C9CB" stroke-width="3.5" opacity="0.63" stroke-linecap="round"/><polyline points="0,148 33,209 67,161 100,190 133,206 167,186" fill="none" stroke="#C6C9CB" stroke-width="1.2" opacity="0.34" stroke-linecap="round"/><polyline points="0,77 33,101 67,96 100,84 133,91 167,73" fill="none" stroke="#9DA1A4" stroke-width="3.3" opacity="0.35" stroke-linecap="round"/><polyline points="0,148 33,152 67,137 100,171 133,189 167,190" fill="none" stroke="#C6C9CB" stroke-width="1.6" opacity="0.35" stroke-linecap="round"/><polyline points="0,98 33,100 67,93 100,121 133,96 167,134" fill="none" stroke="#C6C9CB" stroke-width="2.9" opacity="0.43" stroke-linecap="round"/><polyline points="0,125 33,143 67,160 100,130 133,149 167,102" fill="none" stroke="#9DA1A4" stroke-width="1.8" opacity="0.32" stroke-linecap="round"/><polyline points="0,96 33,147 67,137 100,136 133,147 167,101" fill="none" stroke="#C6C9CB" stroke-width="2.2" opacity="0.49" stroke-linecap="round"/></pattern></defs><rect width="200" height="200" fill="url(#sw-gris-niebla)"/></svg>