<svg xmlns="http://www.w3.org/2000/svg" viewBox="0 0 200 200"><defs><pattern id="sw-luna-pearl" patternUnits="userSpaceOnUse" width="200" height="200"><rect width="200" height="200" fill="#E4E2DE"/><circle cx="158.8" cy="158.8" r="2.5" fill="#9A9690" opacity="0.43"/><circle cx="81.6" cy="128.9" r="1.0" fill="#2E2C2A" opacity="0.35"/><circle cx="143.3" cy="26.1" r="2.2" fill="#2E2C2A" opacity="0.33"/><circle cx="122.2" cy="102.9" r="1.7" fill="#2E2C2A" opacity="0.56"/><circle cx="122.7" cy="48.8" r="0.8" fill="#9A9690" opacity="0.65"/><circle cx="63.9" cy="145.9" r="1.5" fill="#9A9690" opacity="0.54"/><circle cx="101.9" cy="157.7" r="2.4" fill="#2E2C2A" opacity="0.68"/><circle cx="185.5" cy="151.6" r="1.4" fill="#2E2C2A" opacity="0.63"/><circle cx="145.0" cy="54.1" r="2.5" fill="#2E2C2A" opacity="0.43"/><circle cx="114.4" cy="139.8" r="2.7" fill="#2E2C2A" opacity="0.32"/><circle cx="86.8" cy="53.9" r="0.8" fill="#2E2C2A" opacity="0.31"/><circle cx="3.5" cy="167.4" r="1.0" fill="#2E2C2A" opacity="0.54"/><circle cx="176.4" cy="65.9" r="2.6" fill="#9A9690" opacity="0.53"/><circle cx="43.1" cy="172.5" r="1.5" fill="#9A9690" opacity="0.74"/><circle cx="56.0" cy="102.4" r="1.5" fill="#9A9690" opacity="0.41"/><circle cx="104.7" cy="152.7" r="2.4" fill="#9A9690" opacity="0.35"/><circle cx="71.2" cy="123.9" r="1.4" fill="#2E2C2A" opacity="0.46"/><circle cx="119.2" cy="75.9" r="1.9" fill="#2E2C2A" opacity="0.59"/><circle cx="115.8" cy="16.7" r="2.2" fill="#9A9690" opacity="0.33"/><circle cx="187.7" cy="124.8" r="0.6" fill="#9A9690" opacity="0.51"/><circle cx="9.6" cy="104.4" r="2.5" fill="#9A9690" opacity="0.61"/><circle cx="26.5" cy="74.8" r="2.3" fill="#9A9690" opacity="0.50"/><circle cx="9.3" cy="191.9" r="1.6" fill="#9A9690" opacity="0.43"/><circle cx="144.0" cy="4.8" r="1.3" fill="#9A9690" opacity="0.53"/><circle cx="53.3" cy="143.4" r="2.8" fill="#9A9690" opacity="0.40"/><circle cx="152.7" cy="142.0" r="2.4" fill="#2E2C2A" opacity="0.28"/><circle cx="139.1" cy="193.5" r="0.7" fill="#2E2C2A" opacity="0.37"/><circle cx="13.1" cy="39.4" r="1.7" fill="#9A9690" opacity="0.58"/><circle cx="34.5" cy="191.5" r="0.9" fill="#9A9690" opacity="0.58"/><circle cx="11.5" cy="87.3" r="0.7" fill="#9A9690" opacity="0.68"/><circle cx="122.3" cy="179.4" r="1.4" fill="#9A9690" opacity="0.57"/><circle cx="71.4" cy="157.3" r="1.7" fill="#2E2C2A" opacity="0.37"/><circle cx="177.9" cy="102.9" r="1.7" fill="#2E2C2A" opacity="0.50"/><circle cx="197.8" cy="180.1" r="2.1" fill="#2E2C2A" opacity="0.43"/><circle cx="80.1" cy="55.9" r="0.6" fill="#2E2C2A" opacity="0.71"/><circle cx="54.9" cy="57.0" r="1.6" fill="#9A9690" opacity="0.38"/><circle cx="56.2" cy="58.0" r="1.7" fill="#9A9690" opacity="0.69"/><circle cx="77.2" cy="104.0" r="2.2" fill="#2E2C2A" opacity="0.63"/><circle cx="59.2" cy="166.1" r="2.7" fill="#9A9690" opacity="0.36"/><circle cx="114.1" cy="29.9" r="2.7" fill="#9A9690" opacity="0.39"/><circle cx="79.3" cy="118.4" r="2.3" fill="#2E2C2A" opacity="0.67"/><circle cx="7.5" cy="47.0" r="1.0" fill="#2E2C2A" opacity="0.47"/><circle cx="188.1" cy="112.5" r="0.7" fill="#9A9690" opacity="0.58"/><circle cx="103.3" cy="115.6" r="1.0" fill="#2E2C2A" opacity="0.38"/><circle cx="116.5" cy="116.3" r="0.8" fill="#2E2C2A" opacity="0.26"/><circle cx="95.1" cy="122.4" r="2.7" fill="#9A9690" opacity="0.29"/><circle cx="165.6" cy="112.4" r="0.8" fill="#2E2C2A" opacity="0.30"/><circle cx="2.8" cy="190.7" r="2.5" fill="#2E2C2A" opacity="0.28"/><circle cx="51.6" cy="76.3" r="2.2" fill="#9A9690" opacity="0.57"/><circle cx="83.1" cy="125.4" r="1.7" fill="#9A9690" opacity="0.47"/><circle cx="83.0" cy="86.8" r="1.8" fill="#9A9690" opacity="0.55"/><circle cx="74.3" cy="190.8" r="1.6" fill="#2E2C2A" opacity="0.46"/><circle cx="72.3" cy="171.2" r="1.9" fill="#9A9690" opacity="0.42"/><circle cx="173.9" cy="21.4" r="1.1" fill="#9A9690" opacity="0.63"/><circle cx="179.9" cy="82.6" r="1.0" fill="#9A9690" opacity="0.51"/><circle cx="149.9" cy="66.6" r="1.5" fill="#9A9690" opacity="0.71"/><circle cx="92.2" cy="11.1" r="2.8" fill="#2E2C2A" opacity="0.56"/><circle cx="185.0" cy="168.4" r="0.6" fill="#2E2C2A" opacity="0.74"/><circle cx="132.7" cy="28.2" r="2.8" fill="#9A9690" opacity="0.37"/><circle cx="54.4" cy="72.5" r="2.6" fill="#2E2C2A" opacity="0.38"/><circle cx="106.3" cy="64.9" r="0.7" fill="#9A9690" opacity="0.72"/><circle cx="37.1" cy="72.7" r="1.7" fill="#2E2C2A" opacity="0.45"/><circle cx="77.2" cy="22.4" r="0.8" fill="#2E2C2A" opacity="0.62"/><circle cx="160.5" cy="188.7" r="1.4" fill="#9A9690" opacity="0.46"/><circle cx="80.1" cy="16.7" r="2.7" fill="#2E2C2A" opacity="0.49"/><circle cx="177.4" cy="77.3" r="1.9" fill="#9A9690" opacity="0.33"/><circle cx="164.2" cy="156.4" r="0.7" fill="#9A9690" opacity="0.53"/><circle cx="78.1" cy="76.9" r="1.6" fill="#9A9690" opacity="0.52"/><circle cx="171.5" cy="54.0" r="1.7" fill="#2E2C2A" opacity="0.56"/><circle cx="134.1" cy="184.8" r="0.9" fill="#2E2C2A" opacity="0.46"/><circle cx="47.8" cy="69.9" r="0.8" fill="#2E2C2A" opacity="0.59"/><circle cx="76.3" cy="169.2" r="2.6" fill="#9A9690" opacity="0.34"/><circle cx="86.9" cy="90.6" r="2.3" fill="#9A9690" opacity="0.28"/><circle cx="6.0" cy="12.5" r="2.7" fill="#2E2C2A" opacity="0.75"/><circle cx="108.4" cy="39.4" r="2.6" fill="#2E2C2A" opacity="0.72"/><circle cx="39.2" cy="90.3" r="0.6" fill="#2E2C2A" opacity="0.56"/><circle cx="169.3" cy="121.3" r="0.9" fill="#9A9690" opacity="0.53"/><circle cx="84.5" cy="81.4" r="1.8" fill="#9A9690" opacity="0.74"/><circle cx="7.7" cy="0.6" r="2.7" fill="#2E2C2A" opacity="0.31"/><circle cx="154.3" cy="13.0" r="2.1" fill="#9A9690" opacity="0.47"/><circle cx="21.3" cy="111.8" r="2.7" fill="#9A9690" opacity="0.43"/><circle cx="9.1" cy="38.3" r="2.1" fill="#2E2C2A" opacity="0.59"/><circle cx="177.8" cy="104.2" r="2.2" fill="#2E2C2A" opacity="0.63"/><circle cx="135.3" cy="147.3" r="1.1" fill="#2E2C2A" opacity="0.35"/><circle cx="60.1" cy="19.9" r="1.1" fill="#2E2C2A" opacity="0.45"/><circle cx="56.4" cy="11.7" r="1.2" fill="#9A9690" opacity="0.53"/><circle cx="43.4" cy="4.6" r="1.4" fill="#9A9690" opacity="0.53"/><circle cx="177.2" cy="162.2" r="2.3" fill="#9A9690" opacity="0.41"/><circle cx="6.7" cy="151.9" r="1.7" fill="#9A9690" opacity="0.72"/><circle cx="162.1" cy="100.3" r="1.7" fill="#9A9690" opacity="0.51"/><circle cx="177.2" cy="81.8" r="1.2" fill="#2E2C2A" opacity="0.52"/><circle cx="45.4" cy="141.8" r="1.6" fill="#9A9690" opacity="0.75"/><circle cx="108.1" cy="51.0" r="2.2" fill="#2E2C2A" opacity="0.34"/><circle cx="76.8" cy="195.4" r="2.7" fill="#2E2C2A" opacity="0.33"/><circle cx="189.3" cy="197.8" r="1.0" fill="#9A9690" opacity="0.64"/><circle cx="98.0" cy="73.6" r="0.9" fill="#2E2C2A" opacity="0.56"/><circle cx="92.5" cy="119.7" r="2.3" fill="#2E2C2A" opacity="0.37"/><circle cx="54.9" cy="136.7" r="2.4" fill="#9A9690" opacity="0.46"/><circle cx="148.7" cy="184.6" r="2.3" fill="#2E2C2A" opacity="0.71"/><circle cx="41.2" cy="71.2" r="2.6" fill="#2E2C2A" opacity="0.68"/><circle cx="58.9" cy="175.1" r="1.5" fill="#9A9690" opacity="0.73"/><circle cx="76.6" cy="0.6" r="2.3" fill="#2E2C2A" opacity="0.32"/><circle cx="139.3" cy="66.8" r="1.4" fill="#2E2C2A" opacity="0.32"/><circle cx="18.0" cy="129.8" r="0.7" fill="#9A9690" opacity="0.50"/><circle cx="98.5" cy="138.4" r="0.9" fill="#9A9690" opacity="0.45"/><circle cx="3.7" cy="123.0" r="1.2" fill="#9A9690" opacity="0.32"/><circle cx="148.9" cy="17.3" r="2.4" fill="#2E2C2A" opacity="0.31"/><circle cx="31.1" cy="14.7" r="0.7" fill="#2E2C2A" opacity="0.64"/><circle cx="50.9" cy="56.5" r="2.2" fill="#2E2C2A" opacity="0.71"/><circle cx="68.2" cy="54.4" r="2.5" fill="#2E2C2A" opacity="0.70"/><circle cx="91.0" cy="46.0" r="1.7" fill="#2E2C2A" opacity="0.42"/><circle cx="97.7" cy="83.9" r="2.3" fill="#2E2C2A" opacity="0.55"/><circle cx="192.6" cy="57.6" r="0.9" fill="#2E2C2A" opacity="0.72"/><circle cx="94.9" cy="49.1" r="2.0" fill="#9A9690" opacity="0.34"/><circle cx="160.7" cy="22.1" r="1.7" fill="#9A9690" opacity="0.38"/><circle cx="138.8" cy="43.7" r="2.5" fill="#2E2C2A" opacity="0.40"/><circle cx="59.4" cy="40.6" r="1.7" fill="#2E2C2A" opacity="0.44"/><circle cx="56.5" cy="87.5" r="0.7" fill="#2E2C2A" opacity="0.73"/><circle cx="123.3" cy="29.4" r="0.6" fill="#9A9690" opacity="0.29"/><circle cx="1.2" cy="37.3" r="1.1" fill="#2E2C2A" opacity="0.25"/><circle cx="1.9" cy="96.9" r="1.5" fill="#9A9690" opacity="0.65"/><circle cx="163.0" cy="31.3" r="2.2" fill="#9A9690" opacity="0.43"/><circle cx="137.0" cy="55.6" r="2.5" fill="#2E2C2A" opacity="0.34"/><circle cx="13.5" cy="67.0" r="2.2" fill="#2E2C2A" opacity="0.68"/><circle cx="74.4" cy="66.0" r="0.8" fill="#9A9690" opacity="0.35"/><circle cx="83.5" cy="112.4" r="1.6" fill="#2E2C2A" opacity="0.72"/><circle cx="107.9" cy="14.4" r="0.8" fill="#9A9690" opacity="0.36"/><circle cx="74.3" cy="150.3" r="1.0" fill="#2E2C2A" opacity="0.61"/><circle cx="57.3" cy="24.3" r="1.0" fill="#2E2C2A" opacity="0.45"/><circle cx="101.9" cy="155.8" r="1.8" fill="#2E2C2A" opacity="0.74"/><circle cx="179.3" cy="100.7" r="0.7" fill="#9A9690" opacity="0.75"/><circle cx="75.0" cy="8.0" r="0.7" fill="#2E2C2A" opacity="0.58"/><circle cx="12.1" cy="107.8" r="1.0" fill="#2E2C2A" opacity="0.35"/><circle cx="6.0" cy="134.1" r="2.4" fill="#9A9690" opacity="0.30"/><circle cx="153.4" cy="80.1" r="1.0" fill="#9A9690" opacity="0.62"/><circle cx="55.2" cy="87.1" r="0.8" fill="#9A9690" opacity="0.74"/><circle cx="171.1" cy="67.0" r="1.8" fill="#2E2C2A" opacity="0.31"/><circle cx="109.2" cy="57.2" r="1.9" fill="#2E2C2A" opacity="0.64"/><circle cx="47.8" cy="110.4" r="1.4" fill="#2E2C2A" opacity="0.44"/><circle cx="91.3" cy="116.1" r="1.3" fill="#2E2C2A" opacity="0.31"/><circle cx="158.9" cy="156.2" r="1.6" fill="#2E2C2A" opacity="0.68"/><circle cx="6.6" cy="194.4" r="0.8" fill="#2E2C2A" opacity="0.51"/><circle cx="183.3" cy="98.0" r="1.2" fill="#9A9690" opacity="0.36"/><circle cx="119.2" cy="193.5" r="2.4" fill="#9A9690" opacity="0.27"/><circle cx="148.3" cy="155.7" r="1.4" fill="#2E2C2A" opacity="0.47"/><circle cx="63.7" cy="29.5" r="1.5" fill="#2E2C2A" opacity="0.49"/><circle cx="6.9" cy="186.0" r="2.3" fill="#9A9690" opacity="0.45"/><circle cx="89.5" cy="10.9" r="1.0" fill="#9A9690" opacity="0.38"/><circle cx="149.2" cy="127.2" r="2.5" fill="#2E2C2A" opacity="0.74"/><circle cx="38.5" cy="150.2" r="1.4" fill="#9A9690" opacity="0.27"/><circle cx="46.9" cy="176.9" r="2.2" fill="#9A9690" opacity="0.28"/><circle cx="56.5" cy="7.8" r="2.1" fill="#2E2C2A" opacity="0.66"/><circle cx="30.8" cy="102.8" r="2.2" fill="#9A9690" opacity="0.27"/><circle cx="37.2" cy="70.1" r="0.8" fill="#9A9690" opacity="0.70"/><circle cx="2.2" cy="87.9" r="2.8" fill="#2E2C2A" opacity="0.28"/><circle cx="0.5" cy="60.6" r="2.6" fill="#2E2C2A" opacity="0.49"/><circle cx="77.1" cy="107.3" r="1.2" fill="#9A9690" opacity="0.69"/><circle cx="3.0" cy="184.2" r="2.4" fill="#2E2C2A" opacity="0.66"/><circle cx="164.0" cy="40.1" r="0.6" fill="#2E2C2A" opacity="0.48"/><circle cx="183.1" cy="105.1" r="1.4" fill="#9A9690" opacity="0.29"/><circle cx="75.5" cy="113.4" r="1.3" fill="#9A9690" opacity="0.32"/><circle cx="138.3" cy="58.0" r="0.8" fill="#9A9690" opacity="0.27"/><circle cx="172.0" cy="80.3" r="1.8" fill="#9A9690" opacity="0.54"/><circle cx="36.5" cy="92.1" r="1.8" fill="#2E2C2A" opacity="0.32"/><circle cx="139.8" cy="131.0" r="1.2" fill="#2E2C2A" opacity="0.40"/><circle cx="60.4" cy="49.4" r="2.3" fill="#9A9690" opacity="0.49"/><circle cx="102.6" cy="137.0" r="1.8" fill="#9A9690" opacity="0.69"/><circle cx="185.4" cy="75.7" r="2.0" fill="#9A9690" opacity="0.42"/><circle cx="65.1" cy="29.2" r="1.1" fill="#2E2C2A" opacity="0.67"/><circle cx="90.4" cy="64.8" r="1.6" fill="#2E2C2A" opacity="0.47"/><circle cx="91.6" cy="108.9" r="1.0" fill="#2E2C2A" opacity="0.38"/><circle cx="2.6" cy="36.4" r="2.7" fill="#2E2C2A" opacity="0.62"/><circle cx="16.6" cy="92.1" r="1.4" fill="#2E2C2A" opacity="0.72"/><circle cx="75.1" cy="47.2" r="0.9" fill="#2E2C2A" opacity="0.30"/><circle cx="89.6" cy="87.4" r="0.7" fill="#2E2C2A" opacity="0.40"/><circle cx="98.0" cy="35.7" r="1.2" fill="#9A9690" opacity="0.46"/><circle cx="152.5" cy="107.3" r="1.6" fill="#2E2C2A" opacity="0.74"/><circle cx="142.9" cy="199.2" r="1.9" fill="#9A9690" opacity="0.53"/><circle cx="151.1" cy="112.1" r="1.3" fill="#9A9690" opacity="0.74"/><circle cx="140.7" cy="105.7" r="1.2" fill="#2E2C2A" opacity="0.73"/><circle cx="179.0" cy="188.2" r="2.0" fill="#2E2C2A" opacity="0.57"/><circle cx="192.6" cy="138.0" r="2.0" fill="#2E2C2A" opacity="0.60"/><circle cx="56.1" cy="59.3" r="2.1" fill="#2E2C2A" opacity="0.31"/><circle cx="14.7" cy="71.3" r="1.2" fill="#2E2C2A" opacity="0.55"/><circle cx="39.2" cy="130.1" r="1.0" fill="#2E2C2A" opacity="0.59"/><circle cx="115.6" cy="184.6" r="2.3" fill="#2E2C2A" opacity="0.54"/><circle cx="66.5" cy="65.0" r="2.0" fill="#9A9690" opacity="0.51"/><circle cx="107.6" cy="105.1" r="1.0" fill="#9A9690" opacity="0.75"/><circle cx="135.6" cy="98.4" r="1.9" fill="#2E2C2A" opacity="0.44"/><circle cx="151.3" cy="186.0" r="2.3" fill="#9A9690" opacity="0.51"/><circle cx="14.4" cy="79.7" r="2.0" fill="#9A9690" opacity="0.61"/><circle cx="133.0" cy="17.2" r="1.2" fill="#2E2C2A" opacity="0.57"/><circle cx="85.5" cy="51.0" r="2.3" fill="#9A9690" opacity="0.56"/><circle cx="176.3" cy="70.5" r="1.9" fill="#2E2C2A" opacity="0.72"/><circle cx="124.4" cy="157.8" r="2.4" fill="#2E2C2A" opacity="0.45"/><circle cx="86.0" cy="76.6" r="2.1" fill="#2E2C2A" opacity="0.73"/><circle cx="9.9" cy="94.1" r="1.1" fill="#9A9690" opacity="0.62"/><circle cx="126.4" cy="136.8" r="1.5" fill="#9A9690" opacity="0.64"/><circle cx="169.4" cy="79.5" r="2.0" fill="#9A9690" opacity="0.56"/><circle cx="132.0" cy="167.2" r="1.9" fill="#2E2C2A" opacity="0.35"/><circle cx="155.7" cy="170.9" r="0.7" fill="#9A9690" opacity="0.68"/><circle cx="152.2" cy="76.5" r="2.2" fill="#9A9690" opacity="0.57"/><circle cx="159.2" cy="106.6" r="2.3" fill="#9A9690" opacity="0.46"/><circle cx="29.1" cy="76.8" r="2.5" fill="#2E2C2A" opacity="0.61"/><circle cx="51.3" cy="84.0" r="2.7" fill="#2E2C2A" opacity="0.32"/><circle cx="108.1" cy="128.8" r="2.4" fill="#9A9690" opacity="0.48"/><circle cx="163.0" cy="71.1" r="2.6" fill="#9A9690" opacity="0.46"/><circle cx="83.3" cy="118.9" r="1.7" fill="#2E2C2A" opacity="0.34"/><circle cx="195.5" cy="50.6" r="2.4" fill="#2E2C2A" opacity="0.46"/><circle cx="174.3" cy="170.5" r="1.3" fill="#9A9690" opacity="0.29"/><circle cx="64.8" cy="197.8" r="1.4" fill="#9A9690" opacity="0.69"/><circle cx="37.9" cy="88.6" r="2.5" fill="#9A9690" opacity="0.44"/><circle cx="79.6" cy="191.7" r="0.8" fill="#9A9690" opacity="0.63"/><circle cx="12.5" cy="137.3" r="2.2" fill="#9A9690" opacity="0.39"/><circle cx="52.1" cy="59.4" r="0.8" fill="#9A9690" opacity="0.46"/><circle cx="95.5" cy="151.3" r="1.5" fill="#9A9690" opacity="0.52"/><circle cx="143.1" cy="154.1" r="1.9" fill="#9A9690" opacity="0.50"/><circle cx="54.8" cy="179.8" r="1.7" fill="#2E2C2A" opacity="0.56"/><circle cx="38.7" cy="65.9" r="1.3" fill="#9A9690" opacity="0.51"/><circle cx="73.2" cy="65.0" r="0.7" fill="#2E2C2A" opacity="0.55"/></pattern></defs><rect width="200" height="200" fill="url(#sw-luna-pearl)"/></svg>