<svg xmlns="http://www.w3.org/2000/svg" viewBox="0 0 200 200"><defs><pattern id="sw-marron-baltico" patternUnits="userSpaceOnUse" width="200" height="200"><rect width="200" height="200" fill="#6E4E35"/><circle cx="136.8" cy="63.4" r="0.8" fill="#2A211A" opacity="0.58"/><circle cx="38.5" cy="70.5" r="0.6" fill="#C08A4E" opacity="0.70"/><circle cx="154.4" cy="50.3" r="1.6" fill="#2A211A" opacity="0.26"/><circle cx="92.5" cy="40.6" r="1.8" fill="#2A211A" opacity="0.60"/><circle cx="31.1" cy="93.8" r="1.2" fill="#2A211A" opacity="0.40"/><circle cx="74.7" cy="99.4" r="1.1" fill="#2A211A" opacity="0.27"/><circle cx="142.2" cy="139.5" r="1.4" fill="#2A211A" opacity="0.64"/><circle cx="190.0" cy="177.7" r="0.6" fill="#2A211A" opacity="0.47"/><circle cx="166.7" cy="81.3" r="1.0" fill="#C08A4E" opacity="0.32"/><circle cx="102.6" cy="176.9" r="2.2" fill="#C08A4E" opacity="0.72"/><circle cx="131.6" cy="139.0" r="1.2" fill="#2A211A" opacity="0.43"/><circle cx="47.1" cy="12.8" r="1.3" fill="#2A211A" opacity="0.44"/><circle cx="190.2" cy="169.3" r="2.1" fill="#C08A4E" opacity="0.41"/><circle cx="72.8" cy="194.3" r="0.9" fill="#C08A4E" opacity="0.34"/><circle cx="132.6" cy="110.5" r="2.3" fill="#2A211A" opacity="0.70"/><circle cx="21.9" cy="133.5" r="1.2" fill="#C08A4E" opacity="0.73"/><circle cx="30.3" cy="160.2" r="2.1" fill="#C08A4E" opacity="0.74"/><circle cx="39.8" cy="191.1" r="1.9" fill="#C08A4E" opacity="0.61"/><circle cx="14.2" cy="86.2" r="2.0" fill="#C08A4E" opacity="0.73"/><circle cx="20.6" cy="53.4" r="2.8" fill="#C08A4E" opacity="0.66"/><circle cx="185.5" cy="71.2" r="2.6" fill="#2A211A" opacity="0.74"/><circle cx="183.8" cy="43.9" r="2.4" fill="#2A211A" opacity="0.45"/><circle cx="60.4" cy="90.6" r="1.0" fill="#C08A4E" opacity="0.65"/><circle cx="186.3" cy="167.5" r="2.3" fill="#2A211A" opacity="0.61"/><circle cx="147.4" cy="23.4" r="2.6" fill="#2A211A" opacity="0.44"/><circle cx="166.4" cy="88.5" r="1.2" fill="#C08A4E" opacity="0.75"/><circle cx="58.9" cy="96.7" r="1.1" fill="#C08A4E" opacity="0.28"/><circle cx="121.6" cy="41.3" r="0.6" fill="#2A211A" opacity="0.73"/><circle cx="155.3" cy="63.6" r="1.6" fill="#C08A4E" opacity="0.50"/><circle cx="19.8" cy="75.4" r="1.6" fill="#2A211A" opacity="0.27"/><circle cx="123.2" cy="114.3" r="1.0" fill="#2A211A" opacity="0.36"/><circle cx="43.8" cy="32.8" r="2.1" fill="#C08A4E" opacity="0.45"/><circle cx="85.9" cy="120.3" r="1.7" fill="#C08A4E" opacity="0.64"/><circle cx="168.7" cy="59.1" r="1.8" fill="#C08A4E" opacity="0.38"/><circle cx="48.4" cy="12.6" r="0.9" fill="#2A211A" opacity="0.63"/><circle cx="73.7" cy="48.1" r="1.4" fill="#2A211A" opacity="0.43"/><circle cx="74.9" cy="92.3" r="0.9" fill="#2A211A" opacity="0.34"/><circle cx="185.9" cy="19.7" r="2.5" fill="#2A211A" opacity="0.58"/><circle cx="200.0" cy="75.5" r="1.2" fill="#C08A4E" opacity="0.67"/><circle cx="58.4" cy="30.6" r="0.7" fill="#2A211A" opacity="0.26"/><circle cx="73.0" cy="70.8" r="2.7" fill="#2A211A" opacity="0.36"/><circle cx="81.3" cy="19.0" r="1.0" fill="#C08A4E" opacity="0.42"/><circle cx="135.9" cy="90.6" r="1.4" fill="#2A211A" opacity="0.69"/><circle cx="126.2" cy="182.5" r="1.7" fill="#C08A4E" opacity="0.49"/><circle cx="134.4" cy="95.4" r="1.1" fill="#C08A4E" opacity="0.70"/><circle cx="124.0" cy="89.1" r="1.0" fill="#2A211A" opacity="0.69"/><circle cx="162.3" cy="171.6" r="1.8" fill="#2A211A" opacity="0.53"/><circle cx="175.9" cy="121.3" r="1.8" fill="#2A211A" opacity="0.56"/><circle cx="39.5" cy="42.6" r="2.0" fill="#C08A4E" opacity="0.27"/><circle cx="198.0" cy="54.6" r="1.0" fill="#2A211A" opacity="0.51"/><circle cx="22.5" cy="113.5" r="0.9" fill="#2A211A" opacity="0.55"/><circle cx="98.9" cy="167.9" r="2.1" fill="#2A211A" opacity="0.50"/><circle cx="49.9" cy="48.3" r="1.8" fill="#C08A4E" opacity="0.47"/><circle cx="90.9" cy="88.5" r="0.8" fill="#C08A4E" opacity="0.71"/><circle cx="119.0" cy="81.7" r="1.7" fill="#2A211A" opacity="0.40"/><circle cx="134.6" cy="169.3" r="2.1" fill="#C08A4E" opacity="0.46"/><circle cx="197.7" cy="63.0" r="1.8" fill="#C08A4E" opacity="0.57"/><circle cx="116.3" cy="0.5" r="1.0" fill="#C08A4E" opacity="0.52"/><circle cx="68.9" cy="34.3" r="2.1" fill="#C08A4E" opacity="0.52"/><circle cx="159.6" cy="53.8" r="1.8" fill="#2A211A" opacity="0.68"/><circle cx="107.7" cy="141.1" r="2.2" fill="#C08A4E" opacity="0.41"/><circle cx="69.3" cy="59.9" r="1.9" fill="#2A211A" opacity="0.69"/><circle cx="193.3" cy="77.4" r="1.0" fill="#C08A4E" opacity="0.58"/><circle cx="109.7" cy="120.2" r="1.3" fill="#2A211A" opacity="0.60"/><circle cx="152.7" cy="62.9" r="1.8" fill="#2A211A" opacity="0.51"/><circle cx="115.4" cy="150.6" r="1.7" fill="#2A211A" opacity="0.31"/><circle cx="139.1" cy="154.3" r="2.7" fill="#2A211A" opacity="0.64"/><circle cx="135.6" cy="59.8" r="2.0" fill="#C08A4E" opacity="0.53"/><circle cx="142.5" cy="89.9" r="2.1" fill="#2A211A" opacity="0.42"/><circle cx="12.4" cy="60.2" r="2.3" fill="#2A211A" opacity="0.57"/><circle cx="34.7" cy="67.4" r="2.5" fill="#C08A4E" opacity="0.28"/><circle cx="91.5" cy="112.2" r="2.2" fill="#C08A4E" opacity="0.44"/><circle cx="146.4" cy="54.5" r="2.4" fill="#C08A4E" opacity="0.42"/><circle cx="66.6" cy="102.3" r="1.5" fill="#2A211A" opacity="0.30"/><circle cx="178.8" cy="33.9" r="2.2" fill="#2A211A" opacity="0.42"/><circle cx="157.6" cy="153.9" r="1.1" fill="#C08A4E" opacity="0.75"/><circle cx="48.1" cy="181.1" r="1.3" fill="#C08A4E" opacity="0.65"/><circle cx="21.3" cy="71.9" r="2.3" fill="#C08A4E" opacity="0.40"/><circle cx="62.9" cy="175.0" r="0.7" fill="#C08A4E" opacity="0.59"/><circle cx="195.8" cy="120.6" r="2.0" fill="#C08A4E" opacity="0.35"/><circle cx="35.5" cy="42.8" r="2.8" fill="#C08A4E" opacity="0.41"/><circle cx="78.8" cy="134.6" r="1.3" fill="#C08A4E" opacity="0.48"/><circle cx="126.4" cy="137.5" r="1.7" fill="#C08A4E" opacity="0.46"/><circle cx="38.1" cy="163.1" r="1.5" fill="#C08A4E" opacity="0.51"/><circle cx="22.0" cy="49.3" r="1.1" fill="#C08A4E" opacity="0.47"/><circle cx="56.5" cy="48.3" r="2.7" fill="#2A211A" opacity="0.51"/><circle cx="45.8" cy="49.7" r="0.9" fill="#C08A4E" opacity="0.74"/><circle cx="109.2" cy="135.7" r="2.3" fill="#2A211A" opacity="0.60"/><circle cx="2.8" cy="69.8" r="0.9" fill="#2A211A" opacity="0.54"/><circle cx="75.3" cy="119.2" r="1.2" fill="#C08A4E" opacity="0.63"/><circle cx="157.1" cy="10.6" r="0.7" fill="#C08A4E" opacity="0.40"/><circle cx="182.0" cy="18.5" r="0.7" fill="#C08A4E" opacity="0.60"/><circle cx="143.2" cy="188.2" r="2.4" fill="#C08A4E" opacity="0.73"/><circle cx="182.2" cy="90.5" r="1.0" fill="#2A211A" opacity="0.43"/><circle cx="10.7" cy="111.3" r="2.5" fill="#C08A4E" opacity="0.73"/><circle cx="66.3" cy="73.4" r="2.7" fill="#2A211A" opacity="0.57"/><circle cx="1.4" cy="192.2" r="1.1" fill="#2A211A" opacity="0.72"/><circle cx="105.6" cy="164.7" r="1.9" fill="#C08A4E" opacity="0.47"/><circle cx="61.0" cy="191.5" r="2.2" fill="#C08A4E" opacity="0.71"/><circle cx="31.2" cy="132.4" r="1.2" fill="#2A211A" opacity="0.31"/><circle cx="83.4" cy="195.4" r="1.4" fill="#C08A4E" opacity="0.36"/><circle cx="144.2" cy="159.1" r="1.1" fill="#C08A4E" opacity="0.68"/><circle cx="88.3" cy="127.6" r="1.5" fill="#2A211A" opacity="0.25"/><circle cx="160.7" cy="20.1" r="1.1" fill="#C08A4E" opacity="0.44"/><circle cx="132.5" cy="192.9" r="1.8" fill="#C08A4E" opacity="0.52"/><circle cx="189.4" cy="194.6" r="2.1" fill="#2A211A" opacity="0.58"/><circle cx="154.3" cy="55.5" r="1.2" fill="#2A211A" opacity="0.26"/><circle cx="42.5" cy="109.5" r="2.2" fill="#C08A4E" opacity="0.28"/><circle cx="151.1" cy="150.0" r="1.0" fill="#C08A4E" opacity="0.34"/><circle cx="80.7" cy="118.1" r="1.9" fill="#2A211A" opacity="0.36"/><circle cx="91.0" cy="125.8" r="2.5" fill="#2A211A" opacity="0.49"/><circle cx="190.2" cy="10.5" r="0.7" fill="#C08A4E" opacity="0.57"/><circle cx="156.6" cy="24.8" r="1.3" fill="#2A211A" opacity="0.27"/><circle cx="94.6" cy="58.2" r="0.7" fill="#C08A4E" opacity="0.71"/><circle cx="123.2" cy="192.8" r="1.4" fill="#2A211A" opacity="0.31"/><circle cx="198.7" cy="192.1" r="1.6" fill="#2A211A" opacity="0.54"/><circle cx="69.9" cy="123.5" r="1.5" fill="#2A211A" opacity="0.46"/><circle cx="166.9" cy="113.4" r="0.9" fill="#2A211A" opacity="0.61"/><circle cx="23.8" cy="36.7" r="0.8" fill="#C08A4E" opacity="0.72"/><circle cx="33.6" cy="138.3" r="2.7" fill="#2A211A" opacity="0.30"/><circle cx="137.9" cy="189.2" r="1.6" fill="#C08A4E" opacity="0.50"/><circle cx="48.3" cy="175.3" r="1.4" fill="#C08A4E" opacity="0.34"/><circle cx="2.5" cy="119.3" r="2.4" fill="#C08A4E" opacity="0.26"/><circle cx="52.9" cy="36.8" r="1.7" fill="#C08A4E" opacity="0.53"/><circle cx="89.1" cy="24.5" r="1.4" fill="#2A211A" opacity="0.44"/><circle cx="193.1" cy="83.2" r="0.8" fill="#C08A4E" opacity="0.39"/><circle cx="128.5" cy="72.7" r="1.2" fill="#2A211A" opacity="0.74"/><circle cx="162.7" cy="1.1" r="0.8" fill="#2A211A" opacity="0.57"/><circle cx="22.1" cy="46.7" r="2.4" fill="#2A211A" opacity="0.72"/><circle cx="181.5" cy="113.8" r="2.5" fill="#2A211A" opacity="0.67"/><circle cx="85.8" cy="121.6" r="2.1" fill="#2A211A" opacity="0.27"/><circle cx="106.2" cy="26.3" r="0.8" fill="#C08A4E" opacity="0.30"/><circle cx="28.4" cy="176.6" r="1.4" fill="#C08A4E" opacity="0.36"/><circle cx="75.2" cy="2.8" r="1.1" fill="#C08A4E" opacity="0.58"/><circle cx="62.1" cy="38.8" r="2.8" fill="#C08A4E" opacity="0.67"/><circle cx="86.0" cy="77.9" r="2.6" fill="#2A211A" opacity="0.36"/><circle cx="147.4" cy="61.3" r="2.3" fill="#C08A4E" opacity="0.54"/><circle cx="106.4" cy="100.9" r="2.0" fill="#C08A4E" opacity="0.38"/><circle cx="170.9" cy="34.2" r="1.7" fill="#C08A4E" opacity="0.70"/><circle cx="119.2" cy="113.8" r="1.6" fill="#2A211A" opacity="0.69"/><circle cx="55.8" cy="29.1" r="0.7" fill="#C08A4E" opacity="0.46"/><circle cx="99.7" cy="62.3" r="1.1" fill="#C08A4E" opacity="0.43"/><circle cx="7.2" cy="176.9" r="1.3" fill="#2A211A" opacity="0.58"/><circle cx="127.0" cy="40.3" r="1.4" fill="#C08A4E" opacity="0.45"/><circle cx="89.3" cy="178.8" r="1.1" fill="#2A211A" opacity="0.59"/><circle cx="28.0" cy="67.4" r="1.7" fill="#C08A4E" opacity="0.74"/><circle cx="136.5" cy="150.9" r="2.1" fill="#C08A4E" opacity="0.40"/><circle cx="156.1" cy="0.5" r="1.9" fill="#C08A4E" opacity="0.73"/><circle cx="198.4" cy="1.8" r="2.8" fill="#C08A4E" opacity="0.73"/><circle cx="101.2" cy="177.8" r="0.6" fill="#C08A4E" opacity="0.35"/><circle cx="116.9" cy="143.8" r="1.3" fill="#2A211A" opacity="0.37"/><circle cx="135.0" cy="196.9" r="2.6" fill="#C08A4E" opacity="0.57"/><circle cx="37.6" cy="137.5" r="1.7" fill="#2A211A" opacity="0.35"/><circle cx="188.4" cy="25.6" r="1.9" fill="#2A211A" opacity="0.57"/><circle cx="54.5" cy="69.3" r="1.5" fill="#C08A4E" opacity="0.31"/><circle cx="162.5" cy="46.8" r="1.0" fill="#2A211A" opacity="0.42"/><circle cx="187.1" cy="62.5" r="1.5" fill="#C08A4E" opacity="0.36"/><circle cx="173.5" cy="35.6" r="1.6" fill="#2A211A" opacity="0.50"/><circle cx="92.5" cy="122.3" r="1.0" fill="#C08A4E" opacity="0.61"/><circle cx="129.9" cy="71.2" r="2.6" fill="#2A211A" opacity="0.30"/><circle cx="108.7" cy="112.7" r="1.1" fill="#2A211A" opacity="0.68"/><circle cx="44.2" cy="180.6" r="1.9" fill="#2A211A" opacity="0.48"/><circle cx="33.3" cy="68.3" r="0.9" fill="#2A211A" opacity="0.41"/><circle cx="76.7" cy="117.0" r="2.3" fill="#C08A4E" opacity="0.37"/><circle cx="34.3" cy="38.5" r="1.6" fill="#C08A4E" opacity="0.55"/><circle cx="114.0" cy="70.4" r="1.1" fill="#2A211A" opacity="0.74"/><circle cx="94.3" cy="65.3" r="1.0" fill="#C08A4E" opacity="0.64"/><circle cx="79.5" cy="112.6" r="2.5" fill="#2A211A" opacity="0.37"/><circle cx="188.7" cy="94.4" r="1.0" fill="#2A211A" opacity="0.34"/><circle cx="178.1" cy="174.3" r="1.8" fill="#C08A4E" opacity="0.52"/><circle cx="196.5" cy="19.5" r="2.6" fill="#C08A4E" opacity="0.47"/><circle cx="74.1" cy="156.7" r="1.0" fill="#2A211A" opacity="0.74"/><circle cx="144.8" cy="60.5" r="2.6" fill="#2A211A" opacity="0.55"/><circle cx="1.9" cy="176.0" r="2.1" fill="#C08A4E" opacity="0.41"/><circle cx="186.8" cy="74.2" r="1.1" fill="#C08A4E" opacity="0.48"/><circle cx="11.0" cy="140.8" r="1.5" fill="#2A211A" opacity="0.27"/><circle cx="112.4" cy="198.7" r="1.1" fill="#2A211A" opacity="0.73"/><circle cx="143.4" cy="63.4" r="1.7" fill="#C08A4E" opacity="0.62"/><circle cx="193.5" cy="31.7" r="0.7" fill="#C08A4E" opacity="0.73"/><circle cx="144.7" cy="104.3" r="2.1" fill="#2A211A" opacity="0.46"/><circle cx="160.7" cy="141.0" r="2.7" fill="#C08A4E" opacity="0.68"/><circle cx="108.8" cy="149.9" r="0.6" fill="#C08A4E" opacity="0.46"/><circle cx="115.4" cy="109.4" r="0.9" fill="#C08A4E" opacity="0.65"/><circle cx="55.3" cy="123.8" r="2.3" fill="#2A211A" opacity="0.71"/><circle cx="173.6" cy="112.1" r="1.3" fill="#C08A4E" opacity="0.52"/><circle cx="41.2" cy="30.7" r="1.9" fill="#2A211A" opacity="0.33"/><circle cx="43.9" cy="28.3" r="2.8" fill="#C08A4E" opacity="0.26"/><circle cx="4.6" cy="135.0" r="0.7" fill="#C08A4E" opacity="0.43"/><circle cx="138.7" cy="84.9" r="1.1" fill="#2A211A" opacity="0.56"/><circle cx="143.1" cy="71.2" r="2.2" fill="#2A211A" opacity="0.36"/><circle cx="18.5" cy="35.2" r="1.4" fill="#2A211A" opacity="0.74"/><circle cx="24.7" cy="88.6" r="0.8" fill="#C08A4E" opacity="0.37"/><circle cx="169.7" cy="69.2" r="0.6" fill="#C08A4E" opacity="0.56"/><circle cx="32.0" cy="29.3" r="1.1" fill="#2A211A" opacity="0.50"/><circle cx="115.8" cy="58.5" r="1.1" fill="#2A211A" opacity="0.30"/><circle cx="140.2" cy="38.9" r="2.7" fill="#2A211A" opacity="0.40"/><circle cx="61.6" cy="134.1" r="2.4" fill="#C08A4E" opacity="0.74"/><circle cx="28.6" cy="11.3" r="2.2" fill="#C08A4E" opacity="0.40"/><circle cx="71.4" cy="197.1" r="2.1" fill="#2A211A" opacity="0.41"/><circle cx="124.1" cy="166.2" r="0.9" fill="#C08A4E" opacity="0.51"/><circle cx="179.8" cy="163.6" r="2.2" fill="#C08A4E" opacity="0.71"/><circle cx="179.9" cy="160.4" r="1.1" fill="#2A211A" opacity="0.65"/><circle cx="36.2" cy="142.3" r="1.4" fill="#2A211A" opacity="0.35"/><circle cx="186.2" cy="132.2" r="1.2" fill="#C08A4E" opacity="0.26"/><circle cx="82.4" cy="145.5" r="2.1" fill="#C08A4E" opacity="0.64"/><circle cx="14.4" cy="79.1" r="1.7" fill="#C08A4E" opacity="0.30"/><circle cx="64.3" cy="133.6" r="1.7" fill="#C08A4E" opacity="0.61"/><circle cx="195.5" cy="168.9" r="0.9" fill="#2A211A" opacity="0.45"/><circle cx="75.5" cy="193.1" r="2.1" fill="#C08A4E" opacity="0.39"/><circle cx="30.8" cy="184.5" r="1.5" fill="#2A211A" opacity="0.28"/><circle cx="136.0" cy="47.5" r="2.1" fill="#C08A4E" opacity="0.60"/><circle cx="36.2" cy="101.1" r="2.8" fill="#C08A4E" opacity="0.69"/><circle cx="102.4" cy="101.7" r="0.8" fill="#C08A4E" opacity="0.33"/><circle cx="120.4" cy="197.8" r="1.4" fill="#C08A4E" opacity="0.63"/><circle cx="113.1" cy="19.8" r="1.6" fill="#2A211A" opacity="0.71"/><circle cx="95.8" cy="101.7" r="2.1" fill="#2A211A" opacity="0.30"/><circle cx="165.5" cy="36.6" r="1.3" fill="#C08A4E" opacity="0.60"/><circle cx="122.8" cy="165.8" r="1.1" fill="#2A211A" opacity="0.52"/><circle cx="27.6" cy="1.2" r="1.2" fill="#C08A4E" opacity="0.72"/><circle cx="87.9" cy="180.4" r="1.9" fill="#2A211A" opacity="0.54"/></pattern></defs><rect width="200" height="200" fill="url(#sw-marron-baltico)"/></svg>