<svg xmlns="http://www.w3.org/2000/svg" viewBox="0 0 200 200"><defs><pattern id="sw-negro-marquina" patternUnits="userSpaceOnUse" width="200" height="200"><rect width="200" height="200" fill="#1E2022"/><polyline points="0,120 33,105 67,134 100,119 133,143 167,97" fill="none" stroke="#F4F4F2" stroke-width="3.1" opacity="0.32" stroke-linecap="round"/><polyline points="0,111 33,100 67,73 100,58 133,115 167,111" fill="none" stroke="#F4F4F2" stroke-width="3.5" opacity="0.33" stroke-linecap="round"/><polyline points="0,112 33,123 67,126 100,129 133,96 167,82" fill="none" stroke="#3A3D3F" stroke-width="3.9" opacity="0.43" stroke-linecap="round"/><polyline points="0,-10 33,39 67,21 100,-11 133,23 167,17" fill="none" stroke="#F4F4F2" stroke-width="1.9" opacity="0.32" stroke-linecap="round"/><polyline points="0,83 33,48 67,26 100,45 133,26 167,45" fill="none" stroke="#F4F4F2" stroke-width="1.4" opacity="0.51" stroke-linecap="round"/><polyline points="0,117 33,86 67,77 100,97 133,110 167,101" fill="none" stroke="#3A3D3F" stroke-width="3.0" opacity="0.68" stroke-linecap="round"/><polyline points="0,230 33,221 67,173 100,210 133,203 167,185" fill="none" stroke="#F4F4F2" stroke-width="1.6" opacity="0.55" stroke-linecap="round"/></pattern></defs><rect width="200" height="200" fill="url(#sw-negro-marquina)"/></svg>