<svg xmlns="http://www.w3.org/2000/svg" viewBox="0 0 200 200"><defs><pattern id="sw-negro-absoluto" patternUnits="userSpaceOnUse" width="200" height="200"><rect width="200" height="200" fill="#232526"/><circle cx="103.6" cy="153.8" r="2.1" fill="#1B1D1E" opacity="0.35"/><circle cx="20.7" cy="137.9" r="2.1" fill="#2E3132" opacity="0.28"/><circle cx="123.5" cy="192.3" r="2.5" fill="#1B1D1E" opacity="0.36"/><circle cx="94.2" cy="117.7" r="2.6" fill="#1B1D1E" opacity="0.47"/><circle cx="96.3" cy="173.9" r="1.6" fill="#1B1D1E" opacity="0.49"/><circle cx="197.1" cy="168.9" r="1.9" fill="#2E3132" opacity="0.49"/><circle cx="123.2" cy="81.1" r="2.0" fill="#2E3132" opacity="0.31"/><circle cx="149.2" cy="14.9" r="0.7" fill="#1B1D1E" opacity="0.42"/><circle cx="120.3" cy="89.4" r="1.0" fill="#1B1D1E" opacity="0.69"/><circle cx="7.3" cy="60.8" r="2.6" fill="#1B1D1E" opacity="0.39"/><circle cx="196.2" cy="77.7" r="1.8" fill="#1B1D1E" opacity="0.61"/><circle cx="109.7" cy="170.6" r="2.2" fill="#2E3132" opacity="0.50"/><circle cx="163.2" cy="73.3" r="2.4" fill="#1B1D1E" opacity="0.26"/><circle cx="53.8" cy="179.0" r="0.7" fill="#1B1D1E" opacity="0.61"/><circle cx="181.9" cy="29.1" r="1.3" fill="#2E3132" opacity="0.46"/><circle cx="7.5" cy="135.3" r="1.6" fill="#1B1D1E" opacity="0.47"/><circle cx="138.6" cy="135.3" r="2.0" fill="#2E3132" opacity="0.45"/><circle cx="153.7" cy="81.6" r="2.7" fill="#1B1D1E" opacity="0.61"/><circle cx="156.9" cy="63.6" r="2.6" fill="#1B1D1E" opacity="0.54"/><circle cx="67.5" cy="163.4" r="1.5" fill="#1B1D1E" opacity="0.69"/><circle cx="41.6" cy="144.7" r="2.4" fill="#1B1D1E" opacity="0.50"/><circle cx="28.1" cy="74.7" r="1.1" fill="#1B1D1E" opacity="0.54"/><circle cx="57.0" cy="80.0" r="1.5" fill="#1B1D1E" opacity="0.35"/><circle cx="62.5" cy="35.2" r="2.8" fill="#2E3132" opacity="0.66"/><circle cx="37.6" cy="185.4" r="1.7" fill="#1B1D1E" opacity="0.49"/><circle cx="123.9" cy="101.6" r="2.3" fill="#2E3132" opacity="0.48"/><circle cx="32.9" cy="169.6" r="1.7" fill="#1B1D1E" opacity="0.65"/><circle cx="2.3" cy="12.2" r="2.5" fill="#1B1D1E" opacity="0.44"/><circle cx="84.7" cy="44.9" r="1.7" fill="#2E3132" opacity="0.62"/><circle cx="169.5" cy="164.7" r="1.5" fill="#2E3132" opacity="0.49"/><circle cx="138.8" cy="172.0" r="1.3" fill="#2E3132" opacity="0.43"/><circle cx="156.1" cy="126.8" r="2.3" fill="#1B1D1E" opacity="0.32"/><circle cx="88.9" cy="37.0" r="2.6" fill="#2E3132" opacity="0.73"/><circle cx="63.6" cy="81.2" r="0.7" fill="#2E3132" opacity="0.50"/><circle cx="154.9" cy="163.6" r="1.9" fill="#2E3132" opacity="0.62"/><circle cx="7.9" cy="3.4" r="2.7" fill="#1B1D1E" opacity="0.42"/><circle cx="193.6" cy="156.7" r="0.7" fill="#1B1D1E" opacity="0.70"/><circle cx="97.7" cy="172.3" r="0.8" fill="#1B1D1E" opacity="0.55"/><circle cx="143.1" cy="80.4" r="2.2" fill="#1B1D1E" opacity="0.59"/><circle cx="145.3" cy="15.1" r="1.5" fill="#2E3132" opacity="0.56"/><circle cx="1.1" cy="169.4" r="1.3" fill="#2E3132" opacity="0.66"/><circle cx="111.2" cy="84.8" r="1.2" fill="#2E3132" opacity="0.29"/><circle cx="135.4" cy="72.9" r="1.2" fill="#1B1D1E" opacity="0.63"/><circle cx="81.8" cy="171.6" r="1.5" fill="#2E3132" opacity="0.49"/><circle cx="128.8" cy="33.1" r="2.1" fill="#2E3132" opacity="0.56"/><circle cx="180.6" cy="147.0" r="2.1" fill="#2E3132" opacity="0.45"/><circle cx="156.5" cy="195.5" r="1.4" fill="#1B1D1E" opacity="0.59"/><circle cx="12.6" cy="142.0" r="0.7" fill="#2E3132" opacity="0.44"/><circle cx="97.6" cy="54.0" r="2.2" fill="#1B1D1E" opacity="0.56"/><circle cx="41.9" cy="57.8" r="1.4" fill="#1B1D1E" opacity="0.49"/><circle cx="179.3" cy="28.3" r="1.5" fill="#2E3132" opacity="0.47"/><circle cx="103.0" cy="10.5" r="1.7" fill="#1B1D1E" opacity="0.50"/><circle cx="154.5" cy="175.3" r="1.5" fill="#2E3132" opacity="0.74"/><circle cx="45.5" cy="108.6" r="2.6" fill="#1B1D1E" opacity="0.69"/><circle cx="13.5" cy="33.2" r="0.8" fill="#2E3132" opacity="0.32"/><circle cx="111.2" cy="164.5" r="2.0" fill="#2E3132" opacity="0.37"/><circle cx="27.9" cy="199.5" r="1.8" fill="#1B1D1E" opacity="0.65"/><circle cx="45.8" cy="138.7" r="1.8" fill="#2E3132" opacity="0.55"/><circle cx="128.5" cy="42.1" r="0.9" fill="#2E3132" opacity="0.43"/><circle cx="143.2" cy="117.7" r="1.7" fill="#2E3132" opacity="0.38"/><circle cx="16.5" cy="143.9" r="2.7" fill="#1B1D1E" opacity="0.73"/><circle cx="23.1" cy="24.9" r="2.7" fill="#1B1D1E" opacity="0.47"/><circle cx="8.0" cy="79.9" r="2.4" fill="#2E3132" opacity="0.44"/><circle cx="142.3" cy="65.2" r="1.6" fill="#2E3132" opacity="0.42"/><circle cx="11.7" cy="129.4" r="0.9" fill="#2E3132" opacity="0.51"/><circle cx="39.1" cy="102.8" r="1.9" fill="#2E3132" opacity="0.35"/><circle cx="39.8" cy="119.3" r="0.8" fill="#2E3132" opacity="0.65"/><circle cx="110.9" cy="172.3" r="2.5" fill="#1B1D1E" opacity="0.62"/><circle cx="53.0" cy="2.9" r="2.5" fill="#1B1D1E" opacity="0.66"/><circle cx="125.8" cy="123.1" r="2.6" fill="#1B1D1E" opacity="0.46"/><circle cx="137.5" cy="170.3" r="1.0" fill="#2E3132" opacity="0.31"/><circle cx="66.4" cy="197.1" r="2.2" fill="#1B1D1E" opacity="0.42"/><circle cx="16.9" cy="93.0" r="0.7" fill="#2E3132" opacity="0.39"/><circle cx="108.0" cy="140.0" r="0.9" fill="#1B1D1E" opacity="0.65"/><circle cx="96.0" cy="101.9" r="1.3" fill="#2E3132" opacity="0.66"/><circle cx="129.7" cy="45.8" r="1.9" fill="#1B1D1E" opacity="0.49"/><circle cx="39.2" cy="98.2" r="2.5" fill="#1B1D1E" opacity="0.66"/><circle cx="158.6" cy="134.0" r="2.0" fill="#2E3132" opacity="0.43"/><circle cx="80.9" cy="198.1" r="1.9" fill="#1B1D1E" opacity="0.29"/><circle cx="147.7" cy="61.5" r="1.5" fill="#1B1D1E" opacity="0.40"/><circle cx="70.6" cy="110.1" r="2.5" fill="#1B1D1E" opacity="0.27"/><circle cx="87.3" cy="166.6" r="0.9" fill="#1B1D1E" opacity="0.35"/><circle cx="50.2" cy="46.6" r="2.5" fill="#2E3132" opacity="0.40"/><circle cx="48.9" cy="46.8" r="0.6" fill="#2E3132" opacity="0.72"/><circle cx="165.4" cy="168.0" r="1.3" fill="#1B1D1E" opacity="0.69"/><circle cx="163.3" cy="70.0" r="1.3" fill="#2E3132" opacity="0.70"/><circle cx="110.0" cy="160.9" r="1.0" fill="#1B1D1E" opacity="0.31"/><circle cx="131.9" cy="19.0" r="1.1" fill="#2E3132" opacity="0.37"/><circle cx="103.8" cy="148.6" r="2.5" fill="#1B1D1E" opacity="0.35"/><circle cx="70.6" cy="68.9" r="1.7" fill="#1B1D1E" opacity="0.61"/><circle cx="3.5" cy="136.1" r="2.7" fill="#1B1D1E" opacity="0.42"/><circle cx="88.2" cy="98.9" r="1.8" fill="#2E3132" opacity="0.39"/><circle cx="147.5" cy="187.6" r="2.7" fill="#1B1D1E" opacity="0.63"/><circle cx="196.9" cy="136.1" r="1.8" fill="#2E3132" opacity="0.39"/><circle cx="133.3" cy="137.7" r="1.7" fill="#2E3132" opacity="0.35"/><circle cx="157.2" cy="133.6" r="2.2" fill="#2E3132" opacity="0.44"/><circle cx="128.7" cy="35.7" r="0.8" fill="#1B1D1E" opacity="0.31"/><circle cx="55.7" cy="81.5" r="2.3" fill="#1B1D1E" opacity="0.29"/><circle cx="116.5" cy="123.6" r="2.4" fill="#2E3132" opacity="0.56"/><circle cx="15.6" cy="51.4" r="2.2" fill="#1B1D1E" opacity="0.73"/><circle cx="72.0" cy="147.1" r="1.7" fill="#2E3132" opacity="0.74"/><circle cx="42.0" cy="174.2" r="1.4" fill="#2E3132" opacity="0.54"/><circle cx="74.2" cy="0.0" r="1.7" fill="#1B1D1E" opacity="0.70"/><circle cx="199.0" cy="151.1" r="2.1" fill="#2E3132" opacity="0.74"/><circle cx="150.3" cy="102.2" r="1.6" fill="#2E3132" opacity="0.42"/><circle cx="121.3" cy="98.2" r="1.6" fill="#2E3132" opacity="0.74"/><circle cx="53.4" cy="110.3" r="1.6" fill="#1B1D1E" opacity="0.34"/><circle cx="58.2" cy="124.1" r="0.9" fill="#2E3132" opacity="0.25"/><circle cx="173.5" cy="162.6" r="2.2" fill="#2E3132" opacity="0.41"/><circle cx="51.7" cy="41.1" r="2.5" fill="#2E3132" opacity="0.58"/><circle cx="182.3" cy="56.7" r="1.8" fill="#2E3132" opacity="0.56"/><circle cx="47.4" cy="9.8" r="1.5" fill="#1B1D1E" opacity="0.74"/><circle cx="10.7" cy="160.4" r="0.7" fill="#2E3132" opacity="0.50"/><circle cx="139.3" cy="116.6" r="2.1" fill="#1B1D1E" opacity="0.40"/><circle cx="159.8" cy="56.6" r="1.8" fill="#1B1D1E" opacity="0.29"/><circle cx="146.9" cy="84.8" r="0.8" fill="#1B1D1E" opacity="0.64"/><circle cx="145.8" cy="120.4" r="2.2" fill="#1B1D1E" opacity="0.31"/><circle cx="127.2" cy="119.6" r="1.1" fill="#2E3132" opacity="0.58"/><circle cx="77.2" cy="31.0" r="0.6" fill="#2E3132" opacity="0.54"/><circle cx="18.5" cy="84.9" r="2.1" fill="#1B1D1E" opacity="0.32"/><circle cx="166.5" cy="15.4" r="1.8" fill="#1B1D1E" opacity="0.66"/><circle cx="18.1" cy="15.6" r="2.7" fill="#1B1D1E" opacity="0.74"/><circle cx="174.0" cy="26.8" r="2.0" fill="#1B1D1E" opacity="0.49"/><circle cx="94.1" cy="160.8" r="1.9" fill="#2E3132" opacity="0.57"/><circle cx="186.3" cy="55.2" r="2.7" fill="#2E3132" opacity="0.30"/><circle cx="29.1" cy="162.6" r="2.2" fill="#2E3132" opacity="0.35"/><circle cx="126.8" cy="172.4" r="1.6" fill="#1B1D1E" opacity="0.36"/><circle cx="198.5" cy="166.7" r="0.9" fill="#1B1D1E" opacity="0.74"/><circle cx="0.4" cy="109.1" r="0.7" fill="#1B1D1E" opacity="0.45"/><circle cx="81.3" cy="66.8" r="1.0" fill="#2E3132" opacity="0.56"/><circle cx="71.4" cy="166.5" r="1.8" fill="#1B1D1E" opacity="0.60"/><circle cx="104.6" cy="82.8" r="1.9" fill="#2E3132" opacity="0.32"/><circle cx="174.2" cy="60.8" r="2.6" fill="#2E3132" opacity="0.72"/><circle cx="21.5" cy="71.5" r="1.3" fill="#1B1D1E" opacity="0.44"/><circle cx="158.3" cy="100.6" r="1.7" fill="#2E3132" opacity="0.52"/><circle cx="22.2" cy="171.0" r="2.1" fill="#2E3132" opacity="0.38"/><circle cx="65.7" cy="98.2" r="1.6" fill="#2E3132" opacity="0.30"/><circle cx="178.3" cy="179.0" r="2.5" fill="#2E3132" opacity="0.57"/><circle cx="42.0" cy="14.1" r="1.8" fill="#2E3132" opacity="0.58"/><circle cx="20.5" cy="63.3" r="0.9" fill="#2E3132" opacity="0.70"/><circle cx="181.0" cy="134.7" r="2.2" fill="#1B1D1E" opacity="0.52"/><circle cx="50.2" cy="6.7" r="2.1" fill="#2E3132" opacity="0.36"/><circle cx="102.6" cy="183.6" r="1.4" fill="#1B1D1E" opacity="0.71"/><circle cx="183.4" cy="184.4" r="1.1" fill="#1B1D1E" opacity="0.42"/><circle cx="63.5" cy="165.5" r="0.8" fill="#2E3132" opacity="0.26"/><circle cx="128.7" cy="75.5" r="1.2" fill="#1B1D1E" opacity="0.35"/><circle cx="1.9" cy="144.8" r="1.5" fill="#2E3132" opacity="0.30"/><circle cx="98.5" cy="107.2" r="2.6" fill="#2E3132" opacity="0.34"/><circle cx="115.4" cy="156.0" r="2.7" fill="#2E3132" opacity="0.67"/><circle cx="53.3" cy="32.5" r="1.5" fill="#2E3132" opacity="0.70"/><circle cx="172.0" cy="48.4" r="1.0" fill="#2E3132" opacity="0.61"/><circle cx="79.5" cy="41.5" r="1.5" fill="#2E3132" opacity="0.71"/><circle cx="154.2" cy="64.1" r="1.1" fill="#1B1D1E" opacity="0.68"/><circle cx="100.5" cy="5.8" r="0.6" fill="#1B1D1E" opacity="0.64"/><circle cx="37.5" cy="148.7" r="2.4" fill="#2E3132" opacity="0.51"/><circle cx="121.4" cy="56.4" r="2.7" fill="#2E3132" opacity="0.27"/><circle cx="100.9" cy="196.1" r="1.7" fill="#2E3132" opacity="0.46"/><circle cx="6.2" cy="94.4" r="1.1" fill="#1B1D1E" opacity="0.62"/><circle cx="171.4" cy="26.0" r="2.3" fill="#2E3132" opacity="0.50"/><circle cx="189.6" cy="35.9" r="2.1" fill="#2E3132" opacity="0.61"/><circle cx="2.2" cy="95.2" r="2.2" fill="#2E3132" opacity="0.58"/><circle cx="120.9" cy="189.6" r="2.1" fill="#2E3132" opacity="0.44"/><circle cx="183.5" cy="142.0" r="2.0" fill="#2E3132" opacity="0.63"/><circle cx="42.2" cy="167.7" r="1.4" fill="#1B1D1E" opacity="0.42"/><circle cx="186.7" cy="163.8" r="2.3" fill="#2E3132" opacity="0.60"/><circle cx="99.1" cy="130.9" r="1.8" fill="#2E3132" opacity="0.57"/><circle cx="142.8" cy="128.7" r="1.2" fill="#2E3132" opacity="0.69"/><circle cx="185.3" cy="165.4" r="0.9" fill="#1B1D1E" opacity="0.54"/><circle cx="153.1" cy="19.3" r="1.4" fill="#1B1D1E" opacity="0.46"/><circle cx="120.8" cy="194.8" r="1.7" fill="#2E3132" opacity="0.43"/><circle cx="133.5" cy="10.9" r="2.4" fill="#1B1D1E" opacity="0.30"/><circle cx="162.2" cy="24.0" r="1.2" fill="#2E3132" opacity="0.36"/><circle cx="192.7" cy="182.6" r="0.9" fill="#2E3132" opacity="0.69"/><circle cx="47.9" cy="117.1" r="0.6" fill="#2E3132" opacity="0.43"/><circle cx="143.1" cy="161.5" r="1.3" fill="#1B1D1E" opacity="0.29"/><circle cx="175.3" cy="108.8" r="1.2" fill="#1B1D1E" opacity="0.50"/><circle cx="145.1" cy="100.6" r="2.1" fill="#2E3132" opacity="0.45"/><circle cx="112.4" cy="48.5" r="1.8" fill="#2E3132" opacity="0.31"/><circle cx="85.2" cy="190.2" r="2.7" fill="#1B1D1E" opacity="0.40"/><circle cx="41.9" cy="178.1" r="2.8" fill="#1B1D1E" opacity="0.41"/><circle cx="86.8" cy="101.8" r="0.9" fill="#1B1D1E" opacity="0.45"/><circle cx="139.0" cy="43.3" r="1.4" fill="#1B1D1E" opacity="0.45"/><circle cx="154.8" cy="166.2" r="2.8" fill="#1B1D1E" opacity="0.36"/><circle cx="82.9" cy="137.9" r="0.8" fill="#1B1D1E" opacity="0.26"/><circle cx="153.6" cy="84.8" r="1.7" fill="#2E3132" opacity="0.67"/><circle cx="100.7" cy="81.7" r="2.3" fill="#1B1D1E" opacity="0.34"/><circle cx="117.5" cy="173.6" r="1.7" fill="#2E3132" opacity="0.27"/><circle cx="145.4" cy="131.4" r="1.6" fill="#1B1D1E" opacity="0.62"/><circle cx="96.1" cy="141.1" r="1.4" fill="#2E3132" opacity="0.39"/><circle cx="7.2" cy="25.4" r="1.6" fill="#1B1D1E" opacity="0.54"/><circle cx="131.2" cy="199.8" r="1.3" fill="#1B1D1E" opacity="0.32"/><circle cx="157.7" cy="161.2" r="2.7" fill="#1B1D1E" opacity="0.54"/><circle cx="168.6" cy="110.2" r="0.7" fill="#1B1D1E" opacity="0.59"/><circle cx="127.7" cy="106.6" r="1.0" fill="#2E3132" opacity="0.33"/><circle cx="102.1" cy="158.6" r="1.8" fill="#1B1D1E" opacity="0.35"/><circle cx="18.5" cy="44.4" r="1.4" fill="#1B1D1E" opacity="0.47"/><circle cx="151.4" cy="68.5" r="0.9" fill="#2E3132" opacity="0.69"/><circle cx="146.1" cy="149.9" r="1.2" fill="#2E3132" opacity="0.35"/><circle cx="173.4" cy="44.9" r="1.7" fill="#1B1D1E" opacity="0.73"/><circle cx="19.2" cy="102.2" r="1.2" fill="#1B1D1E" opacity="0.44"/><circle cx="106.3" cy="152.0" r="0.9" fill="#1B1D1E" opacity="0.59"/><circle cx="50.1" cy="128.3" r="1.8" fill="#1B1D1E" opacity="0.41"/><circle cx="147.6" cy="24.2" r="2.0" fill="#2E3132" opacity="0.61"/><circle cx="199.4" cy="181.3" r="1.3" fill="#2E3132" opacity="0.60"/><circle cx="65.3" cy="111.1" r="1.7" fill="#1B1D1E" opacity="0.54"/><circle cx="153.3" cy="51.4" r="1.3" fill="#2E3132" opacity="0.26"/><circle cx="42.0" cy="54.6" r="2.5" fill="#2E3132" opacity="0.43"/><circle cx="35.5" cy="10.2" r="1.8" fill="#1B1D1E" opacity="0.67"/><circle cx="53.0" cy="0.3" r="1.6" fill="#2E3132" opacity="0.41"/><circle cx="50.8" cy="188.6" r="2.4" fill="#2E3132" opacity="0.62"/><circle cx="177.5" cy="42.2" r="2.2" fill="#2E3132" opacity="0.34"/><circle cx="63.4" cy="87.7" r="0.7" fill="#2E3132" opacity="0.63"/><circle cx="42.5" cy="199.9" r="1.3" fill="#1B1D1E" opacity="0.71"/><circle cx="107.9" cy="23.7" r="0.9" fill="#2E3132" opacity="0.60"/><circle cx="1.1" cy="130.2" r="1.1" fill="#1B1D1E" opacity="0.43"/><circle cx="33.7" cy="105.1" r="1.5" fill="#2E3132" opacity="0.75"/><circle cx="43.4" cy="171.4" r="2.4" fill="#1B1D1E" opacity="0.47"/><circle cx="82.7" cy="144.4" r="0.8" fill="#1B1D1E" opacity="0.38"/><circle cx="41.1" cy="121.0" r="1.1" fill="#1B1D1E" opacity="0.27"/><circle cx="0.7" cy="101.9" r="2.6" fill="#1B1D1E" opacity="0.52"/></pattern></defs><rect width="200" height="200" fill="url(#sw-negro-absoluto)"/></svg>