<svg xmlns="http://www.w3.org/2000/svg" viewBox="0 0 200 200"><defs><pattern id="sw-smithtown" patternUnits="userSpaceOnUse" width="200" height="200"><rect width="200" height="200" fill="#EDEDEA"/><polyline points="0,67 33,96 67,125 100,115 133,123 167,89" fill="none" stroke="#B9BCC0" stroke-width="1.9" opacity="0.54" stroke-linecap="round"/><polyline points="0,35 33,33 67,40 100,65 133,71 167,44" fill="none" stroke="#B9BCC0" stroke-width="3.9" opacity="0.56" stroke-linecap="round"/><polyline points="0,218 33,201 67,205 100,212 133,163 167,162" fill="none" stroke="#8C9095" stroke-width="1.4" opacity="0.48" stroke-linecap="round"/><polyline points="0,72 33,129 67,76 100,83 133,67 167,108" fill="none" stroke="#B9BCC0" stroke-width="1.0" opacity="0.39" stroke-linecap="round"/><polyline points="0,75 33,84 67,62 100,86 133,51 167,82" fill="none" stroke="#B9BCC0" stroke-width="3.6" opacity="0.39" stroke-linecap="round"/><polyline points="0,86 33,133 67,89 100,148 133,111 167,80" fill="none" stroke="#8C9095" stroke-width="3.9" opacity="0.58" stroke-linecap="round"/><polyline points="0,111 33,144 67,96 100,138 133,116 167,110" fill="none" stroke="#B9BCC0" stroke-width="2.6" opacity="0.67" stroke-linecap="round"/></pattern></defs><rect width="200" height="200" fill="url(#sw-smithtown)"/></svg>