<svg xmlns="http://www.w3.org/2000/svg" viewBox="0 0 200 200"><defs><pattern id="sw-taj-mahal" patternUnits="userSpaceOnUse" width="200" height="200"><rect width="200" height="200" fill="#E8E0D2"/><polyline points="0,83 33,53 67,103 100,74 133,117 167,57" fill="none" stroke="#C9A87A" stroke-width="1.1" opacity="0.37" stroke-linecap="round"/><polyline points="0,208 33,147 67,175 100,181 133,153 167,170" fill="none" stroke="#C9A87A" stroke-width="1.9" opacity="0.63" stroke-linecap="round"/><polyline points="0,8 33,3 67,27 100,15 133,3 167,-26" fill="none" stroke="#B0A48C" stroke-width="1.1" opacity="0.38" stroke-linecap="round"/><polyline points="0,19 33,19 67,56 100,44 133,64 167,9" fill="none" stroke="#C9A87A" stroke-width="2.5" opacity="0.52" stroke-linecap="round"/><polyline points="0,111 33,131 67,129 100,135 133,135 167,140" fill="none" stroke="#C9A87A" stroke-width="3.8" opacity="0.36" stroke-linecap="round"/><polyline points="0,78 33,68 67,114 100,85 133,83 167,95" fill="none" stroke="#B0A48C" stroke-width="2.9" opacity="0.38" stroke-linecap="round"/><polyline points="0,-9 33,36 67,9 100,31 133,-25 167,12" fill="none" stroke="#C9A87A" stroke-width="3.3" opacity="0.70" stroke-linecap="round"/></pattern></defs><rect width="200" height="200" fill="url(#sw-taj-mahal)"/></svg>