<svg xmlns="http://www.w3.org/2000/svg" viewBox="0 0 200 200"><defs><pattern id="sw-verde-ubatuba" patternUnits="userSpaceOnUse" width="200" height="200"><rect width="200" height="200" fill="#22392E"/><circle cx="102.7" cy="11.6" r="0.8" fill="#C7A94F" opacity="0.26"/><circle cx="127.8" cy="133.3" r="2.2" fill="#101B15" opacity="0.27"/><circle cx="109.1" cy="140.2" r="1.6" fill="#C7A94F" opacity="0.28"/><circle cx="84.1" cy="55.1" r="1.8" fill="#101B15" opacity="0.26"/><circle cx="105.3" cy="93.4" r="1.8" fill="#101B15" opacity="0.45"/><circle cx="62.3" cy="152.0" r="1.7" fill="#C7A94F" opacity="0.67"/><circle cx="37.2" cy="31.5" r="0.8" fill="#C7A94F" opacity="0.29"/><circle cx="193.5" cy="191.8" r="2.5" fill="#C7A94F" opacity="0.69"/><circle cx="198.5" cy="41.0" r="0.7" fill="#C7A94F" opacity="0.45"/><circle cx="178.7" cy="157.4" r="2.5" fill="#C7A94F" opacity="0.40"/><circle cx="8.9" cy="45.4" r="2.3" fill="#101B15" opacity="0.53"/><circle cx="134.1" cy="24.1" r="1.1" fill="#101B15" opacity="0.68"/><circle cx="125.3" cy="49.6" r="2.7" fill="#101B15" opacity="0.64"/><circle cx="168.3" cy="70.7" r="1.4" fill="#C7A94F" opacity="0.50"/><circle cx="86.0" cy="117.7" r="0.8" fill="#101B15" opacity="0.40"/><circle cx="93.7" cy="124.6" r="1.6" fill="#101B15" opacity="0.55"/><circle cx="88.4" cy="84.5" r="2.1" fill="#C7A94F" opacity="0.66"/><circle cx="70.7" cy="138.7" r="2.1" fill="#C7A94F" opacity="0.64"/><circle cx="100.5" cy="199.1" r="1.4" fill="#C7A94F" opacity="0.66"/><circle cx="185.8" cy="103.3" r="2.5" fill="#C7A94F" opacity="0.53"/><circle cx="105.0" cy="103.7" r="1.0" fill="#101B15" opacity="0.45"/><circle cx="162.4" cy="89.9" r="2.5" fill="#C7A94F" opacity="0.52"/><circle cx="77.2" cy="143.9" r="2.6" fill="#101B15" opacity="0.67"/><circle cx="5.5" cy="29.4" r="2.0" fill="#101B15" opacity="0.37"/><circle cx="96.1" cy="13.5" r="0.6" fill="#C7A94F" opacity="0.67"/><circle cx="179.2" cy="22.9" r="2.8" fill="#101B15" opacity="0.61"/><circle cx="188.8" cy="132.3" r="0.8" fill="#101B15" opacity="0.44"/><circle cx="118.1" cy="186.7" r="2.5" fill="#C7A94F" opacity="0.65"/><circle cx="108.5" cy="157.1" r="0.9" fill="#C7A94F" opacity="0.40"/><circle cx="71.7" cy="29.2" r="2.0" fill="#C7A94F" opacity="0.70"/><circle cx="45.3" cy="26.0" r="1.7" fill="#101B15" opacity="0.51"/><circle cx="81.8" cy="162.9" r="1.6" fill="#C7A94F" opacity="0.57"/><circle cx="70.8" cy="136.8" r="1.5" fill="#C7A94F" opacity="0.70"/><circle cx="94.2" cy="148.3" r="0.7" fill="#101B15" opacity="0.28"/><circle cx="115.8" cy="57.2" r="0.6" fill="#C7A94F" opacity="0.68"/><circle cx="2.7" cy="71.7" r="1.5" fill="#101B15" opacity="0.48"/><circle cx="81.6" cy="170.1" r="1.9" fill="#101B15" opacity="0.51"/><circle cx="27.1" cy="56.6" r="2.6" fill="#C7A94F" opacity="0.25"/><circle cx="84.2" cy="50.6" r="2.4" fill="#101B15" opacity="0.57"/><circle cx="24.0" cy="108.0" r="0.9" fill="#101B15" opacity="0.74"/><circle cx="32.3" cy="177.8" r="1.1" fill="#101B15" opacity="0.34"/><circle cx="131.9" cy="90.1" r="2.0" fill="#C7A94F" opacity="0.52"/><circle cx="138.3" cy="178.9" r="2.5" fill="#C7A94F" opacity="0.50"/><circle cx="148.2" cy="37.4" r="0.6" fill="#C7A94F" opacity="0.49"/><circle cx="162.5" cy="6.9" r="0.6" fill="#101B15" opacity="0.38"/><circle cx="40.9" cy="199.3" r="2.3" fill="#101B15" opacity="0.35"/><circle cx="191.5" cy="52.0" r="1.5" fill="#101B15" opacity="0.73"/><circle cx="192.6" cy="17.7" r="2.7" fill="#101B15" opacity="0.68"/><circle cx="148.6" cy="185.8" r="2.8" fill="#C7A94F" opacity="0.33"/><circle cx="178.7" cy="38.5" r="1.6" fill="#C7A94F" opacity="0.60"/><circle cx="38.9" cy="139.2" r="2.0" fill="#C7A94F" opacity="0.46"/><circle cx="78.1" cy="155.3" r="1.9" fill="#101B15" opacity="0.47"/><circle cx="126.5" cy="13.3" r="1.1" fill="#C7A94F" opacity="0.66"/><circle cx="118.1" cy="188.0" r="0.7" fill="#C7A94F" opacity="0.27"/><circle cx="46.0" cy="124.3" r="2.1" fill="#C7A94F" opacity="0.32"/><circle cx="51.7" cy="193.3" r="2.5" fill="#101B15" opacity="0.44"/><circle cx="46.8" cy="180.7" r="1.4" fill="#C7A94F" opacity="0.65"/><circle cx="69.0" cy="109.5" r="1.3" fill="#C7A94F" opacity="0.41"/><circle cx="170.8" cy="195.0" r="1.5" fill="#C7A94F" opacity="0.48"/><circle cx="41.7" cy="134.1" r="1.9" fill="#101B15" opacity="0.64"/><circle cx="163.8" cy="127.6" r="1.9" fill="#C7A94F" opacity="0.30"/><circle cx="100.6" cy="35.1" r="2.7" fill="#C7A94F" opacity="0.32"/><circle cx="119.5" cy="64.9" r="2.5" fill="#101B15" opacity="0.28"/><circle cx="147.0" cy="195.2" r="1.9" fill="#101B15" opacity="0.52"/><circle cx="57.7" cy="130.4" r="1.8" fill="#C7A94F" opacity="0.51"/><circle cx="96.8" cy="189.6" r="1.1" fill="#C7A94F" opacity="0.62"/><circle cx="35.3" cy="129.0" r="1.4" fill="#C7A94F" opacity="0.61"/><circle cx="58.8" cy="97.3" r="1.4" fill="#C7A94F" opacity="0.59"/><circle cx="190.4" cy="124.9" r="2.3" fill="#C7A94F" opacity="0.68"/><circle cx="45.3" cy="145.7" r="0.7" fill="#101B15" opacity="0.62"/><circle cx="120.6" cy="152.8" r="1.4" fill="#C7A94F" opacity="0.60"/><circle cx="16.8" cy="87.6" r="2.0" fill="#101B15" opacity="0.53"/><circle cx="193.8" cy="61.9" r="2.2" fill="#101B15" opacity="0.58"/><circle cx="59.6" cy="113.3" r="2.2" fill="#C7A94F" opacity="0.58"/><circle cx="192.7" cy="94.2" r="2.4" fill="#C7A94F" opacity="0.69"/><circle cx="97.3" cy="94.3" r="1.5" fill="#101B15" opacity="0.55"/><circle cx="92.7" cy="195.5" r="1.8" fill="#101B15" opacity="0.57"/><circle cx="134.9" cy="161.5" r="1.6" fill="#101B15" opacity="0.72"/><circle cx="172.7" cy="59.6" r="1.2" fill="#101B15" opacity="0.55"/><circle cx="36.4" cy="16.2" r="2.4" fill="#101B15" opacity="0.61"/><circle cx="59.9" cy="106.1" r="2.0" fill="#C7A94F" opacity="0.64"/><circle cx="36.4" cy="174.4" r="1.3" fill="#C7A94F" opacity="0.64"/><circle cx="107.4" cy="192.0" r="2.0" fill="#C7A94F" opacity="0.26"/><circle cx="184.4" cy="144.7" r="1.5" fill="#C7A94F" opacity="0.51"/><circle cx="105.3" cy="55.4" r="2.1" fill="#C7A94F" opacity="0.35"/><circle cx="122.3" cy="139.6" r="1.0" fill="#C7A94F" opacity="0.54"/><circle cx="125.2" cy="94.0" r="2.5" fill="#C7A94F" opacity="0.36"/><circle cx="195.9" cy="119.3" r="1.5" fill="#101B15" opacity="0.73"/><circle cx="98.0" cy="75.5" r="1.6" fill="#C7A94F" opacity="0.49"/><circle cx="98.8" cy="170.5" r="0.8" fill="#C7A94F" opacity="0.74"/><circle cx="124.9" cy="182.8" r="2.0" fill="#101B15" opacity="0.31"/><circle cx="50.9" cy="16.6" r="1.8" fill="#101B15" opacity="0.68"/><circle cx="122.0" cy="191.1" r="1.0" fill="#C7A94F" opacity="0.69"/><circle cx="109.0" cy="62.4" r="1.5" fill="#101B15" opacity="0.64"/><circle cx="197.8" cy="179.4" r="1.8" fill="#C7A94F" opacity="0.62"/><circle cx="11.3" cy="172.3" r="1.1" fill="#C7A94F" opacity="0.25"/><circle cx="164.9" cy="174.9" r="2.4" fill="#C7A94F" opacity="0.27"/><circle cx="155.4" cy="180.7" r="1.9" fill="#101B15" opacity="0.37"/><circle cx="183.6" cy="130.8" r="1.3" fill="#101B15" opacity="0.46"/><circle cx="109.2" cy="137.0" r="2.7" fill="#101B15" opacity="0.72"/><circle cx="140.3" cy="37.0" r="2.1" fill="#101B15" opacity="0.46"/><circle cx="55.3" cy="83.2" r="1.7" fill="#101B15" opacity="0.36"/><circle cx="158.6" cy="165.2" r="2.6" fill="#C7A94F" opacity="0.55"/><circle cx="169.2" cy="165.1" r="2.6" fill="#101B15" opacity="0.44"/><circle cx="43.3" cy="46.4" r="2.5" fill="#C7A94F" opacity="0.50"/><circle cx="129.7" cy="76.4" r="2.2" fill="#101B15" opacity="0.29"/><circle cx="58.7" cy="181.6" r="1.5" fill="#C7A94F" opacity="0.35"/><circle cx="164.2" cy="36.8" r="1.7" fill="#C7A94F" opacity="0.42"/><circle cx="39.3" cy="87.0" r="1.7" fill="#C7A94F" opacity="0.49"/><circle cx="25.5" cy="103.2" r="1.2" fill="#C7A94F" opacity="0.73"/><circle cx="34.5" cy="71.2" r="1.7" fill="#C7A94F" opacity="0.65"/><circle cx="104.0" cy="13.9" r="1.4" fill="#101B15" opacity="0.69"/><circle cx="86.3" cy="146.6" r="1.7" fill="#101B15" opacity="0.63"/><circle cx="71.1" cy="166.3" r="2.7" fill="#C7A94F" opacity="0.74"/><circle cx="140.4" cy="73.6" r="1.3" fill="#101B15" opacity="0.44"/><circle cx="57.8" cy="128.4" r="1.2" fill="#101B15" opacity="0.58"/><circle cx="90.6" cy="138.7" r="2.6" fill="#101B15" opacity="0.74"/><circle cx="165.3" cy="82.9" r="1.8" fill="#C7A94F" opacity="0.26"/><circle cx="156.6" cy="65.3" r="1.9" fill="#101B15" opacity="0.62"/><circle cx="109.6" cy="5.1" r="1.7" fill="#101B15" opacity="0.68"/><circle cx="195.2" cy="58.4" r="0.7" fill="#C7A94F" opacity="0.71"/><circle cx="199.3" cy="174.0" r="1.9" fill="#101B15" opacity="0.30"/><circle cx="144.8" cy="182.1" r="2.3" fill="#C7A94F" opacity="0.60"/><circle cx="46.9" cy="16.7" r="2.6" fill="#C7A94F" opacity="0.32"/><circle cx="2.8" cy="71.0" r="1.3" fill="#101B15" opacity="0.66"/><circle cx="12.8" cy="86.4" r="2.4" fill="#C7A94F" opacity="0.55"/><circle cx="137.1" cy="174.6" r="1.2" fill="#C7A94F" opacity="0.64"/><circle cx="183.5" cy="173.2" r="2.6" fill="#C7A94F" opacity="0.75"/><circle cx="130.4" cy="134.7" r="2.1" fill="#101B15" opacity="0.57"/><circle cx="82.3" cy="148.7" r="1.0" fill="#C7A94F" opacity="0.71"/><circle cx="158.2" cy="97.2" r="1.4" fill="#C7A94F" opacity="0.59"/><circle cx="114.3" cy="143.7" r="1.8" fill="#C7A94F" opacity="0.69"/><circle cx="99.3" cy="155.7" r="2.2" fill="#C7A94F" opacity="0.56"/><circle cx="143.5" cy="59.5" r="2.5" fill="#101B15" opacity="0.74"/><circle cx="180.9" cy="130.0" r="1.5" fill="#101B15" opacity="0.47"/><circle cx="4.7" cy="12.1" r="0.6" fill="#101B15" opacity="0.26"/><circle cx="156.2" cy="77.0" r="1.5" fill="#101B15" opacity="0.74"/><circle cx="147.2" cy="110.3" r="1.5" fill="#101B15" opacity="0.45"/><circle cx="15.2" cy="134.8" r="0.8" fill="#101B15" opacity="0.32"/><circle cx="12.9" cy="166.2" r="0.9" fill="#C7A94F" opacity="0.62"/><circle cx="29.6" cy="101.2" r="1.9" fill="#C7A94F" opacity="0.65"/><circle cx="147.5" cy="140.4" r="0.7" fill="#C7A94F" opacity="0.30"/><circle cx="130.1" cy="143.8" r="0.9" fill="#101B15" opacity="0.44"/><circle cx="44.9" cy="119.4" r="0.7" fill="#C7A94F" opacity="0.64"/><circle cx="18.2" cy="45.5" r="2.8" fill="#C7A94F" opacity="0.74"/><circle cx="124.8" cy="26.5" r="1.6" fill="#101B15" opacity="0.72"/><circle cx="9.7" cy="181.6" r="2.4" fill="#101B15" opacity="0.44"/><circle cx="44.0" cy="66.8" r="2.7" fill="#C7A94F" opacity="0.67"/><circle cx="13.4" cy="31.0" r="1.0" fill="#101B15" opacity="0.52"/><circle cx="140.7" cy="104.4" r="0.8" fill="#C7A94F" opacity="0.60"/><circle cx="41.5" cy="21.0" r="0.8" fill="#101B15" opacity="0.65"/><circle cx="12.6" cy="173.9" r="1.4" fill="#101B15" opacity="0.37"/><circle cx="54.6" cy="104.6" r="2.5" fill="#C7A94F" opacity="0.67"/><circle cx="27.5" cy="124.7" r="1.5" fill="#101B15" opacity="0.71"/><circle cx="139.1" cy="71.9" r="1.0" fill="#101B15" opacity="0.32"/><circle cx="168.1" cy="198.8" r="1.1" fill="#101B15" opacity="0.67"/><circle cx="18.5" cy="194.6" r="0.7" fill="#101B15" opacity="0.39"/><circle cx="9.7" cy="141.7" r="2.0" fill="#101B15" opacity="0.40"/><circle cx="97.7" cy="3.6" r="1.3" fill="#101B15" opacity="0.67"/><circle cx="31.4" cy="47.4" r="0.8" fill="#101B15" opacity="0.74"/><circle cx="40.9" cy="199.9" r="2.5" fill="#C7A94F" opacity="0.67"/><circle cx="60.2" cy="135.7" r="1.0" fill="#C7A94F" opacity="0.69"/><circle cx="82.6" cy="99.8" r="1.9" fill="#C7A94F" opacity="0.30"/><circle cx="49.4" cy="63.2" r="2.6" fill="#101B15" opacity="0.65"/><circle cx="72.3" cy="11.8" r="2.5" fill="#C7A94F" opacity="0.27"/><circle cx="188.9" cy="168.3" r="2.0" fill="#101B15" opacity="0.60"/><circle cx="51.9" cy="148.2" r="2.5" fill="#101B15" opacity="0.40"/><circle cx="150.5" cy="48.5" r="1.8" fill="#C7A94F" opacity="0.47"/><circle cx="167.0" cy="69.7" r="1.3" fill="#C7A94F" opacity="0.70"/><circle cx="65.0" cy="71.7" r="2.4" fill="#C7A94F" opacity="0.45"/><circle cx="111.6" cy="62.6" r="1.1" fill="#C7A94F" opacity="0.32"/><circle cx="33.6" cy="20.6" r="2.2" fill="#C7A94F" opacity="0.62"/><circle cx="105.4" cy="50.3" r="2.5" fill="#C7A94F" opacity="0.35"/><circle cx="172.3" cy="70.6" r="2.8" fill="#101B15" opacity="0.36"/><circle cx="5.2" cy="37.8" r="2.7" fill="#C7A94F" opacity="0.42"/><circle cx="189.9" cy="100.6" r="0.7" fill="#C7A94F" opacity="0.64"/><circle cx="149.2" cy="89.3" r="2.7" fill="#C7A94F" opacity="0.64"/><circle cx="98.6" cy="137.8" r="0.7" fill="#C7A94F" opacity="0.64"/><circle cx="134.9" cy="39.3" r="1.7" fill="#101B15" opacity="0.36"/><circle cx="58.9" cy="135.3" r="1.1" fill="#C7A94F" opacity="0.69"/><circle cx="130.4" cy="137.3" r="0.8" fill="#C7A94F" opacity="0.31"/><circle cx="157.3" cy="83.2" r="1.2" fill="#101B15" opacity="0.54"/><circle cx="118.2" cy="25.3" r="2.4" fill="#101B15" opacity="0.56"/><circle cx="117.3" cy="53.1" r="1.1" fill="#101B15" opacity="0.49"/><circle cx="73.7" cy="48.8" r="1.7" fill="#101B15" opacity="0.74"/><circle cx="143.7" cy="175.9" r="2.6" fill="#C7A94F" opacity="0.29"/><circle cx="75.9" cy="101.7" r="1.7" fill="#C7A94F" opacity="0.70"/><circle cx="100.7" cy="152.8" r="1.0" fill="#C7A94F" opacity="0.50"/><circle cx="152.0" cy="3.8" r="1.6" fill="#101B15" opacity="0.43"/><circle cx="23.0" cy="99.9" r="2.7" fill="#C7A94F" opacity="0.50"/><circle cx="55.0" cy="11.9" r="1.6" fill="#C7A94F" opacity="0.35"/><circle cx="159.9" cy="125.8" r="2.1" fill="#C7A94F" opacity="0.51"/><circle cx="175.2" cy="64.2" r="2.3" fill="#101B15" opacity="0.41"/><circle cx="153.4" cy="42.8" r="1.5" fill="#C7A94F" opacity="0.34"/><circle cx="184.0" cy="158.3" r="1.8" fill="#101B15" opacity="0.57"/><circle cx="149.1" cy="11.5" r="2.6" fill="#101B15" opacity="0.50"/><circle cx="12.3" cy="62.1" r="0.8" fill="#101B15" opacity="0.50"/><circle cx="40.9" cy="118.2" r="1.0" fill="#101B15" opacity="0.66"/><circle cx="161.5" cy="158.2" r="1.8" fill="#C7A94F" opacity="0.29"/><circle cx="48.6" cy="86.5" r="1.9" fill="#101B15" opacity="0.39"/><circle cx="147.4" cy="22.1" r="2.2" fill="#C7A94F" opacity="0.31"/><circle cx="28.9" cy="121.2" r="2.2" fill="#C7A94F" opacity="0.33"/><circle cx="78.9" cy="132.6" r="0.6" fill="#101B15" opacity="0.54"/><circle cx="120.1" cy="86.6" r="1.0" fill="#101B15" opacity="0.58"/><circle cx="168.1" cy="117.1" r="1.9" fill="#101B15" opacity="0.66"/><circle cx="119.8" cy="17.2" r="1.6" fill="#101B15" opacity="0.50"/><circle cx="175.7" cy="128.4" r="2.0" fill="#C7A94F" opacity="0.50"/><circle cx="195.8" cy="162.5" r="0.9" fill="#C7A94F" opacity="0.33"/><circle cx="188.0" cy="156.9" r="2.7" fill="#101B15" opacity="0.30"/><circle cx="130.8" cy="164.3" r="1.1" fill="#C7A94F" opacity="0.61"/><circle cx="128.5" cy="74.0" r="1.6" fill="#C7A94F" opacity="0.36"/><circle cx="100.2" cy="168.3" r="2.0" fill="#101B15" opacity="0.49"/><circle cx="2.1" cy="10.7" r="0.7" fill="#C7A94F" opacity="0.45"/><circle cx="183.0" cy="68.5" r="2.2" fill="#C7A94F" opacity="0.32"/><circle cx="73.0" cy="68.2" r="1.8" fill="#C7A94F" opacity="0.61"/><circle cx="6.3" cy="84.5" r="0.8" fill="#C7A94F" opacity="0.58"/><circle cx="175.9" cy="162.5" r="2.6" fill="#101B15" opacity="0.72"/><circle cx="123.2" cy="73.1" r="2.4" fill="#101B15" opacity="0.70"/><circle cx="160.0" cy="2.3" r="1.7" fill="#101B15" opacity="0.52"/><circle cx="123.9" cy="172.7" r="1.0" fill="#C7A94F" opacity="0.63"/></pattern></defs><rect width="200" height="200" fill="url(#sw-verde-ubatuba)"/></svg>