<svg xmlns="http://www.w3.org/2000/svg" viewBox="0 0 1200 800"><defs><pattern id="st-calacatta-oro" patternUnits="userSpaceOnUse" width="300" height="200"><rect width="300" height="200" fill="#F2EFE8"/><polyline points="0,87 50,96 100,64 150,86 200,118 250,79 300,83" fill="none" stroke="#C9A25E" stroke-width="2.0" opacity="0.51" stroke-linecap="round"/><polyline points="0,143 50,192 100,188 150,134 200,137 250,144 300,151" fill="none" stroke="#C9A25E" stroke-width="2.7" opacity="0.43" stroke-linecap="round"/><polyline points="0,87 50,76 100,94 150,84 200,113 250,81 300,110" fill="none" stroke="#9A9C9E" stroke-width="2.0" opacity="0.42" stroke-linecap="round"/><polyline points="0,-18 50,19 100,15 150,13 200,29 250,23 300,-17" fill="none" stroke="#C9A25E" stroke-width="1.4" opacity="0.63" stroke-linecap="round"/><polyline points="0,21 50,40 100,24 150,36 200,13 250,58 300,19" fill="none" stroke="#C9A25E" stroke-width="1.2" opacity="0.33" stroke-linecap="round"/><polyline points="0,198 50,185 100,211 150,187 200,196 250,198 300,147" fill="none" stroke="#9A9C9E" stroke-width="3.8" opacity="0.61" stroke-linecap="round"/><polyline points="0,100 50,86 100,80 150,69 200,62 250,127 300,59" fill="none" stroke="#C9A25E" stroke-width="1.4" opacity="0.66" stroke-linecap="round"/></pattern></defs>
    <rect width="1200" height="800" fill="#F1EEE9"/>
    <rect x="200" y="150" width="800" height="26" fill="#C8A97E"/>
    <rect x="200" y="300" width="800" height="26" fill="#C8A97E"/>
    <rect x="260" y="90" width="44" height="60" fill="#FBFBFA" stroke="#DDD" stroke-width="3"/>
    <rect x="330" y="96" width="44" height="54" fill="#FBFBFA" stroke="#DDD" stroke-width="3"/>
    <rect x="640" y="230" width="120" height="70" fill="#2E3134"/>
    <rect x="150" y="470" width="900" height="70" fill="url(#st-calacatta-oro)"/>
    <rect x="150" y="540" width="900" height="14" fill="#00000022"/></svg>