<svg xmlns="http://www.w3.org/2000/svg" viewBox="0 0 1200 800"><defs><pattern id="st-negro-marquina" patternUnits="userSpaceOnUse" width="300" height="200"><rect width="300" height="200" fill="#1E2022"/><polyline points="0,130 50,124 100,135 150,107 200,106 250,102 300,77" fill="none" stroke="#F4F4F2" stroke-width="2.9" opacity="0.51" stroke-linecap="round"/><polyline points="0,11 50,6 100,19 150,21 200,31 250,6 300,6" fill="none" stroke="#F4F4F2" stroke-width="4.0" opacity="0.67" stroke-linecap="round"/><polyline points="0,56 50,57 100,81 150,51 200,44 250,94 300,48" fill="none" stroke="#3A3D3F" stroke-width="3.3" opacity="0.44" stroke-linecap="round"/><polyline points="0,128 50,121 100,140 150,97 200,146 250,107 300,142" fill="none" stroke="#F4F4F2" stroke-width="3.5" opacity="0.53" stroke-linecap="round"/><polyline points="0,17 50,31 100,-29 150,35 200,21 250,-2 300,-30" fill="none" stroke="#F4F4F2" stroke-width="2.7" opacity="0.53" stroke-linecap="round"/><polyline points="0,81 50,91 100,48 150,77 200,83 250,46 300,85" fill="none" stroke="#3A3D3F" stroke-width="2.9" opacity="0.57" stroke-linecap="round"/><polyline points="0,133 50,70 100,89 150,71 200,114 250,103 300,97" fill="none" stroke="#F4F4F2" stroke-width="1.0" opacity="0.52" stroke-linecap="round"/></pattern></defs>
    <rect width="1200" height="800" fill="#F1EEE9"/>
    <rect x="200" y="150" width="800" height="26" fill="#C8A97E"/>
    <rect x="200" y="300" width="800" height="26" fill="#C8A97E"/>
    <rect x="260" y="90" width="44" height="60" fill="#FBFBFA" stroke="#DDD" stroke-width="3"/>
    <rect x="330" y="96" width="44" height="54" fill="#FBFBFA" stroke="#DDD" stroke-width="3"/>
    <rect x="640" y="230" width="120" height="70" fill="#2E3134"/>
    <rect x="150" y="470" width="900" height="70" fill="url(#st-negro-marquina)"/>
    <rect x="150" y="540" width="900" height="14" fill="#00000022"/></svg>